<?xml version="1.0" encoding="UTF-8" standalone="no"?>
<!-- Created with Inkscape (http://www.inkscape.org/) -->

<svg
   xmlns:dc="http://purl.org/dc/elements/1.1/"
   xmlns:cc="http://creativecommons.org/ns#"
   xmlns:rdf="http://www.w3.org/1999/02/22-rdf-syntax-ns#"
   xmlns:svg="http://www.w3.org/2000/svg"
   xmlns="http://www.w3.org/2000/svg"
   xmlns:sodipodi="http://sodipodi.sourceforge.net/DTD/sodipodi-0.dtd"
   xmlns:inkscape="http://www.inkscape.org/namespaces/inkscape"
   width="45.661194"
   height="19.429998"
   viewBox="0 0 12.081191 5.1408539"
   version="1.1"
   id="svg8"
   inkscape:version="0.92.3 (2405546, 2018-03-11)"
   sodipodi:docname="bip2.svg">
  <defs
     id="defs2">
    <style
       id="style815">.cls-1{fill:#a3a0ab;}</style>
  </defs>
  <sodipodi:namedview
     id="base"
     pagecolor="#ffffff"
     bordercolor="#666666"
     borderopacity="1.0"
     inkscape:pageopacity="0.0"
     inkscape:pageshadow="2"
     inkscape:zoom="11.2"
     inkscape:cx="33.027741"
     inkscape:cy="13.596877"
     inkscape:document-units="mm"
     inkscape:current-layer="layer1"
     showgrid="false"
     fit-margin-top="0"
     fit-margin-left="0"
     fit-margin-right="0"
     fit-margin-bottom="0"
     units="px"
     inkscape:window-width="1920"
     inkscape:window-height="1017"
     inkscape:window-x="1912"
     inkscape:window-y="-8"
     inkscape:window-maximized="1" />
  <metadata
     id="metadata5">
    <rdf:RDF>
      <cc:Work
         rdf:about="">
        <dc:format>image/svg+xml</dc:format>
        <dc:type
           rdf:resource="http://purl.org/dc/dcmitype/StillImage" />
        <dc:title></dc:title>
      </cc:Work>
    </rdf:RDF>
  </metadata>
  <g
     inkscape:label="Layer 1"
     inkscape:groupmode="layer"
     id="layer1"
     transform="translate(-43.096309,-160.626)">
    <g
       data-name="Warstwa 2"
       id="Warstwa_2"
       transform="matrix(0.26458333,0,0,0.26458333,43.096309,160.62865)">
      <g
         data-name="Warstwa 1"
         id="Warstwa_1-2">
        <polygon
           id="polygon821"
           points="10.58,4.07 0,4.07 10.58,14.81 "
           class="cls-1"
           style="fill:#a3a0ab" />
        <path
           id="path823"
           d="M 39.57,4.07 A 5.81,5.81 0 0 0 33.76,9.88 V 18 a 1.42,1.42 0 0 0 2.84,0 v -3.15 a 5.69,5.69 0 0 0 3,0.85 5.82,5.82 0 1 0 0,-11.63 m 0,8.78 a 3,3 0 1 1 3,-3 3,3 0 0 1 -3,3 m -19,-8.78 a 5.75,5.75 0 0 0 -3,0.85 v -3.5 a 1.42,1.42 0 1 0 -2.84,0 v 8.47 0 a 5.81,5.81 0 1 0 5.81,-5.83 m 0,8.79 a 3,3 0 1 1 3,-3 3,3 0 0 1 -3,3 M 31.47,13 c -0.2,-0.1 -0.78,-0.39 -0.78,-2.65 V 5.5 a 1.42,1.42 0 1 0 -2.83,0 v 4.86 c 0,1.72 0.24,4.13 2.33,5.19 a 1.43,1.43 0 0 0 1.91,-0.64 1.41,1.41 0 0 0 -0.63,-1.9 M 29.28,3.13 a 1.57,1.57 0 1 0 -1.57,-1.56 1.56,1.56 0 0 0 1.57,1.56"
           class="cls-1"
           inkscape:connector-curvature="0"
           style="fill:#a3a0ab" />
      </g>
    </g>
  </g>
</svg>
