<?xml version="1.0" encoding="UTF-8"?>
<svg width="60px" height="60px" viewBox="0 0 60 60" version="1.1" xmlns="http://www.w3.org/2000/svg" xmlns:xlink="http://www.w3.org/1999/xlink">
    <!-- Generator: Sketch 55 (78076) - https://sketchapp.com -->
    <title>s3</title>
    <desc>Created with Sketch.</desc>
    <g id="Page-1" stroke="none" stroke-width="1" fill="none" fill-rule="evenodd">
        <g id="Group-6">
            <g id="002-deaf" transform="translate(20.000000, 19.000000)" fill="#456282" fill-rule="nonzero">
                <path d="M11.7399689,17.4527692 C11.6182097,17.6668462 11.5181336,17.8733077 11.4347368,18.084 C10.9643792,19.2593077 9.86437604,22 6.62608025,22 C3.67216738,22 2.75480313,18.8988462 2.75480313,17.7692308 C2.75480313,17.3013077 3.12842057,16.9230769 3.58877063,16.9230769 C4.04912069,16.9230769 4.42273812,17.3013077 4.42273812,17.7692308 C4.42273812,17.7946154 4.65624902,20.3076923 6.62608025,20.3076923 C8.38825357,20.3076923 9.18052269,19.2144615 9.88939506,17.4502308 C10.0011467,17.1676154 10.1345815,16.8909231 10.2955372,16.6066154 C10.5248783,16.2013077 11.0369343,16.0625385 11.4347368,16.2969231 C11.8342073,16.5304615 11.9709779,17.0474615 11.7399689,17.4527692 Z M19.7560645,20.9084615 C19.5934408,21.0734615 19.3799452,21.1563846 19.1664495,21.1563846 C18.9529538,21.1563846 18.7394581,21.0734615 18.5768345,20.9084615 L9.60334421,11.8038462 C9.60334421,11.8063846 9.60417818,11.8089231 9.60501214,11.8114615 L6.14404704,8.29823077 C6.144881,8.29738462 6.14571497,8.29653846 6.14654894,8.29569231 L0.244560968,2.30830769 C-0.0815203227,1.97746154 -0.0815203227,1.44269231 0.244560968,1.11184615 C0.570642259,0.781 1.09770972,0.781 1.42379101,1.11184615 L4.05329052,3.77976923 C5.02819853,1.55776923 7.41584747,0 10.0912152,0 C13.381217,0 16.9322506,2.78469231 16.9322506,7.28284615 C16.9322506,10.7199231 15.6771295,12.7092308 14.3719704,14.2492308 L19.7560645,19.712 C20.0813118,20.0428462 20.0813118,20.5776154 19.7560645,20.9084615 Z M13.1902384,13.0510769 C14.330272,11.6896154 15.2643156,10.1047692 15.2643156,7.28284615 C15.2643156,3.82969231 12.5789402,1.69230769 10.0912152,1.69230769 C7.5125877,1.69230769 5.78210514,3.41761538 5.36845726,5.11415385 L7.1481439,6.91984615 C8.11054239,4.07084615 8.84776966,3.38461538 10.6124449,3.38461538 C12.2411834,3.38461538 13.6022184,4.58446154 13.6022184,6.88176923 C13.6022184,7.23884615 13.5705276,7.61538462 13.2711333,7.61538462 C12.5063851,7.61538462 13.5446746,5.07692308 11.0294286,5.07692308 C9.42821104,5.07692308 8.64928539,6.43246154 8.90614738,8.70353846 L13.1902384,13.0510769 Z M5.25670562,14.4819231 C5.25670562,14.7433846 5.25670562,16.0836923 6.92464061,16.0836923 C7.90872226,16.0836923 8.88446423,15.1969231 9.3548219,13.9505385 L6.8837762,11.4433846 C6.89962159,11.5110769 6.92464061,11.572 6.92464061,11.6532308 C6.92464061,13.2016923 5.25670562,12.7777692 5.25670562,14.4819231 Z" id="Shape"></path>
            </g>
            <rect id="Rectangle" fill="#F5F5F5" x="0" y="0" width="60" height="60"></rect>
            <g id="002-deaf" transform="translate(20.000000, 19.000000)" fill="#456282" fill-rule="nonzero">
                <path d="M11.7399689,17.4527692 C11.6182097,17.6668462 11.5181336,17.8733077 11.4347368,18.084 C10.9643792,19.2593077 9.86437604,22 6.62608025,22 C3.67216738,22 2.75480313,18.8988462 2.75480313,17.7692308 C2.75480313,17.3013077 3.12842057,16.9230769 3.58877063,16.9230769 C4.04912069,16.9230769 4.42273812,17.3013077 4.42273812,17.7692308 C4.42273812,17.7946154 4.65624902,20.3076923 6.62608025,20.3076923 C8.38825357,20.3076923 9.18052269,19.2144615 9.88939506,17.4502308 C10.0011467,17.1676154 10.1345815,16.8909231 10.2955372,16.6066154 C10.5248783,16.2013077 11.0369343,16.0625385 11.4347368,16.2969231 C11.8342073,16.5304615 11.9709779,17.0474615 11.7399689,17.4527692 Z M19.7560645,20.9084615 C19.5934408,21.0734615 19.3799452,21.1563846 19.1664495,21.1563846 C18.9529538,21.1563846 18.7394581,21.0734615 18.5768345,20.9084615 L9.60334421,11.8038462 C9.60334421,11.8063846 9.60417818,11.8089231 9.60501214,11.8114615 L6.14404704,8.29823077 C6.144881,8.29738462 6.14571497,8.29653846 6.14654894,8.29569231 L0.244560968,2.30830769 C-0.0815203227,1.97746154 -0.0815203227,1.44269231 0.244560968,1.11184615 C0.570642259,0.781 1.09770972,0.781 1.42379101,1.11184615 L4.05329052,3.77976923 C5.02819853,1.55776923 7.41584747,0 10.0912152,0 C13.381217,0 16.9322506,2.78469231 16.9322506,7.28284615 C16.9322506,10.7199231 15.6771295,12.7092308 14.3719704,14.2492308 L19.7560645,19.712 C20.0813118,20.0428462 20.0813118,20.5776154 19.7560645,20.9084615 Z M13.1902384,13.0510769 C14.330272,11.6896154 15.2643156,10.1047692 15.2643156,7.28284615 C15.2643156,3.82969231 12.5789402,1.69230769 10.0912152,1.69230769 C7.5125877,1.69230769 5.78210514,3.41761538 5.36845726,5.11415385 L7.1481439,6.91984615 C8.11054239,4.07084615 8.84776966,3.38461538 10.6124449,3.38461538 C12.2411834,3.38461538 13.6022184,4.58446154 13.6022184,6.88176923 C13.6022184,7.23884615 13.5705276,7.61538462 13.2711333,7.61538462 C12.5063851,7.61538462 13.5446746,5.07692308 11.0294286,5.07692308 C9.42821104,5.07692308 8.64928539,6.43246154 8.90614738,8.70353846 L13.1902384,13.0510769 Z M5.25670562,14.4819231 C5.25670562,14.7433846 5.25670562,16.0836923 6.92464061,16.0836923 C7.90872226,16.0836923 8.88446423,15.1969231 9.3548219,13.9505385 L6.8837762,11.4433846 C6.89962159,11.5110769 6.92464061,11.572 6.92464061,11.6532308 C6.92464061,13.2016923 5.25670562,12.7777692 5.25670562,14.4819231 Z" id="Shape"></path>
            </g>
        </g>
    </g>
</svg>