<?xml version="1.0" encoding="UTF-8"?>
<svg width="60px" height="60px" viewBox="0 0 60 60" version="1.1" xmlns="http://www.w3.org/2000/svg" xmlns:xlink="http://www.w3.org/1999/xlink">
    <!-- Generator: Sketch 55 (78076) - https://sketchapp.com -->
    <title>s2</title>
    <desc>Created with Sketch.</desc>
    <g id="Page-1" stroke="none" stroke-width="1" fill="none" fill-rule="evenodd">
        <g id="Group-7">
            <rect id="Rectangle" fill="#F5F5F5" x="0" y="0" width="60" height="60"></rect>
            <g id="if_wheelchair_1608737" transform="translate(20.000000, 19.000000)" fill="#456282" fill-rule="nonzero">
                <path d="M12.5598527,14.4375 L13.8121547,16.9875 C13.3374258,18.4791667 12.4780029,19.6875 11.2338858,20.6125 C9.98976877,21.5375 8.60241457,22 7.0718232,22 C5.79496624,22 4.61428279,21.6770833 3.52977287,21.03125 C2.44526294,20.3854167 1.58583998,19.5104167 0.95150399,18.40625 C0.317167997,17.3020833 0,16.1 0,14.8 C0,13.2916667 0.427665234,11.9166667 1.2829957,10.675 C2.13832617,9.43333333 3.26171475,8.55416667 4.65316145,8.0375 L4.86187845,9.675 C3.86331082,10.125 3.06527522,10.8145833 2.46777164,11.74375 C1.87026806,12.6729167 1.57151627,13.6916667 1.57151627,14.8 C1.57151627,16.3416667 2.10967874,17.6604167 3.18600368,18.75625 C4.26232863,19.8520833 5.5576018,20.4 7.0718232,20.4 C8.10313076,20.4 9.05463475,20.1291667 9.92633517,19.5875 C10.7980356,19.0458333 11.4732965,18.3145833 11.9521179,17.39375 C12.4309392,16.4729167 12.6335175,15.4875 12.5598527,14.4375 Z M19.2879067,15.6875 L20,17.1125 L16.8569675,18.7125 C16.7505627,18.7708333 16.6318805,18.8 16.5009208,18.8 C16.1735216,18.8 15.9402496,18.6541667 15.801105,18.3625 L12.8667894,12.4 L7.0718232,12.4 C6.87538367,12.4 6.70145283,12.33125 6.55003069,12.19375 C6.39860855,12.05625 6.31062001,11.8875 6.28606507,11.6875 L5.10742787,1.95 C5.09105791,1.81666667 5.11561285,1.64166667 5.18109269,1.425 C5.29568242,1 5.52895437,0.65625 5.88090853,0.39375 C6.2328627,0.13125 6.62983425,0 7.0718232,0 C7.61203192,0 8.07448332,0.195833333 8.45917741,0.5875 C8.8438715,0.979166667 9.03621854,1.45 9.03621854,2 C9.03621854,2.575 8.82340904,3.06458333 8.39779006,3.46875 C7.97217107,3.87291667 7.48107223,4.04583333 6.92449355,3.9875 L7.37875998,7.6 L12.5721301,7.6 L12.5721301,9.2 L7.57519951,9.2 L7.77163904,10.8 L13.3578883,10.8 C13.6852875,10.8 13.9185594,10.9458333 14.0577041,11.2375 L16.8569675,16.925 L19.2879067,15.6875 Z" id="Shape"></path>
            </g>
        </g>
    </g>
</svg>