<?xml version="1.0" encoding="UTF-8"?>
<svg width="60px" height="60px" viewBox="0 0 60 60" version="1.1" xmlns="http://www.w3.org/2000/svg" xmlns:xlink="http://www.w3.org/1999/xlink">
    <!-- Generator: Sketch 55 (78076) - https://sketchapp.com -->
    <title>s1</title>
    <desc>Created with Sketch.</desc>
    <g id="Page-1" stroke="none" stroke-width="1" fill="none" fill-rule="evenodd">
        <g id="Group-8">
            <rect id="Rectangle" fill="#F5F5F5" x="0" y="0" width="60" height="60"></rect>
            <g id="invisible-symbol" transform="translate(19.000000, 22.000000)" fill="#456282" fill-rule="nonzero">
                <path d="M22.8984784,10.0608414 C21.9757015,8.52190333 20.6930325,7.16419963 19.1892553,6.13438832 C18.8492902,5.90167796 18.3780892,5.97879483 18.1368528,6.30688147 C17.8956165,6.63496811 17.975626,7.08970512 18.3155912,7.3225126 C19.5236852,8.14981928 20.5702505,9.21682928 21.3629994,10.4258353 C19.2885879,13.5928718 15.6471968,15.5431322 11.7548072,15.5431322 C11.3379523,15.5431322 11,15.8692763 11,16.2715661 C11,16.6738559 11.3379523,17 11.7548072,17 C16.331656,17 20.6016505,14.6206435 22.8984784,10.7905379 C23.0338405,10.5648205 23.0338405,10.2865588 22.8984784,10.0608414 Z" id="Path"></path>
                <path d="M11.3043634,14.4486936 C13.7880206,14.4486936 15.8086162,12.3926794 15.8086162,9.86548664 C15.8086162,9.53112182 15.7729027,9.19716877 15.7024874,8.87289254 C15.6121413,8.45648068 15.2072533,8.19325074 14.7979137,8.28548931 C14.3886753,8.37741905 14.1302835,8.78950723 14.2206296,9.20591908 C14.2672696,9.42097084 14.2909437,9.64291991 14.2909437,9.86548664 C14.2909437,11.5412227 12.9511306,12.9045211 11.3042622,12.9045211 C10.7556096,12.9045211 10.2415576,12.7525745 9.79923616,12.4888299 L20.7777517,1.31797699 C21.0740828,1.01645157 21.0740828,0.527566543 20.7777517,0.226144066 C20.4814206,-0.0753813555 20.0009575,-0.0753813555 19.7047276,0.226144066 L8.72631324,11.396997 C8.46711206,10.9469221 8.31778305,10.4238594 8.31778305,9.86558959 C8.31778305,8.18985356 9.65759617,6.82655511 11.3044646,6.82655511 C11.5402951,6.82655511 11.7747093,6.85445316 12.0013333,6.90952865 C12.4086494,7.0081498 12.8182925,6.75264072 12.9156194,6.33787598 C13.0129463,5.92311124 12.7614342,5.50659644 12.3538145,5.4075635 C12.0118551,5.32448702 11.6587669,5.28238258 11.3044646,5.28238258 C8.82080735,5.28238258 6.80021174,7.33839683 6.80021174,9.86558959 C6.80021174,10.8509775 7.10837988,11.7638923 7.63052559,12.5120954 L6.13683073,14.031973 C4.29257691,13.0771596 2.74870103,11.645094 1.64542669,9.86579548 C3.73077201,6.50855851 7.39125518,4.44142623 11.3044646,4.44142623 C12.1152523,4.44142623 12.9245225,4.52831167 13.7099162,4.69971482 C14.1197617,4.78927682 14.5231321,4.52367915 14.6109489,4.10675257 C14.6988669,3.68982599 14.4379458,3.27928198 14.0282015,3.18992587 C13.1383989,2.99566896 12.2219882,2.8972537 11.3044646,2.8972537 C6.70349186,2.8972537 2.41099083,5.41919627 0.10205667,9.47892879 C-0.0340188901,9.71817258 -0.0340188901,10.0131095 0.10205667,10.2523533 C1.28100723,12.3254564 2.9721887,14.0147812 5.01544671,15.1730135 L0.584037318,19.6819973 C0.287706227,19.9835227 0.287706227,20.4724077 0.584037318,20.7738302 C0.732152277,20.9245414 0.926401405,21 1.12054936,21 C1.31469732,21 1.50894644,20.9246444 1.6570614,20.7738302 L8.7034485,13.6039283 C9.43886356,14.1351237 10.3360517,14.4486936 11.3043634,14.4486936 Z" id="Path"></path>
            </g>
        </g>
    </g>
</svg>