<?xml version="1.0" encoding="UTF-8" standalone="no"?>
<!-- Created with Inkscape (http://www.inkscape.org/) -->

<svg
   xmlns:dc="http://purl.org/dc/elements/1.1/"
   xmlns:cc="http://creativecommons.org/ns#"
   xmlns:rdf="http://www.w3.org/1999/02/22-rdf-syntax-ns#"
   xmlns:svg="http://www.w3.org/2000/svg"
   xmlns="http://www.w3.org/2000/svg"
   xmlns:sodipodi="http://sodipodi.sourceforge.net/DTD/sodipodi-0.dtd"
   xmlns:inkscape="http://www.inkscape.org/namespaces/inkscape"
   width="187.19102"
   height="32.514999"
   id="svg2"
   version="1.1"
   inkscape:version="0.91 r13725"
   sodipodi:docname="drt-dark.svg">
  <defs
     id="defs4" />
  <sodipodi:namedview
     id="base"
     pagecolor="#ffffff"
     bordercolor="#666666"
     borderopacity="1.0"
     inkscape:pageopacity="0.0"
     inkscape:pageshadow="2"
     inkscape:zoom="5.6"
     inkscape:cx="70.933126"
     inkscape:cy="40.668385"
     inkscape:document-units="px"
     inkscape:current-layer="g2986"
     showgrid="false"
     fit-margin-top="0"
     fit-margin-left="0"
     fit-margin-right="0"
     fit-margin-bottom="0"
     inkscape:window-width="1680"
     inkscape:window-height="1022"
     inkscape:window-x="1680"
     inkscape:window-y="0"
     inkscape:window-maximized="1" />
  <metadata
     id="metadata7">
    <rdf:RDF>
      <cc:Work
         rdf:about="">
        <dc:format>image/svg+xml</dc:format>
        <dc:type
           rdf:resource="http://purl.org/dc/dcmitype/StillImage" />
        <dc:title></dc:title>
      </cc:Work>
    </rdf:RDF>
  </metadata>
  <g
     inkscape:label="Layer 1"
     inkscape:groupmode="layer"
     id="layer1"
     transform="translate(-297.83307,-553.24754)">
    <g
       id="g2986"
       transform="translate(250.09509,497.52354)"
       style="fill:#ffffff">
      <path
         id="path2988"
         d="m 128.616,84.395 -0.035,-20.547 -30.43,0.049 0.033,20.546 6.351,-0.01 -0.024,-14.481 5.704,-0.009 0.022,14.479 6.352,-0.01 -0.024,-14.48 5.68,-0.009 0.022,14.482 6.349,-0.01 z M 83.665,69.494 c 2.467,-0.013 4.336,1.854 4.342,4.69 0.004,2.878 -1.859,4.713 -4.326,4.717 -2.428,0.004 -4.335,-1.823 -4.34,-4.702 -0.004,-2.838 1.86,-4.71 4.324,-4.705 m -0.011,-6.06 c -5.938,0.01 -10.751,4.577 -10.741,10.776 0.012,6.165 4.764,10.752 10.776,10.74 C 89.706,84.941 94.441,80.377 94.431,74.175 94.422,67.976 89.596,63.424 83.654,63.434 m -25.167,6.1 c 2.467,-0.012 4.338,1.854 4.34,4.692 0.006,2.878 -1.857,4.71 -4.324,4.714 -2.428,0.004 -4.337,-1.822 -4.342,-4.7 -0.004,-2.839 1.861,-4.709 4.326,-4.706 m 10.711,14.957 -0.047,-28.767 -6.352,0.01 0.017,10.542 c -1.33,-1.667 -3.245,-2.804 -5.868,-2.799 -5.12,0.009 -9.221,4.386 -9.21,10.774 0.01,6.35 4.051,10.751 9.282,10.742 2.609,-0.005 4.506,-1.098 5.822,-2.71 l 0.003,2.217 6.353,-0.009 z"
         inkscape:connector-curvature="0"
         style="fill:#ffffff" />
      <g
         id="g2990"
         style="fill:#ffffff">
        <g
           id="g2992"
           style="fill:#ffffff">
          <path
             id="path2994"
             d="m 157.498,64.897 v 1.386 c -0.119,-0.012 -0.229,-0.023 -0.41,-0.023 -1.239,0 -2.192,0.699 -2.192,2.336 v 3.037 h -1.359 v -6.628 h 1.359 v 1.314 c 0.397,-0.928 1.157,-1.456 2.205,-1.456 0.169,0 0.302,0.01 0.397,0.034 z"
             inkscape:connector-curvature="0"
             style="fill:#ffffff" />
          <path
             id="path2996"
             d="m 168.172,70.342 v 1.291 h -5.589 v -1.291 l 3.783,-4.048 H 162.8 v -1.289 h 5.313 v 1.289 l -3.795,4.048 h 3.854 z"
             inkscape:connector-curvature="0"
             style="fill:#ffffff" />
          <path
             id="path2998"
             d="m 180.172,68.694 h -5.385 c 0.108,1.214 0.962,1.892 2.072,1.892 0.794,0 1.458,-0.339 1.771,-0.988 h 1.409 c -0.518,1.479 -1.782,2.181 -3.191,2.181 -2.013,0 -3.445,-1.448 -3.445,-3.449 0,-1.997 1.422,-3.466 3.421,-3.466 2.131,-0.001 3.481,1.648 3.348,3.83 z m -5.313,-1.109 h 3.854 c -0.204,-0.902 -0.891,-1.542 -1.891,-1.542 -1.036,0 -1.734,0.648 -1.963,1.542 z"
             inkscape:connector-curvature="0"
             style="fill:#ffffff" />
          <path
             id="path3000"
             d="m 195.771,67.381 v 4.252 h -1.36 v -3.966 c 0,-0.984 -0.397,-1.503 -1.313,-1.503 -1.071,0 -1.626,0.829 -1.626,2.036 l 0.011,3.433 h -1.372 v -3.966 c 0,-0.984 -0.397,-1.503 -1.313,-1.503 -1.071,0 -1.615,0.829 -1.615,2.036 v 3.433 h -1.359 v -6.628 h 1.359 v 1.061 c 0.458,-0.76 1.11,-1.202 2.061,-1.202 1.012,0 1.723,0.492 2.05,1.382 0.444,-0.854 1.191,-1.382 2.239,-1.382 1.395,-0.001 2.238,0.936 2.238,2.517 z"
             inkscape:connector-curvature="0"
             style="fill:#ffffff" />
          <path
             id="path3002"
             d="m 203.188,62.851 c 0,0.492 -0.373,0.854 -0.894,0.854 -0.493,0 -0.88,-0.361 -0.88,-0.854 0,-0.485 0.387,-0.833 0.88,-0.833 0.521,0 0.894,0.348 0.894,0.833 z m -1.567,2.154 h 1.362 v 6.628 h -1.362 v -6.628 z"
             inkscape:connector-curvature="0"
             style="fill:#ffffff" />
          <path
             id="path3004"
             d="m 215.538,68.319 c 0,1.986 -1.506,3.459 -3.433,3.459 -1.916,0 -3.435,-1.482 -3.435,-3.459 0,-2 1.542,-3.456 3.435,-3.456 1.903,0 3.433,1.456 3.433,3.456 z m -5.494,0 c 0,1.278 0.905,2.154 2.062,2.154 1.155,0 2.058,-0.876 2.058,-2.154 0,-1.277 -0.914,-2.155 -2.058,-2.155 -1.145,0 -2.062,0.878 -2.062,2.155 z"
             inkscape:connector-curvature="0"
             style="fill:#ffffff" />
          <path
             id="path3006"
             d="m 220.897,69.499 h 1.385 c 0.206,0.738 0.747,1.073 1.891,1.073 0.88,0 1.424,-0.267 1.424,-0.757 0,-0.557 -0.629,-0.642 -1.736,-0.907 -1.854,-0.456 -2.64,-0.829 -2.64,-1.938 0,-1.336 1.134,-2.106 2.796,-2.106 1.698,0 2.651,0.805 2.892,2.009 h -1.374 c -0.193,-0.54 -0.698,-0.807 -1.542,-0.807 -0.878,0 -1.396,0.301 -1.396,0.757 0,0.424 0.408,0.532 1.566,0.811 1.795,0.42 2.83,0.732 2.83,2.021 0,1.422 -1.277,2.124 -2.844,2.124 -1.746,-10e-4 -3,-0.845 -3.252,-2.28 z"
             inkscape:connector-curvature="0"
             style="fill:#ffffff" />
          <path
             id="path3008"
             d="m 234.929,67.851 -0.964,0.238 v 3.544 h -1.374 v -3.205 l -1.01,0.252 v -1.299 l 1.01,-0.254 v -4.77 h 1.374 v 4.431 l 0.964,-0.242 v 1.305 z"
             inkscape:connector-curvature="0"
             style="fill:#ffffff" />
        </g>
        <g
           id="g3010"
           style="fill:#ffffff">
          <path
             id="path3012"
             d="m 158.572,84.893 c -0.362,0.216 -1.134,0.48 -1.892,0.48 -1.362,0 -2.423,-0.854 -2.423,-2.686 V 79.88 h -1.229 v -1.275 h 1.229 v -1.509 l 1.36,-0.301 v 1.81 h 2.724 v 1.275 h -2.724 v 2.733 c 0,0.966 0.446,1.495 1.302,1.495 0.423,0 0.893,-0.146 1.409,-0.325 l 0.244,1.11 z"
             inkscape:connector-curvature="0"
             style="fill:#ffffff" />
          <path
             id="path3014"
             d="m 166.856,82.29 h -5.386 c 0.107,1.215 0.963,1.891 2.07,1.891 0.796,0 1.46,-0.335 1.772,-0.988 h 1.409 c -0.519,1.484 -1.783,2.181 -3.193,2.181 -2.01,0 -3.446,-1.444 -3.446,-3.443 0,-2.002 1.424,-3.472 3.422,-3.472 2.135,-0.001 3.482,1.648 3.352,3.831 z m -5.315,-1.105 h 3.855 c -0.204,-0.907 -0.891,-1.543 -1.892,-1.543 -1.033,0 -1.733,0.649 -1.963,1.543 z"
             inkscape:connector-curvature="0"
             style="fill:#ffffff" />
          <path
             id="path3016"
             d="m 175.499,78.604 v 6.623 h -1.36 v -1.105 c -0.481,0.757 -1.278,1.251 -2.312,1.251 -1.773,0 -3.061,-1.435 -3.061,-3.456 0,-2.023 1.312,-3.459 3.049,-3.459 1.046,0 1.843,0.519 2.324,1.276 v -1.13 h 1.36 z m -1.348,3.313 c 0,-1.267 -0.881,-2.158 -2.036,-2.158 -1.158,0 -1.977,0.892 -1.977,2.158 0,1.275 0.832,2.156 1.977,2.156 1.156,0 2.036,-0.881 2.036,-2.156 z"
             inkscape:connector-curvature="0"
             style="fill:#ffffff" />
          <path
             id="path3018"
             d="m 182.926,84.893 c -0.36,0.216 -1.132,0.48 -1.892,0.48 -1.362,0 -2.422,-0.854 -2.422,-2.686 V 79.88 h -1.23 v -1.275 h 1.23 v -1.509 l 1.362,-0.301 v 1.81 h 2.721 v 1.275 h -2.721 v 2.733 c 0,0.966 0.444,1.495 1.301,1.495 0.42,0 0.891,-0.146 1.41,-0.325 l 0.241,1.11 z"
             inkscape:connector-curvature="0"
             style="fill:#ffffff" />
          <path
             id="path3020"
             d="m 188.933,78.492 v 1.388 c -0.122,-0.01 -0.229,-0.024 -0.41,-0.024 -1.24,0 -2.193,0.698 -2.193,2.338 v 3.034 h -1.36 v -6.623 h 1.36 v 1.313 c 0.398,-0.932 1.156,-1.46 2.206,-1.46 0.167,0 0.301,0.014 0.397,0.034 z"
             inkscape:connector-curvature="0"
             style="fill:#ffffff" />
          <path
             id="path3022"
             d="m 197.291,78.604 v 6.623 h -1.359 v -1.105 c -0.483,0.757 -1.278,1.251 -2.314,1.251 -1.771,0 -3.059,-1.435 -3.059,-3.456 0,-2.023 1.312,-3.459 3.046,-3.459 1.049,0 1.844,0.519 2.327,1.276 v -1.13 h 1.359 z m -1.348,3.313 c 0,-1.267 -0.88,-2.158 -2.037,-2.158 -1.156,0 -1.976,0.892 -1.976,2.158 0,1.275 0.831,2.156 1.976,2.156 1.157,0 2.037,-0.881 2.037,-2.156 z"
             inkscape:connector-curvature="0"
             style="fill:#ffffff" />
          <path
             id="path3024"
             d="m 199.694,75.952 h 1.372 v 9.275 h -1.372 v -9.275 z"
             inkscape:connector-curvature="0"
             style="fill:#ffffff" />
          <path
             id="path3026"
             d="m 209.39,81.05 v 4.178 h -1.36 v -3.903 c 0,-1.024 -0.447,-1.565 -1.446,-1.565 -1.168,0 -1.796,0.759 -1.796,2.037 v 3.432 h -1.36 v -6.623 h 1.36 v 1.098 c 0.47,-0.772 1.182,-1.244 2.218,-1.244 1.493,-0.002 2.384,0.976 2.384,2.59 z"
             inkscape:connector-curvature="0"
             style="fill:#ffffff" />
          <path
             id="path3028"
             d="m 217.927,78.604 -4.388,9.635 h -1.457 l 1.746,-3.854 -2.613,-5.78 h 1.458 l 1.88,4.312 1.915,-4.312 h 1.459 z"
             inkscape:connector-curvature="0"
             style="fill:#ffffff" />
          <path
             id="path3030"
             d="m 219.199,81.917 c 0,-1.975 1.469,-3.459 3.445,-3.459 1.563,0 2.952,0.95 3.252,2.556 h -1.409 c -0.253,-0.835 -0.988,-1.289 -1.843,-1.289 -1.229,0 -2.071,0.916 -2.071,2.192 0,1.289 0.867,2.191 2.06,2.191 0.866,0 1.602,-0.48 1.854,-1.3 h 1.409 c -0.312,1.639 -1.71,2.564 -3.264,2.564 -1.964,0.001 -3.433,-1.48 -3.433,-3.455 z"
             inkscape:connector-curvature="0"
             style="fill:#ffffff" />
          <path
             id="path3032"
             d="m 233.973,81.05 v 4.178 h -1.359 v -3.903 c 0,-1.024 -0.458,-1.565 -1.458,-1.565 -1.156,0 -1.785,0.759 -1.785,2.037 v 3.432 h -1.359 v -9.275 h 1.359 v 3.732 c 0.472,-0.77 1.193,-1.227 2.218,-1.227 1.482,-0.001 2.384,0.977 2.384,2.591 z"
             inkscape:connector-curvature="0"
             style="fill:#ffffff" />
        </g>
      </g>
      <line
         id="line3034"
         y2="84.862999"
         x2="141.91299"
         y1="63.862999"
         x1="141.91299"
         style="fill:#ffffff;stroke:#ffffff;stroke-opacity:1" />
    </g>
  </g>
</svg>
