<?xml version="1.0" encoding="UTF-8" standalone="no"?>
<!-- Created with Inkscape (http://www.inkscape.org/) -->

<svg
   xmlns:dc="http://purl.org/dc/elements/1.1/"
   xmlns:cc="http://creativecommons.org/ns#"
   xmlns:rdf="http://www.w3.org/1999/02/22-rdf-syntax-ns#"
   xmlns:svg="http://www.w3.org/2000/svg"
   xmlns="http://www.w3.org/2000/svg"
   xmlns:sodipodi="http://sodipodi.sourceforge.net/DTD/sodipodi-0.dtd"
   xmlns:inkscape="http://www.inkscape.org/namespaces/inkscape"
   width="82.569138mm"
   height="23.530718mm"
   viewBox="0 0 82.569138 23.530718"
   version="1.1"
   id="svg8"
   inkscape:version="0.92.2 (5c3e80d, 2017-08-06)"
   sodipodi:docname="logo-ts.svg">
  <defs
     id="defs2" />
  <sodipodi:namedview
     id="base"
     pagecolor="#a3a0ab"
     bordercolor="#666666"
     borderopacity="1.0"
     inkscape:pageopacity="0.0"
     inkscape:pageshadow="2"
     inkscape:zoom="1.979899"
     inkscape:cx="65.011787"
     inkscape:cy="-38.264002"
     inkscape:document-units="mm"
     inkscape:current-layer="g26"
     showgrid="false"
     fit-margin-top="0"
     fit-margin-left="0"
     fit-margin-right="0"
     fit-margin-bottom="0"
     inkscape:window-width="1920"
     inkscape:window-height="1017"
     inkscape:window-x="-8"
     inkscape:window-y="-8"
     inkscape:window-maximized="1" />
  <metadata
     id="metadata5">
    <rdf:RDF>
      <cc:Work
         rdf:about="">
        <dc:format>image/svg+xml</dc:format>
        <dc:type
           rdf:resource="http://purl.org/dc/dcmitype/StillImage" />
        <dc:title></dc:title>
      </cc:Work>
    </rdf:RDF>
  </metadata>
  <g
     inkscape:label="Layer 1"
     inkscape:groupmode="layer"
     id="layer1"
     transform="translate(-2.5606694,-0.24059165)">
    <g
       transform="translate(-0.75595152,-3.0238148)"
       id="layer1-29"
       inkscape:label="Layer 1">
      <g
         transform="translate(-47.625002,-185.20833)"
         inkscape:label="Layer 1"
         id="layer1-2">
        <g
           id="layer1-5"
           inkscape:label="Layer 1"
           transform="translate(-46.869047,58.964287)">
          <g
             transform="matrix(0.26458333,0,0,0.26458333,82.845043,118.68461)"
             id="g26">
            <path
               inkscape:connector-curvature="0"
               d="m 354.022,107.159 c 2.093,0 4.476,0.951 5.2,3.602 h -10.481 c 0.938,-2.277 2.802,-3.602 5.281,-3.602 m -0.156,-7.218 c -8.463,0 -14.744,6.488 -14.744,14.969 0,8.445 6.229,14.934 15.005,14.934 6.955,0 13.288,-4.049 14.395,-11.146 l -9.082,-0.003 c -0.538,2.479 -2.771,3.674 -5.262,3.674 -3.371,0 -5.76,-2.146 -6.074,-5.784 h 20.367 c 0.139,-1.007 0.262,-2.273 0.051,-4.006 -0.951,-7.81 -7.336,-12.638 -14.656,-12.638 z m -19.936,0.671 h -8.826 v 28.558 h 8.826 z m -4.413,-13.858 c -3.156,0 -5.509,2.036 -5.509,5.084 0,3.052 2.353,5.088 5.509,5.088 3.156,0 5.509,-2.036 5.509,-5.088 0,-3.048 -2.353,-5.084 -5.509,-5.084 m -16.164,42.416 7.579,-28.558 h -8.725 l -2.303,8.996 -1.793,9.39 -1.794,-9.39 -2.305,-8.996 h -10.43 l -2.305,8.996 -1.793,9.39 -1.795,-9.39 -2.304,-8.996 h -8.723 l 7.579,28.558 h 10.274 l 2.552,-9.611 1.444,-10.286 h 0.568 l 1.444,10.286 2.552,9.611 z m -54.496,-20.813 c 3.429,-0.007 6.024,2.59 6.024,6.533 0,4 -2.596,6.544 -6.024,6.544 -3.374,0 -6.021,-2.544 -6.021,-6.544 -0.001,-3.943 2.597,-6.539 6.021,-6.533 m 0,-8.416 c -8.254,0 -14.951,6.332 -14.951,14.949 0,8.569 6.592,14.953 14.951,14.953 8.361,0 14.953,-6.331 14.953,-14.953 0,-8.617 -6.698,-14.949 -14.953,-14.949 m -35.251,11.56 V 89.19 h -8.825 v 39.979 h 8.825 v -11.296 l 8.427,11.296 h 11.1 l -11.376,-14.761 10.579,-13.797 h -10.994 z m -29.904,-3.144 c 3.426,-0.007 6.022,2.59 6.022,6.533 0,4 -2.596,6.544 -6.022,6.544 -3.375,0 -6.024,-2.544 -6.024,-6.544 0,-3.943 2.598,-6.539 6.024,-6.533 m -2.128,-8.416 c -7.113,0 -12.824,6.074 -12.824,14.949 0,8.827 5.606,14.953 12.875,14.953 3.628,0 6.268,-1.518 8.1,-3.755 v 3.081 h 8.826 v -28.558 h -8.826 v 3.231 c -1.848,-2.321 -4.504,-3.901 -8.151,-3.901 m -15.94,9.104 v -8.433 H 157.1 v 28.558 h 8.825 v -20.125 z m -35.307,1.3 12.204,-17.52 H 141.9 l -10.601,15.334 V 92.825 h -8.827 v 36.345 h 8.827 v -16.305 l 11.357,16.305 h 10.787 z m -45.702,18.825 7.581,-28.558 h -8.722 l -2.306,8.996 -1.793,9.39 -1.793,-9.39 -2.304,-8.996 h -10.43 l -2.306,8.996 -1.793,9.39 -1.793,-9.39 -2.304,-8.996 H 57.94 l 7.579,28.558 h 10.274 l 2.55,-9.611 1.446,-10.286 h 0.568 l 1.444,10.286 2.55,9.611 z"
               id="path10"
               style="fill:#a3a0ab" />
            <path
               inkscape:connector-curvature="0"
               d="m 199.335,57.126 v -8.43 H 180.801 V 77.25 h 8.826 V 57.126 Z m -32.332,-8.43 v -6.285 h -8.826 v 6.285 h -4.892 v 8.306 h 4.892 V 77.25 h 17.453 v -8.308 h -8.626 v -11.94 h 8.626 v -8.306 z m -32.718,7.745 c 3.425,-0.006 6.022,2.586 6.022,6.534 0,3.996 -2.598,6.539 -6.022,6.539 -3.375,0 -6.023,-2.543 -6.023,-6.539 0,-3.948 2.595,-6.539 6.023,-6.534 m -2.13,-8.419 c -7.111,0 -12.824,6.074 -12.824,14.953 0,8.826 5.607,14.952 12.876,14.952 3.626,0 6.266,-1.518 8.1,-3.759 v 3.081 h 8.825 V 48.696 h -8.825 v 3.229 c -1.846,-2.32 -4.504,-3.903 -8.152,-3.903 m -31.305,7.214 c 2.092,0 4.477,0.954 5.2,3.609 H 95.57 c 0.938,-2.28 2.803,-3.609 5.28,-3.609 m -0.155,-7.214 c -8.463,0 -14.746,6.488 -14.746,14.969 0,8.445 6.23,14.937 15.005,14.937 6.957,0 13.292,-4.052 14.397,-11.148 h -9.083 c -0.538,2.476 -2.77,3.671 -5.262,3.671 -3.373,0 -5.762,-2.144 -6.074,-5.785 h 20.366 c 0.138,-1.003 0.262,-2.276 0.054,-4.002 C 114.4,52.85 108.013,48.022 100.695,48.022 Z M 85.179,49.318 V 40.909 H 56.563 v 8.409 h 9.88 V 77.25 h 8.825 V 49.318 Z"
               id="path12"
               style="fill:#a3a0ab" />
            <path
               inkscape:connector-curvature="0"
               d="m 361.056,69.395 c 1.577,0 2.84,1.212 2.84,2.974 0,1.759 -1.246,2.974 -2.84,2.974 -1.598,0 -2.844,-1.215 -2.844,-2.974 0,-1.763 1.266,-2.974 2.844,-2.974 m 0,-1.795 c -2.611,0 -4.736,2.01 -4.736,4.769 0,2.727 2.095,4.769 4.736,4.769 2.655,0 4.733,-2.029 4.733,-4.769 0.001,-2.76 -2.11,-4.769 -4.733,-4.769 m -11.299,7.641 c -1.578,0 -2.723,-1.212 -2.723,-2.922 0,-1.697 1.128,-2.925 2.723,-2.925 1.596,0 2.81,1.228 2.81,2.925 0,1.71 -1.214,2.922 -2.81,2.922 m 2.791,-7.442 v 1.563 c -0.662,-1.049 -1.776,-1.763 -3.188,-1.763 -2.41,0 -4.219,1.974 -4.219,4.72 0,2.739 1.776,4.72 4.219,4.72 1.412,0 2.508,-0.7 3.188,-1.714 v 1.561 c 0,1.775 -0.913,2.726 -2.591,2.726 -1.229,0 -2.242,-0.55 -2.559,-1.729 h -1.944 c 0.399,2.277 2.376,3.407 4.554,3.407 2.706,0 4.418,-1.746 4.418,-4.469 V 67.8 h -1.878 z m -13.555,1.427 c 1.38,0 2.326,0.883 2.607,2.13 h -5.315 c 0.314,-1.232 1.28,-2.13 2.708,-2.13 m 0,-1.626 c -2.757,0 -4.719,2.026 -4.719,4.785 0,2.759 1.979,4.752 4.752,4.752 1.944,0 3.688,-0.964 4.401,-3.01 h -1.942 c -0.432,0.896 -1.347,1.361 -2.441,1.361 -1.529,0 -2.71,-0.928 -2.857,-2.605 h 7.426 c 0.18,-3.01 -1.679,-5.283 -4.62,-5.283 m -8.473,9.335 h 1.878 v -9.136 h -1.878 z m 0.932,-13.256 c -0.683,0 -1.213,0.482 -1.213,1.144 0,0.684 0.53,1.182 1.213,1.182 0.715,0 1.228,-0.498 1.228,-1.182 -0.001,-0.662 -0.513,-1.144 -1.228,-1.144 m -2.428,13.256 -4.832,-4.798 4.469,-4.338 h -2.409 l -3.953,3.954 v -7.605 h -1.878 v 12.787 h 1.878 v -4.218 l 4.302,4.218 z m -14.917,0.202 c 2.143,0 4.071,-1.28 4.503,-3.537 h -1.944 c -0.351,1.127 -1.362,1.791 -2.559,1.791 -1.645,0 -2.842,-1.247 -2.842,-3.022 0,-1.762 1.164,-3.025 2.857,-3.025 1.181,0 2.192,0.632 2.543,1.781 h 1.944 c -0.417,-2.215 -2.326,-3.524 -4.487,-3.524 -2.724,0 -4.751,2.042 -4.751,4.769 0,2.727 2.028,4.767 4.736,4.767 M 302.81,75.342 c -1.578,0 -2.723,-1.215 -2.723,-2.974 0,-1.746 1.128,-2.974 2.723,-2.974 1.596,0 2.809,1.228 2.809,2.974 0,1.759 -1.213,2.974 -2.809,2.974 m 2.791,-7.543 v 1.563 c -0.663,-1.049 -1.761,-1.763 -3.206,-1.763 -2.391,0 -4.203,1.974 -4.203,4.769 0,2.788 1.776,4.769 4.221,4.769 1.428,0 2.525,-0.681 3.188,-1.729 v 1.527 h 1.878 v -9.136 z m -10.051,0 -0.798,2.876 -1.08,4.25 -1.063,-4.25 -0.796,-2.876 h -2.259 l -0.814,2.876 -1.063,4.286 -1.064,-4.286 -0.812,-2.876 h -1.861 l 2.608,9.136 h 2.193 l 0.881,-3.071 0.912,-4.172 h 0.3 l 0.914,4.172 0.881,3.071 h 2.193 l 2.607,-9.136 z m -17.093,1.596 c 1.577,0 2.84,1.212 2.84,2.974 0,1.759 -1.246,2.974 -2.84,2.974 -1.595,0 -2.841,-1.215 -2.841,-2.974 0,-1.763 1.262,-2.974 2.841,-2.974 m 0,-1.795 c -2.609,0 -4.736,2.01 -4.736,4.769 0,2.727 2.095,4.769 4.736,4.769 2.659,0 4.733,-2.029 4.733,-4.769 0,-2.76 -2.108,-4.769 -4.733,-4.769 m -5.199,2.322 -1.332,0.336 v -6.11 h -1.895 v 6.576 l -1.396,0.349 v 1.794 l 1.396,-0.348 v 4.416 h 1.895 v -4.886 l 1.332,-0.329 z m -9.572,0.17 c -1.927,-0.417 -2.591,-0.681 -2.591,-1.512 0,-1.013 0.847,-1.713 2.41,-1.713 1.56,0 2.357,0.632 2.689,1.6 h 1.895 c -0.332,-1.847 -1.679,-3.361 -4.601,-3.361 -2.227,0 -4.27,1.211 -4.27,3.523 0,2.176 1.76,2.808 4.019,3.306 2.159,0.482 3.107,0.665 3.107,1.746 0,1.081 -0.897,1.693 -2.459,1.693 -1.845,0 -2.741,-0.7 -3.091,-2.042 h -1.893 c 0.316,2.01 1.744,3.805 5.001,3.805 2.075,0 4.335,-1 4.335,-3.537 0.002,-2.245 -1.611,-2.864 -4.551,-3.508 m -13.025,4.699 c -0.695,0 -1.211,0.482 -1.211,1.166 0,0.681 0.516,1.18 1.211,1.18 0.699,0 1.231,-0.499 1.231,-1.18 0.001,-0.684 -0.532,-1.166 -1.231,-1.166 m -5.265,-9.487 v 7.826 c 0,1.612 -0.832,2.212 -1.927,2.212 -1.098,0 -1.894,-0.566 -1.894,-2.144 v -0.631 h -1.894 v 0.68 c 0,2.577 1.643,3.89 3.771,3.89 2.158,0 3.835,-1.361 3.835,-3.958 v -7.875 z m -13.79,9.487 c -0.697,0 -1.211,0.482 -1.211,1.166 0,0.681 0.515,1.18 1.211,1.18 0.7,0 1.231,-0.499 1.231,-1.18 0,-0.684 -0.53,-1.166 -1.231,-1.166 M 224.928,67.6 c -1.445,0 -2.474,0.729 -3.089,1.912 -0.448,-1.231 -1.428,-1.912 -2.824,-1.912 -1.312,0 -2.21,0.612 -2.842,1.661 v -1.462 h -1.876 v 9.136 h 1.876 V 72.2 c 0,-1.658 0.749,-2.805 2.228,-2.805 1.262,0 1.811,0.714 1.811,2.078 v 5.462 h 1.892 L 222.088,72.2 c 0,-1.658 0.766,-2.805 2.243,-2.805 1.262,0 1.812,0.714 1.812,2.078 v 5.462 h 1.877 v -5.862 c 10e-4,-2.177 -1.162,-3.473 -3.092,-3.473 m -14.684,9.335 h 1.876 v -9.136 h -1.876 z m 0.928,-13.256 c -0.679,0 -1.21,0.482 -1.21,1.144 0,0.684 0.531,1.182 1.21,1.182 0.716,0 1.231,-0.498 1.231,-1.182 0,-0.662 -0.514,-1.144 -1.231,-1.144"
               id="path14"
               style="fill:#a3a0ab" />
          </g>
        </g>
      </g>
    </g>
  </g>
</svg>
