<?xml version="1.0" encoding="utf-8"?>
<!-- Generator: Adobe Illustrator 16.0.4, SVG Export Plug-In . SVG Version: 6.00 Build 0)  -->
<!DOCTYPE svg PUBLIC "-//W3C//DTD SVG 1.1//EN" "http://www.w3.org/Graphics/SVG/1.1/DTD/svg11.dtd">
<svg version="1.1" id="Layer_1" xmlns="http://www.w3.org/2000/svg" xmlns:xlink="http://www.w3.org/1999/xlink" x="0px" y="0px"
	 width="400.885px" height="54.893px" viewBox="0 0 400.885 54.893" enable-background="new 0 0 400.885 54.893"
	 xml:space="preserve">
<g>
	<path fill="#a3a0ab" d="M74.87,19.326c0.433-0.064,0.928-0.111,1.486-0.145c0.559-0.033,1.09-0.047,1.596-0.047
		c0.504,0,1.054,0.014,1.648,0.047s1.09,0.08,1.487,0.145l10.054,21.895l10.11-21.895c0.359-0.064,0.81-0.111,1.35-0.145
		s1.063-0.047,1.568-0.047c0.469,0,0.991,0.014,1.568,0.047c0.576,0.033,1.063,0.08,1.459,0.145l1.838,34.98
		c-0.432,0.064-0.874,0.113-1.324,0.146c-0.451,0.031-0.91,0.049-1.379,0.049c-0.469,0-0.928-0.018-1.378-0.049
		c-0.451-0.033-0.874-0.082-1.271-0.146l-1.243-27.195l-9.514,19.947c-0.721,0.098-1.459,0.145-2.216,0.145
		c-0.685,0-1.37-0.047-2.054-0.145l-9.189-20.094l-1.244,27.342c-0.397,0.064-0.811,0.113-1.244,0.146
		c-0.432,0.031-0.846,0.049-1.243,0.049c-0.469,0-0.919-0.018-1.351-0.049c-0.432-0.033-0.848-0.082-1.243-0.146L74.87,19.326z
		 M140.009,54.307c0.434,0.064,0.893,0.113,1.379,0.146c0.486,0.031,0.964,0.049,1.433,0.049c0.503,0,1.026-0.018,1.567-0.049
		c0.541-0.033,1.027-0.082,1.459-0.146l-12.595-34.98c-0.505-0.064-1.026-0.111-1.567-0.145c-0.541-0.033-1.064-0.049-1.569-0.049
		c-0.576,0-1.134,0.016-1.675,0.049c-0.54,0.033-1.045,0.08-1.514,0.145l-12.648,34.98c0.396,0.064,0.837,0.113,1.324,0.146
		c0.486,0.031,0.981,0.049,1.486,0.049c0.469,0,0.938-0.018,1.406-0.049c0.467-0.033,0.936-0.082,1.405-0.146l2.649-8.076h14.757
		L140.009,54.307z M129.901,24.045l5.946,17.855h-11.838L129.901,24.045z M152.536,54.307h20.705
		c0.07-0.355,0.127-0.721,0.162-1.094s0.055-0.738,0.055-1.096c0-0.322-0.02-0.68-0.055-1.07c-0.035-0.389-0.092-0.762-0.162-1.119
		h-15.246V38.154l7.083-4.379c0.07-0.355,0.135-0.713,0.188-1.07c0.055-0.355,0.082-0.729,0.082-1.119
		c0-0.713-0.09-1.441-0.27-2.188l-7.083,4.377V19.326c-0.828-0.098-1.729-0.145-2.702-0.145c-1.046,0-1.965,0.047-2.757,0.145V37.23
		l-3.46,2.141c-0.108,0.324-0.188,0.682-0.243,1.07c-0.055,0.389-0.081,0.746-0.081,1.07c0,0.389,0.026,0.746,0.081,1.07
		c0.055,0.324,0.135,0.715,0.243,1.168c0.576-0.357,1.153-0.721,1.73-1.096c0.576-0.371,1.153-0.736,1.73-1.094V54.307z
		 M192.757,54.891c2.811,0,5.244-0.445,7.297-1.338c2.053-0.891,3.756-2.141,5.107-3.746c1.354-1.605,2.354-3.51,3.002-5.717
		c0.648-2.205,0.973-4.621,0.973-7.248s-0.324-5.043-0.973-7.25c-0.648-2.205-1.648-4.111-3.002-5.717
		c-1.352-1.605-3.055-2.861-5.107-3.77s-4.486-1.363-7.297-1.363c-2.813,0-5.245,0.455-7.297,1.363
		c-2.057,0.908-3.76,2.164-5.109,3.77c-1.352,1.605-2.363,3.512-3.029,5.717c-0.668,2.207-1,4.623-1,7.25s0.332,5.043,1,7.248
		c0.666,2.207,1.678,4.111,3.029,5.717c1.349,1.605,3.052,2.855,5.109,3.746C187.512,54.445,189.944,54.891,192.757,54.891
		 M192.757,50.609c-1.803,0-3.362-0.316-4.676-0.949c-1.316-0.631-2.406-1.547-3.271-2.748c-0.867-1.199-1.514-2.643-1.947-4.33
		c-0.432-1.686-0.646-3.6-0.646-5.74c0-2.109,0.215-4.014,0.646-5.717c0.434-1.703,1.08-3.146,1.947-4.33
		c0.865-1.184,1.955-2.092,3.271-2.725c1.314-0.633,2.873-0.949,4.676-0.949c1.801,0,3.357,0.316,4.676,0.949
		c1.314,0.633,2.406,1.541,3.27,2.725s1.512,2.627,1.945,4.33c0.432,1.703,0.648,3.607,0.648,5.717c0,2.141-0.217,4.055-0.648,5.74
		c-0.434,1.688-1.082,3.131-1.945,4.33c-0.863,1.201-1.955,2.117-3.27,2.748C196.114,50.293,194.558,50.609,192.757,50.609
		 M216.198,54.307c0.432,0.064,0.893,0.105,1.379,0.123c0.486,0.016,0.945,0.023,1.377,0.023c0.975,0,1.893-0.049,2.756-0.146
		V41.658c0.613,0.064,1.182,0.105,1.703,0.121c0.523,0.018,1.127,0.023,1.811,0.023c1.838,0,3.641-0.186,5.406-0.559
		s3.342-1.014,4.73-1.922c1.386-0.908,2.503-2.115,3.351-3.625c0.846-1.508,1.27-3.396,1.27-5.668c0-2.172-0.396-3.98-1.189-5.424
		s-1.863-2.604-3.214-3.479c-1.352-0.875-2.92-1.492-4.703-1.85c-1.785-0.355-3.668-0.535-5.65-0.535
		c-0.756,0-1.539,0.02-2.352,0.049c-0.811,0.033-1.621,0.074-2.432,0.123c-0.811,0.047-1.586,0.105-2.324,0.17
		s-1.377,0.129-1.918,0.193V54.307z M221.71,23.17c1.01-0.098,2.182-0.146,3.514-0.146c1.299,0,2.506,0.115,3.623,0.342
		s2.072,0.615,2.865,1.168c0.791,0.551,1.414,1.281,1.865,2.189c0.449,0.908,0.676,2.027,0.676,3.355
		c0,1.525-0.264,2.766-0.785,3.723s-1.217,1.711-2.08,2.262c-0.865,0.553-1.848,0.934-2.947,1.145s-2.207,0.314-3.324,0.314
		c-0.83,0-1.459-0.016-1.893-0.047c-0.432-0.033-0.938-0.082-1.514-0.146V23.17z M261.42,54.891c2.812,0,5.244-0.445,7.299-1.338
		c2.055-0.891,3.756-2.141,5.107-3.746c1.35-1.605,2.35-3.51,2.998-5.717c0.65-2.205,0.975-4.621,0.975-7.248
		s-0.324-5.043-0.975-7.25c-0.648-2.205-1.648-4.111-2.998-5.717c-1.352-1.605-3.053-2.861-5.107-3.77s-4.486-1.363-7.299-1.363
		c-2.811,0-5.242,0.455-7.297,1.363s-3.758,2.164-5.107,3.77c-1.352,1.605-2.361,3.512-3.027,5.717c-0.668,2.207-1,4.623-1,7.25
		s0.332,5.043,1,7.248c0.666,2.207,1.676,4.111,3.027,5.717c1.35,1.605,3.053,2.855,5.107,3.746
		C256.178,54.445,258.61,54.891,261.42,54.891 M261.42,50.609c-1.801,0-3.359-0.316-4.676-0.949
		c-1.314-0.631-2.404-1.547-3.27-2.748c-0.865-1.199-1.514-2.643-1.945-4.33c-0.434-1.686-0.65-3.6-0.65-5.74
		c0-2.109,0.217-4.014,0.65-5.717c0.432-1.703,1.08-3.146,1.945-4.33s1.955-2.092,3.27-2.725c1.316-0.633,2.875-0.949,4.676-0.949
		c1.803,0,3.361,0.316,4.678,0.949c1.314,0.633,2.404,1.541,3.27,2.725s1.514,2.627,1.945,4.33c0.434,1.703,0.65,3.607,0.65,5.717
		c0,2.141-0.217,4.055-0.65,5.74c-0.432,1.688-1.08,3.131-1.945,4.33c-0.865,1.201-1.955,2.117-3.27,2.748
		C264.782,50.293,263.223,50.609,261.42,50.609 M283.813,54.307h20.705c0.107-0.68,0.162-1.41,0.162-2.188
		c0-0.324-0.01-0.682-0.027-1.072c-0.02-0.389-0.062-0.762-0.135-1.119h-15.244V19.326c-0.434-0.064-0.885-0.111-1.352-0.145
		c-0.469-0.033-0.938-0.047-1.406-0.047c-0.506,0-0.982,0.014-1.432,0.047c-0.451,0.033-0.875,0.08-1.271,0.145V54.307z
		 M310.493,49.004c-0.289,0.715-0.561,1.443-0.812,2.189c-0.25,0.746-0.414,1.477-0.486,2.189c0.758,0.227,1.496,0.438,2.217,0.633
		c0.721,0.193,1.469,0.355,2.244,0.486c0.775,0.129,1.611,0.227,2.514,0.291c0.9,0.064,1.91,0.098,3.027,0.098
		c4.611,0,8.197-0.965,10.756-2.895c2.561-1.93,3.84-4.564,3.84-7.906c0-1.395-0.209-2.609-0.623-3.648
		c-0.414-1.037-1.018-1.938-1.811-2.699s-1.748-1.428-2.865-1.996c-1.117-0.566-2.396-1.109-3.838-1.629l-3.027-1.07
		c-0.755-0.26-1.478-0.551-2.162-0.877c-0.686-0.322-1.279-0.688-1.783-1.094s-0.91-0.875-1.217-1.41s-0.459-1.145-0.459-1.826
		c0-1.652,0.611-2.895,1.838-3.721c1.225-0.828,2.973-1.24,5.242-1.24c1.623,0,3.073,0.129,4.352,0.389
		c1.281,0.26,2.408,0.553,3.379,0.875c0.613-1.328,1.01-2.676,1.189-4.037c-1.189-0.389-2.559-0.713-4.107-0.973
		c-1.551-0.26-3.19-0.391-4.92-0.391c-4.037,0-7.171,0.836-9.406,2.506c-2.234,1.672-3.352,3.982-3.352,6.934
		c0,1.232,0.18,2.295,0.543,3.186c0.357,0.893,0.854,1.68,1.484,2.361c0.631,0.68,1.379,1.256,2.244,1.727s1.818,0.9,2.865,1.289
		l3.08,1.119c1.224,0.455,2.298,0.875,3.216,1.264c0.92,0.391,1.684,0.82,2.297,1.291c0.614,0.469,1.073,1.029,1.379,1.678
		s0.459,1.428,0.459,2.336c0,1.848-0.729,3.316-2.19,4.402c-1.459,1.086-3.666,1.629-6.621,1.629c-1.875,0-3.459-0.145-4.758-0.438
		C312.924,49.734,311.682,49.393,310.493,49.004 M338.924,54.307c0.396,0.064,0.83,0.113,1.299,0.146
		c0.467,0.031,0.953,0.049,1.459,0.049c0.467,0,0.936-0.018,1.404-0.049c0.469-0.033,0.92-0.082,1.352-0.146v-34.98
		c-0.432-0.064-0.883-0.113-1.352-0.145s-0.938-0.049-1.404-0.049c-0.469,0-0.938,0.018-1.406,0.049s-0.918,0.08-1.352,0.145V54.307
		z M359.844,54.307c0.541,0.064,1.062,0.113,1.57,0.146c0.502,0.031,0.971,0.049,1.404,0.049c0.504,0,1.035-0.018,1.596-0.049
		c0.557-0.033,1.125-0.082,1.701-0.146l-13.893-18.195l12.324-16.785c-0.576-0.064-1.133-0.113-1.674-0.145
		s-1.047-0.049-1.516-0.049c-0.396,0-0.838,0.018-1.324,0.049s-0.982,0.08-1.486,0.145l-12.486,17.223L359.844,54.307z
		 M395.047,54.307c0.432,0.064,0.893,0.113,1.379,0.146c0.486,0.031,0.963,0.049,1.432,0.049c0.504,0,1.027-0.018,1.568-0.049
		c0.541-0.033,1.027-0.082,1.459-0.146l-12.596-34.98c-0.504-0.064-1.027-0.111-1.566-0.145c-0.541-0.033-1.064-0.049-1.568-0.049
		c-0.576,0-1.135,0.016-1.676,0.049s-1.045,0.08-1.457,0.145l-12.648,34.98c0.338,0.064,0.781,0.113,1.268,0.146
		c0.486,0.031,0.98,0.049,1.486,0.049c0.467,0,0.936-0.018,1.404-0.049c0.469-0.033,0.938-0.082,1.406-0.146l2.648-8.076h14.758
		L395.047,54.307z M384.938,24.045l5.947,17.855h-11.84L384.938,24.045z"/>
	<g>
		<polygon fill="#a3a0ab" points="30.034,0 23.322,35.021 19.705,53.896 26.889,53.895 34.517,14.104 37.18,0 		"/>
		<polygon fill="#a3a0ab" points="19.682,15.764 11.401,15.764 14.808,33.791 18.608,53.896 19.704,53.896 26.889,53.896 
			23.322,35.021 		"/>
		<polygon fill="#a3a0ab" points="10.305,15.764 0,53.896 9.371,53.896 14.808,33.791 19.682,15.764 11.401,15.764 		"/>
		<polygon fill="#a3a0ab" points="34.517,14.104 44.089,53.896 50.179,53.896 37.22,-0.001 31.124,-0.001 		"/>
		<polygon fill="#a3a0ab" points="11.401,15.764 14.808,33.791 19.682,15.764 		"/>
		<polygon fill="#a3a0ab" points="31.125,0 34.518,14.104 37.221,0 		"/>
		<polygon fill="#a3a0ab" points="19.705,53.896 26.889,53.896 26.889,53.895 23.322,35.021 		"/>
		<polygon fill="#a3a0ab" points="50.18,53.896 55.23,53.896 55.23,30.008 		"/>
	</g>
</g>
</svg>
