<?xml version="1.0" encoding="UTF-8" standalone="no"?>
<!-- Created with Inkscape (http://www.inkscape.org/) -->

<svg
   xmlns:dc="http://purl.org/dc/elements/1.1/"
   xmlns:cc="http://creativecommons.org/ns#"
   xmlns:rdf="http://www.w3.org/1999/02/22-rdf-syntax-ns#"
   xmlns:svg="http://www.w3.org/2000/svg"
   xmlns="http://www.w3.org/2000/svg"
   xmlns:sodipodi="http://sodipodi.sourceforge.net/DTD/sodipodi-0.dtd"
   xmlns:inkscape="http://www.inkscape.org/namespaces/inkscape"
   width="425.198"
   height="65.003998"
   id="svg2"
   version="1.1"
   inkscape:version="0.48.5 r10040">
  <defs
     id="defs4" />
  <sodipodi:namedview
     id="base"
     pagecolor="#a3a0ab"
     bordercolor="#666666"
     borderopacity="1.0"
     inkscape:pageopacity="0.0"
     inkscape:pageshadow="2"
     inkscape:zoom="0.98994949"
     inkscape:cx="257.99244"
     inkscape:cy="83.311024"
     inkscape:document-units="px"
     inkscape:current-layer="layer1"
     showgrid="false"
     fit-margin-top="0"
     fit-margin-left="0"
     fit-margin-right="0"
     fit-margin-bottom="0"
     inkscape:window-width="826"
     inkscape:window-height="657"
     inkscape:window-x="2175"
     inkscape:window-y="168"
     inkscape:window-maximized="0" />
  <metadata
     id="metadata7">
    <rdf:RDF>
      <cc:Work
         rdf:about="">
        <dc:format>image/svg+xml</dc:format>
        <dc:type
           rdf:resource="http://purl.org/dc/dcmitype/StillImage" />
        <dc:title></dc:title>
      </cc:Work>
    </rdf:RDF>
  </metadata>
  <g
     inkscape:label="Layer 1"
     inkscape:groupmode="layer"
     id="layer1"
     transform="translate(-224.54386,-454.1459)">
    <g
       id="g2986"
       transform="translate(142.82186,445.1519)"
       style="fill:#a3a0ab">
	<path
   id="path2988"
   d="M 89.38,13.981 H 81.722 V 9.458 h 20.659 v 4.523 H 94.723 V 35.137 H 89.38 V 13.981 l 0,0 z m 27.438,17.132 c 1.187,0 2.208,-0.231 3.063,-0.694 0.855,-0.463 1.562,-1.086 2.119,-1.87 0.558,-0.784 0.968,-1.709 1.229,-2.778 0.261,-1.068 0.392,-2.209 0.392,-3.42 0,-1.21 -0.131,-2.344 -0.392,-3.4 -0.261,-1.057 -0.671,-1.983 -1.229,-2.778 -0.558,-0.796 -1.264,-1.419 -2.119,-1.87 -0.855,-0.451 -1.876,-0.678 -3.063,-0.678 -1.188,0 -2.208,0.227 -3.063,0.678 -0.855,0.451 -1.562,1.074 -2.12,1.87 -0.558,0.795 -0.967,1.721 -1.229,2.778 -0.261,1.057 -0.392,2.19 -0.392,3.4 0,1.211 0.131,2.352 0.392,3.42 0.261,1.068 0.671,1.994 1.229,2.778 0.559,0.784 1.265,1.407 2.12,1.87 0.854,0.462 1.875,0.694 3.063,0.694 l 0,0 z m 0,4.63 c -2.304,0 -4.245,-0.373 -5.824,-1.121 -1.579,-0.748 -2.861,-1.746 -3.847,-2.992 -0.985,-1.247 -1.691,-2.678 -2.119,-4.293 -0.428,-1.613 -0.642,-3.275 -0.642,-4.986 0,-1.709 0.232,-3.365 0.695,-4.969 0.463,-1.601 1.199,-3.027 2.208,-4.273 1.009,-1.246 2.297,-2.244 3.865,-2.992 1.568,-0.748 3.455,-1.122 5.664,-1.122 2.303,0 4.245,0.374 5.823,1.122 1.579,0.748 2.855,1.746 3.829,2.992 0.974,1.246 1.68,2.672 2.12,4.273 0.438,1.604 0.658,3.26 0.658,4.969 0,1.711 -0.231,3.373 -0.694,4.986 -0.463,1.615 -1.199,3.046 -2.209,4.293 -1.009,1.246 -2.297,2.244 -3.864,2.992 -1.567,0.748 -3.455,1.121 -5.663,1.121 l 0,0 z m 23.02,-9.261 c -0.973,-0.331 -1.751,-0.884 -2.333,-1.655 -0.582,-0.771 -1.158,-1.787 -1.727,-3.046 l -4.845,-10.721 4.773,-1.994 5.378,11.576 c 0.261,0.546 0.504,0.902 0.73,1.068 0.226,0.166 0.493,0.249 0.802,0.249 0.356,0 0.641,-0.089 0.855,-0.267 0.213,-0.178 0.451,-0.541 0.712,-1.086 l 5.414,-11.541 4.773,1.924 -4.88,10.506 c -0.594,1.259 -1.2,2.304 -1.816,3.135 -0.618,0.831 -1.438,1.437 -2.458,1.816 v 8.69 h -5.378 v -8.654 l 0,0 z m 28.648,4.631 c 1.187,0 2.208,-0.231 3.063,-0.694 0.854,-0.463 1.561,-1.086 2.119,-1.87 0.559,-0.784 0.968,-1.709 1.229,-2.778 0.261,-1.068 0.392,-2.209 0.392,-3.42 0,-1.21 -0.131,-2.344 -0.392,-3.4 -0.261,-1.057 -0.67,-1.983 -1.229,-2.778 -0.558,-0.796 -1.264,-1.419 -2.119,-1.87 -0.855,-0.451 -1.876,-0.678 -3.063,-0.678 -1.188,0 -2.208,0.227 -3.062,0.678 -0.854,0.451 -1.561,1.074 -2.12,1.87 -0.557,0.795 -0.967,1.721 -1.229,2.778 -0.261,1.057 -0.392,2.19 -0.392,3.4 0,1.211 0.131,2.352 0.392,3.42 0.261,1.068 0.671,1.994 1.229,2.778 0.559,0.784 1.265,1.407 2.12,1.87 0.855,0.463 1.874,0.694 3.062,0.694 l 0,0 z m 0,4.63 c -2.303,0 -4.244,-0.373 -5.823,-1.121 -1.579,-0.748 -2.861,-1.746 -3.847,-2.992 -0.985,-1.247 -1.691,-2.678 -2.119,-4.293 -0.427,-1.613 -0.641,-3.275 -0.641,-4.986 0,-1.709 0.231,-3.365 0.695,-4.969 0.463,-1.601 1.199,-3.027 2.208,-4.273 1.01,-1.246 2.297,-2.244 3.865,-2.992 1.568,-0.748 3.455,-1.122 5.663,-1.122 2.303,0 4.245,0.374 5.824,1.122 1.579,0.748 2.855,1.746 3.829,2.992 0.974,1.246 1.68,2.672 2.12,4.273 0.439,1.604 0.659,3.26 0.659,4.969 0,1.711 -0.231,3.373 -0.694,4.986 -0.464,1.615 -1.199,3.046 -2.209,4.293 -1.009,1.246 -2.297,2.244 -3.864,2.992 -1.567,0.748 -3.458,1.121 -5.666,1.121 l 0,0 z m 22.095,-21.762 h -7.658 V 9.458 h 20.659 v 4.523 h -7.659 v 21.156 h -5.342 V 13.981 l 0,0 z m 18.889,0.071 c 0.237,-0.807 0.528,-1.525 0.873,-2.154 0.345,-0.629 0.772,-1.158 1.282,-1.586 0.511,-0.427 1.135,-0.754 1.87,-0.979 0.736,-0.225 1.603,-0.338 2.6,-0.338 0.974,0 1.805,0.106 2.493,0.32 0.688,0.214 1.276,0.528 1.763,0.944 0.487,0.415 0.885,0.92 1.194,1.514 0.308,0.594 0.582,1.271 0.818,2.03 l 6.233,20.693 -5.343,1.176 -2.315,-7.836 h -10.115 l -2.351,7.836 -5.2,-1.176 6.198,-20.444 0,0 z m 10.151,9.261 -2.422,-8.583 c -0.143,-0.476 -0.32,-0.79 -0.535,-0.945 -0.213,-0.153 -0.463,-0.23 -0.748,-0.23 -0.309,0 -0.564,0.082 -0.766,0.249 -0.202,0.167 -0.375,0.476 -0.517,0.927 l -2.564,8.583 7.552,-0.001 0,0 z"
   inkscape:connector-curvature="0"
   style="fill:#a3a0ab" />

	<path
   id="path2990"
   d="m 239.106,9.458 h 10.614 c 2.018,0 3.817,0.309 5.396,0.927 1.579,0.617 2.909,1.484 3.989,2.6 1.081,1.117 1.906,2.458 2.476,4.025 0.569,1.566 0.854,3.301 0.854,5.2 0,1.876 -0.255,3.604 -0.766,5.182 -0.51,1.579 -1.288,2.944 -2.333,4.096 -1.045,1.152 -2.369,2.049 -3.972,2.689 -1.603,0.641 -3.485,0.961 -5.646,0.961 H 239.104 V 9.458 h 0.002 z m 10.365,21.156 c 2.351,0 4.162,-0.646 5.432,-1.94 1.27,-1.294 1.906,-3.389 1.906,-6.287 0,-2.921 -0.642,-5.052 -1.924,-6.393 -1.282,-1.342 -3.086,-2.013 -5.414,-2.013 h -5.022 v 16.633 h 5.022 l 0,0 z m 28.263,0.499 c 1.187,0 2.208,-0.231 3.063,-0.694 0.855,-0.463 1.562,-1.086 2.119,-1.87 0.558,-0.784 0.968,-1.709 1.229,-2.778 0.262,-1.069 0.393,-2.209 0.393,-3.42 0,-1.21 -0.131,-2.344 -0.393,-3.4 -0.261,-1.056 -0.67,-1.983 -1.229,-2.778 -0.558,-0.796 -1.264,-1.419 -2.119,-1.87 -0.855,-0.451 -1.876,-0.678 -3.063,-0.678 -1.188,0 -2.208,0.227 -3.063,0.678 -0.855,0.451 -1.561,1.074 -2.12,1.87 -0.558,0.795 -0.967,1.721 -1.229,2.778 -0.262,1.057 -0.392,2.19 -0.392,3.4 0,1.211 0.131,2.352 0.392,3.42 0.261,1.068 0.671,1.994 1.229,2.778 0.559,0.784 1.265,1.407 2.12,1.87 0.855,0.463 1.876,0.694 3.063,0.694 l 0,0 z m 0,4.63 c -2.304,0 -4.245,-0.373 -5.823,-1.121 -1.579,-0.748 -2.862,-1.746 -3.848,-2.992 -0.985,-1.247 -1.691,-2.678 -2.119,-4.293 -0.428,-1.613 -0.642,-3.275 -0.642,-4.986 0,-1.709 0.232,-3.365 0.695,-4.969 0.463,-1.601 1.199,-3.027 2.208,-4.273 1.01,-1.246 2.298,-2.244 3.865,-2.992 1.568,-0.748 3.456,-1.122 5.664,-1.122 2.303,0 4.245,0.374 5.824,1.122 1.579,0.748 2.855,1.746 3.829,2.992 0.975,1.246 1.68,2.672 2.119,4.273 0.439,1.604 0.659,3.26 0.659,4.969 0,1.711 -0.231,3.373 -0.694,4.986 -0.463,1.615 -1.199,3.046 -2.209,4.293 -1.009,1.246 -2.297,2.244 -3.864,2.992 -1.567,0.748 -3.456,1.121 -5.664,1.121 l 0,0 z M 294.137,9.458 h 10.151 c 1.235,0 2.387,0.12 3.455,0.356 1.067,0.237 2.001,0.617 2.796,1.141 0.796,0.521 1.419,1.199 1.87,2.029 0.45,0.832 0.677,1.829 0.677,2.992 0,1.282 -0.311,2.375 -0.926,3.277 -0.618,0.901 -1.307,1.613 -2.066,2.137 0.57,0.214 1.11,0.498 1.621,0.854 0.512,0.356 0.969,0.784 1.371,1.282 0.402,0.499 0.725,1.081 0.962,1.746 0.237,0.664 0.354,1.4 0.354,2.207 0,1.235 -0.219,2.328 -0.657,3.277 -0.438,0.95 -1.058,1.752 -1.853,2.404 -0.797,0.653 -1.746,1.146 -2.851,1.479 -1.104,0.332 -2.319,0.498 -3.651,0.498 h -11.255 l 0.002,-25.679 0,0 z m 9.722,10.328 c 1.068,0 1.973,-0.225 2.707,-0.676 0.736,-0.451 1.104,-1.234 1.104,-2.351 0,-1.163 -0.392,-1.929 -1.175,-2.297 -0.784,-0.368 -1.96,-0.553 -3.525,-0.553 h -3.562 v 5.876 l 4.451,0.001 0,0 z m 1.036,10.9 c 0.545,0 1.062,-0.061 1.549,-0.179 0.488,-0.118 0.908,-0.314 1.265,-0.588 0.356,-0.272 0.642,-0.616 0.854,-1.032 0.212,-0.416 0.32,-0.921 0.32,-1.514 0,-0.666 -0.125,-1.216 -0.374,-1.657 -0.249,-0.438 -0.588,-0.783 -1.015,-1.032 -0.428,-0.25 -0.938,-0.422 -1.532,-0.517 -0.594,-0.095 -1.223,-0.143 -1.888,-0.143 h -4.666 v 6.661 l 5.487,0.001 0,0 z M 318.27,9.458 h 9.793 c 1.234,0 2.394,0.125 3.474,0.374 1.081,0.25 2.019,0.665 2.813,1.247 0.794,0.582 1.42,1.341 1.869,2.279 0.451,0.938 0.678,2.096 0.678,3.474 0,0.925 -0.148,1.792 -0.444,2.599 -0.298,0.807 -0.695,1.531 -1.193,2.173 -0.499,0.641 -1.081,1.187 -1.745,1.638 -0.664,0.451 -1.354,0.796 -2.064,1.033 0.402,0.19 0.765,0.439 1.086,0.748 0.32,0.309 0.658,0.677 1.015,1.104 l 5.663,6.588 -4.096,2.957 -6.34,-7.445 c -0.428,-0.498 -0.803,-0.913 -1.123,-1.246 -0.32,-0.332 -0.623,-0.6 -0.908,-0.802 -0.284,-0.202 -0.575,-0.338 -0.872,-0.409 -0.297,-0.071 -0.623,-0.106 -0.979,-0.106 h -1.28 v 9.473 h -5.343 V 9.458 h -0.004 z m 8.794,11.754 c 1.33,0 2.398,-0.31 3.205,-0.926 0.81,-0.618 1.213,-1.533 1.213,-2.743 0,-0.76 -0.107,-1.383 -0.32,-1.87 -0.214,-0.486 -0.512,-0.867 -0.893,-1.141 -0.379,-0.271 -0.843,-0.456 -1.389,-0.552 -0.546,-0.095 -1.15,-0.143 -1.816,-0.143 h -3.453 v 7.374 l 3.453,0.001 0,0 z m 20.856,5.27 c -0.975,-0.331 -1.751,-0.884 -2.333,-1.655 -0.582,-0.771 -1.157,-1.787 -1.728,-3.046 l -4.846,-10.721 4.773,-1.994 5.378,11.576 c 0.262,0.546 0.505,0.902 0.729,1.068 0.226,0.166 0.494,0.249 0.803,0.249 0.355,0 0.641,-0.089 0.855,-0.267 0.213,-0.178 0.449,-0.541 0.711,-1.086 l 5.414,-11.541 4.772,1.924 -4.88,10.506 c -0.594,1.259 -1.199,2.304 -1.816,3.135 -0.617,0.831 -1.438,1.437 -2.457,1.816 v 8.69 h -5.379 v -8.654 h 0.004 z m 28.264,-5.876 h 10.686 v 12.146 c -0.617,0.427 -1.323,0.824 -2.119,1.192 -0.795,0.368 -1.65,0.688 -2.564,0.962 -0.914,0.272 -1.863,0.48 -2.85,0.623 -0.986,0.143 -1.965,0.213 -2.938,0.213 -2.422,0 -4.459,-0.338 -6.108,-1.015 -1.649,-0.677 -2.979,-1.614 -3.989,-2.813 -1.009,-1.199 -1.732,-2.617 -2.173,-4.256 -0.438,-1.639 -0.659,-3.419 -0.659,-5.343 0,-1.923 0.303,-3.698 0.909,-5.324 0.604,-1.627 1.489,-3.033 2.653,-4.222 1.162,-1.187 2.6,-2.113 4.309,-2.778 1.71,-0.664 3.657,-0.997 5.844,-0.997 1.779,0 3.377,0.178 4.791,0.534 1.411,0.356 2.724,0.796 3.936,1.318 l -1.641,4.311 c -0.854,-0.357 -1.619,-0.636 -2.295,-0.838 -0.679,-0.201 -1.289,-0.356 -1.836,-0.463 -0.546,-0.107 -1.068,-0.179 -1.566,-0.214 -0.498,-0.036 -0.998,-0.054 -1.496,-0.054 -2.446,0 -4.387,0.76 -5.823,2.279 -1.437,1.52 -2.155,3.669 -2.155,6.447 0,2.969 0.637,5.176 1.905,6.625 1.271,1.449 3.069,2.173 5.396,2.173 1.069,0 2.043,-0.101 2.922,-0.303 0.879,-0.202 1.603,-0.456 2.173,-0.766 v -4.879 h -5.308 v -4.558 h -0.004 z m 26.98,10.507 c 1.187,0 2.208,-0.231 3.062,-0.694 0.855,-0.463 1.562,-1.086 2.119,-1.87 0.56,-0.784 0.968,-1.709 1.229,-2.778 0.261,-1.068 0.392,-2.209 0.392,-3.42 0,-1.21 -0.131,-2.344 -0.392,-3.4 -0.262,-1.057 -0.671,-1.983 -1.229,-2.778 -0.558,-0.796 -1.264,-1.419 -2.119,-1.87 -0.854,-0.451 -1.876,-0.678 -3.062,-0.678 -1.188,0 -2.208,0.227 -3.063,0.678 -0.854,0.451 -1.562,1.074 -2.119,1.87 -0.559,0.795 -0.968,1.721 -1.229,2.778 -0.261,1.057 -0.393,2.19 -0.393,3.4 0,1.211 0.132,2.352 0.393,3.42 0.262,1.068 0.671,1.994 1.229,2.778 0.559,0.784 1.266,1.407 2.119,1.87 0.855,0.462 1.875,0.694 3.063,0.694 l 0,0 z m 0,4.63 c -2.304,0 -4.245,-0.373 -5.824,-1.121 -1.579,-0.748 -2.861,-1.746 -3.847,-2.992 -0.985,-1.247 -1.691,-2.678 -2.119,-4.293 -0.429,-1.613 -0.642,-3.275 -0.642,-4.986 0,-1.709 0.23,-3.365 0.693,-4.969 0.463,-1.601 1.199,-3.027 2.209,-4.273 1.01,-1.246 2.297,-2.244 3.864,-2.992 1.567,-0.748 3.456,-1.122 5.664,-1.122 2.303,0 4.244,0.374 5.823,1.122 1.579,0.748 2.854,1.746 3.829,2.992 0.973,1.246 1.68,2.672 2.118,4.273 0.439,1.604 0.658,3.26 0.658,4.969 0,1.711 -0.229,3.373 -0.692,4.986 -0.464,1.615 -1.199,3.046 -2.209,4.293 -1.01,1.246 -2.298,2.244 -3.864,2.992 -1.566,0.748 -3.453,1.121 -5.661,1.121 l 0,0 z m 15.12,-25.894 5.271,-0.748 2.209,18.485 c 0.144,1.234 0.476,2.119 0.997,2.654 0.523,0.533 1.295,0.801 2.315,0.801 0.355,0 0.736,-0.041 1.14,-0.125 0.403,-0.082 0.771,-0.219 1.104,-0.409 V 9.458 h 5.378 v 21.014 c 0.332,0.191 0.707,0.327 1.122,0.41 0.416,0.084 0.837,0.125 1.265,0.125 0.902,0 1.62,-0.243 2.155,-0.73 0.534,-0.486 0.872,-1.371 1.015,-2.654 l 2.173,-18.521 5.344,0.748 -2.279,18.593 c -0.144,1.092 -0.394,2.083 -0.748,2.973 -0.356,0.893 -0.855,1.651 -1.496,2.281 -0.642,0.629 -1.431,1.115 -2.369,1.46 -0.938,0.344 -2.048,0.517 -3.33,0.517 -1.067,0 -2.09,-0.107 -3.062,-0.321 -0.974,-0.214 -1.815,-0.546 -2.528,-0.997 -0.831,0.428 -1.687,0.754 -2.563,0.979 -0.876,0.225 -1.842,0.339 -2.887,0.339 -1.354,0 -2.499,-0.173 -3.437,-0.517 -0.938,-0.345 -1.722,-0.831 -2.352,-1.46 -0.63,-0.63 -1.109,-1.389 -1.441,-2.281 -0.333,-0.89 -0.57,-1.881 -0.713,-2.973 l -2.283,-18.594 0,0 z m 35.03,19.448 c 1.544,0.616 3.004,1.08 4.381,1.389 1.377,0.309 2.708,0.463 3.989,0.463 1.899,0 3.294,-0.297 4.186,-0.891 0.891,-0.594 1.336,-1.401 1.336,-2.422 0,-0.57 -0.131,-1.05 -0.392,-1.443 -0.263,-0.392 -0.631,-0.718 -1.104,-0.979 -0.475,-0.261 -1.045,-0.48 -1.71,-0.658 -0.665,-0.179 -1.413,-0.339 -2.244,-0.481 -1.067,-0.189 -2.131,-0.433 -3.188,-0.73 -1.058,-0.297 -1.994,-0.717 -2.813,-1.264 -0.819,-0.547 -1.483,-1.247 -1.995,-2.102 -0.511,-0.855 -0.766,-1.936 -0.766,-3.241 0,-1.14 0.189,-2.19 0.57,-3.153 0.38,-0.961 0.99,-1.798 1.834,-2.51 0.843,-0.713 1.94,-1.271 3.295,-1.675 1.353,-0.403 2.992,-0.605 4.915,-0.605 1.686,0 3.289,0.178 4.809,0.534 1.521,0.356 2.861,0.771 4.025,1.246 l -1.318,4.346 c -1.425,-0.498 -2.778,-0.884 -4.061,-1.157 -1.282,-0.272 -2.529,-0.409 -3.74,-0.409 -1.638,0 -2.844,0.244 -3.615,0.73 -0.771,0.486 -1.157,1.193 -1.157,2.119 0,0.498 0.112,0.919 0.339,1.263 0.226,0.345 0.559,0.636 0.996,0.873 0.44,0.237 0.975,0.439 1.604,0.605 0.629,0.166 1.336,0.32 2.119,0.463 1.092,0.215 2.185,0.469 3.276,0.766 1.093,0.297 2.077,0.73 2.956,1.301 0.879,0.569 1.591,1.317 2.139,2.244 0.546,0.926 0.817,2.101 0.817,3.525 0,1.259 -0.243,2.398 -0.729,3.42 -0.486,1.021 -1.199,1.894 -2.138,2.618 -0.938,0.724 -2.096,1.282 -3.473,1.674 -1.378,0.392 -2.968,0.587 -4.771,0.587 -1.094,0 -2.139,-0.064 -3.136,-0.195 -0.998,-0.131 -1.917,-0.291 -2.761,-0.48 -0.843,-0.19 -1.603,-0.398 -2.279,-0.623 -0.677,-0.227 -1.239,-0.434 -1.691,-0.624 l 1.495,-4.524 0,0 z M 476.698,9.458 h 5.342 v 10.471 h 1.033 c 0.475,0 0.878,-0.076 1.211,-0.23 0.332,-0.155 0.629,-0.398 0.891,-0.73 l 8.085,-9.902 4.062,2.992 -8.265,9.866 9.582,10.401 -3.953,3.418 -9.403,-10.186 c -0.333,-0.355 -0.653,-0.629 -0.962,-0.819 -0.31,-0.189 -0.735,-0.285 -1.281,-0.285 h -0.998 V 35.139 H 476.7 l -0.002,-25.681 0,0 z m 24.807,0 h 5.415 v 25.68 h -5.415 V 9.458 l 0,0 z"
   inkscape:connector-curvature="0"
   style="fill:#a3a0ab" />

	<path
   id="path2992"
   d="m 90.052,50.252 h 9.168 c 1.115,0 2.155,0.107 3.12,0.322 0.965,0.214 1.807,0.558 2.525,1.029 0.718,0.471 1.282,1.082 1.689,1.832 0.407,0.752 0.611,1.651 0.611,2.703 0,1.157 -0.279,2.146 -0.836,2.959 -0.558,0.815 -1.18,1.459 -1.866,1.932 0.515,0.193 1.002,0.449 1.464,0.771 0.461,0.321 0.874,0.707 1.239,1.158 0.364,0.449 0.654,0.977 0.868,1.575 0.215,0.603 0.322,1.266 0.322,1.995 0,1.115 -0.199,2.103 -0.595,2.959 -0.397,0.857 -0.955,1.582 -1.673,2.173 -0.717,0.59 -1.576,1.034 -2.573,1.334 -0.998,0.301 -2.096,0.45 -3.297,0.45 H 90.052 V 50.252 l 0,0 z m 8.783,9.329 c 0.965,0 1.78,-0.204 2.444,-0.61 0.664,-0.408 0.998,-1.115 0.998,-2.123 0,-1.052 -0.354,-1.742 -1.062,-2.074 -0.707,-0.334 -1.769,-0.5 -3.185,-0.5 h -3.216 v 5.309 l 4.021,-0.002 0,0 z m 0.933,9.845 c 0.493,0 0.959,-0.054 1.399,-0.16 0.44,-0.106 0.82,-0.285 1.142,-0.531 0.321,-0.246 0.579,-0.557 0.772,-0.932 0.193,-0.377 0.29,-0.832 0.29,-1.367 0,-0.603 -0.112,-1.101 -0.338,-1.498 -0.225,-0.396 -0.531,-0.707 -0.917,-0.933 -0.386,-0.226 -0.847,-0.38 -1.383,-0.467 -0.536,-0.085 -1.104,-0.129 -1.705,-0.129 h -4.214 v 6.017 h 4.954 l 0,0 z M 113.006,60.9 h -2.188 v -3.828 h 5.05 l 0.644,1.512 c 0.836,-0.643 1.619,-1.109 2.348,-1.398 0.73,-0.289 1.491,-0.436 2.284,-0.436 0.365,0 0.761,0.018 1.19,0.049 0.429,0.032 0.858,0.123 1.287,0.273 l -0.708,3.797 c -0.322,-0.087 -0.601,-0.141 -0.836,-0.161 -0.236,-0.021 -0.536,-0.032 -0.901,-0.032 -0.815,0 -1.512,0.145 -2.091,0.434 -0.579,0.291 -1.029,0.586 -1.351,0.887 v 11.451 h -4.729 l 0.001,-12.548 0,0 z m 20.155,9.234 c 1.201,0 2.107,-0.413 2.718,-1.237 0.611,-0.826 0.917,-2.043 0.917,-3.652 0,-3.237 -1.212,-4.857 -3.636,-4.857 -1.201,0 -2.118,0.407 -2.75,1.223 -0.633,0.814 -0.949,2.027 -0.949,3.636 0,1.609 0.316,2.825 0.949,3.651 0.633,0.823 1.55,1.236 2.751,1.236 l 0,0 z m 0,3.86 c -1.458,0 -2.723,-0.227 -3.796,-0.676 -1.072,-0.45 -1.962,-1.072 -2.669,-1.866 -0.708,-0.793 -1.234,-1.722 -1.577,-2.783 -0.343,-1.062 -0.515,-2.203 -0.515,-3.426 0,-1.222 0.188,-2.364 0.563,-3.427 0.375,-1.062 0.922,-1.983 1.64,-2.767 0.719,-0.782 1.608,-1.399 2.671,-1.85 1.061,-0.451 2.289,-0.677 3.683,-0.677 1.48,0 2.756,0.226 3.828,0.677 1.073,0.45 1.952,1.065 2.638,1.85 0.687,0.782 1.196,1.705 1.528,2.767 0.333,1.062 0.499,2.205 0.499,3.427 0,1.223 -0.177,2.364 -0.53,3.426 -0.354,1.062 -0.885,1.99 -1.593,2.783 -0.708,0.794 -1.593,1.416 -2.654,1.866 -1.061,0.45 -2.3,0.676 -3.716,0.676 l 0,0 z m 11.886,-12.932 -1.158,-3.058 4.021,-1.833 0.934,1.674 c 0.75,-0.365 1.528,-0.677 2.333,-0.935 0.804,-0.257 1.742,-0.386 2.814,-0.386 1.202,0 2.215,0.166 3.041,0.498 0.826,0.332 1.49,0.793 1.994,1.384 0.504,0.59 0.863,1.28 1.077,2.075 0.216,0.793 0.322,1.641 0.322,2.541 v 10.424 h -4.729 V 63.378 c 0,-1.052 -0.203,-1.786 -0.611,-2.203 -0.408,-0.419 -1.041,-0.628 -1.898,-0.628 -0.665,0 -1.271,0.08 -1.818,0.241 -0.547,0.159 -1.078,0.358 -1.592,0.595 v 12.064 h -4.729 l -0.001,-12.385 0,0 z m 27.039,9.072 c 1.2,0 2.106,-0.413 2.717,-1.237 0.611,-0.826 0.918,-2.043 0.918,-3.652 0,-3.237 -1.213,-4.857 -3.635,-4.857 -1.201,0 -2.118,0.407 -2.75,1.223 -0.633,0.814 -0.949,2.027 -0.949,3.636 0,1.609 0.316,2.825 0.949,3.651 0.633,0.823 1.549,1.236 2.75,1.236 l 0,0 z m 0,3.86 c -1.459,0 -2.723,-0.227 -3.795,-0.676 -1.073,-0.45 -1.963,-1.072 -2.67,-1.866 -0.708,-0.793 -1.234,-1.722 -1.577,-2.783 -0.343,-1.062 -0.515,-2.203 -0.515,-3.426 0,-1.222 0.188,-2.364 0.562,-3.427 0.376,-1.062 0.923,-1.983 1.642,-2.767 0.718,-0.782 1.608,-1.399 2.67,-1.85 1.062,-0.451 2.289,-0.677 3.683,-0.677 1.479,0 2.755,0.226 3.827,0.677 1.072,0.45 1.951,1.065 2.638,1.85 0.687,0.782 1.196,1.705 1.528,2.767 0.333,1.062 0.499,2.205 0.499,3.427 0,1.223 -0.177,2.364 -0.53,3.426 -0.354,1.062 -0.885,1.99 -1.593,2.783 -0.707,0.794 -1.593,1.416 -2.653,1.866 -1.062,0.452 -2.301,0.676 -3.716,0.676 l 0,0 z m 11.082,-16.473 4.76,-0.547 1.287,11.68 c 0.022,0.32 0.102,0.578 0.241,0.771 0.139,0.193 0.306,0.339 0.499,0.435 0.192,0.097 0.396,0.162 0.611,0.193 0.215,0.031 0.418,0.049 0.611,0.049 0.278,0 0.558,-0.033 0.837,-0.098 0.278,-0.064 0.524,-0.16 0.739,-0.289 V 57.072 h 4.568 v 12.644 c 0.193,0.128 0.435,0.226 0.724,0.289 0.289,0.063 0.573,0.097 0.853,0.097 0.15,0 0.332,-0.017 0.547,-0.049 0.215,-0.031 0.413,-0.097 0.595,-0.191 0.182,-0.098 0.343,-0.23 0.482,-0.402 0.139,-0.172 0.23,-0.406 0.273,-0.708 l 1.318,-11.774 4.729,0.547 -1.416,11.742 c -0.085,0.645 -0.257,1.256 -0.515,1.834 -0.257,0.58 -0.616,1.084 -1.077,1.512 -0.462,0.431 -1.046,0.769 -1.754,1.015 -0.708,0.247 -1.554,0.37 -2.541,0.37 -0.814,0 -1.614,-0.098 -2.396,-0.29 -0.782,-0.192 -1.496,-0.472 -2.14,-0.836 -0.622,0.343 -1.324,0.616 -2.106,0.819 -0.784,0.205 -1.582,0.307 -2.397,0.307 -0.986,0 -1.833,-0.112 -2.542,-0.338 -0.707,-0.227 -1.296,-0.547 -1.769,-0.967 -0.472,-0.418 -0.837,-0.916 -1.094,-1.494 -0.258,-0.58 -0.429,-1.223 -0.515,-1.932 l -1.412,-11.746 0,0 z M 211.17,60.9 h -2.187 v -3.828 h 6.916 V 73.447 H 211.17 V 60.9 l 0,0 z m -0.804,-8.332 c 0,-0.75 0.241,-1.395 0.725,-1.932 0.481,-0.535 1.206,-0.804 2.171,-0.804 0.922,0 1.625,0.269 2.107,0.804 0.482,0.537 0.724,1.182 0.724,1.932 0,0.75 -0.241,1.39 -0.724,1.914 -0.482,0.524 -1.186,0.787 -2.107,0.787 -0.965,0 -1.689,-0.263 -2.171,-0.787 -0.484,-0.524 -0.725,-1.164 -0.725,-1.914 l 0,0 z m 24.239,20.01 c -0.943,0.429 -1.951,0.771 -3.023,1.029 -1.072,0.258 -2.198,0.387 -3.378,0.387 -1.564,0 -2.916,-0.215 -4.052,-0.645 -1.138,-0.429 -2.075,-1.023 -2.815,-1.785 -0.74,-0.762 -1.287,-1.668 -1.64,-2.719 -0.354,-1.051 -0.531,-2.209 -0.531,-3.475 0,-1.244 0.204,-2.407 0.611,-3.49 0.407,-1.083 0.997,-2.021 1.769,-2.814 0.772,-0.793 1.716,-1.416 2.831,-1.865 1.115,-0.451 2.381,-0.676 3.796,-0.676 1.287,0 2.445,0.106 3.474,0.322 1.029,0.213 1.952,0.504 2.767,0.867 l -1.48,3.667 c -0.578,-0.214 -1.083,-0.386 -1.512,-0.514 -0.429,-0.13 -0.815,-0.222 -1.157,-0.274 -0.343,-0.054 -0.666,-0.086 -0.965,-0.097 -0.299,-0.011 -0.611,-0.017 -0.934,-0.017 -0.707,0 -1.329,0.125 -1.865,0.371 -0.536,0.246 -0.992,0.584 -1.367,1.014 -0.376,0.428 -0.66,0.938 -0.853,1.527 -0.193,0.59 -0.289,1.238 -0.289,1.945 0,1.521 0.418,2.691 1.254,3.508 0.837,0.813 1.898,1.223 3.186,1.223 0.321,0 0.648,-0.018 0.98,-0.049 0.332,-0.033 0.686,-0.092 1.061,-0.178 0.376,-0.085 0.788,-0.209 1.239,-0.369 0.45,-0.16 0.954,-0.359 1.512,-0.596 l 1.381,3.703 0,0 z m 12.755,-9.103 c -0.021,-1.094 -0.29,-1.888 -0.805,-2.381 -0.514,-0.492 -1.147,-0.74 -1.897,-0.74 -0.88,0 -1.635,0.295 -2.269,0.885 -0.632,0.591 -0.98,1.336 -1.045,2.236 h 6.016 l 0,0 z m 4.922,9.041 c -0.857,0.363 -1.882,0.701 -3.072,1.012 -1.189,0.312 -2.504,0.468 -3.94,0.468 -1.651,0 -3.052,-0.216 -4.198,-0.644 -1.147,-0.43 -2.08,-1.029 -2.798,-1.803 -0.718,-0.773 -1.238,-1.688 -1.561,-2.75 -0.321,-1.062 -0.482,-2.227 -0.482,-3.49 0,-1.138 0.183,-2.236 0.548,-3.299 0.364,-1.062 0.91,-1.998 1.64,-2.814 0.729,-0.813 1.619,-1.463 2.67,-1.945 1.051,-0.482 2.272,-0.725 3.667,-0.725 1.309,0 2.435,0.205 3.378,0.611 0.943,0.408 1.726,0.991 2.348,1.754 0.621,0.762 1.083,1.684 1.383,2.767 0.301,1.083 0.451,2.29 0.451,3.618 l -1.352,1.287 h -9.683 c 0.043,1.008 0.445,1.84 1.207,2.494 0.761,0.653 1.827,0.98 3.2,0.98 0.815,0 1.656,-0.098 2.525,-0.289 0.869,-0.193 1.806,-0.473 2.815,-0.837 l 1.254,3.605 0,0 z"
   inkscape:connector-curvature="0"
   style="fill:#a3a0ab" />

</g>
  </g>
</svg>
