<?xml version="1.0" encoding="utf-8"?>
<!-- Generator: Adobe Illustrator 16.0.0, SVG Export Plug-In . SVG Version: 6.00 Build 0)  -->
<!DOCTYPE svg PUBLIC "-//W3C//DTD SVG 1.1//EN" "http://www.w3.org/Graphics/SVG/1.1/DTD/svg11.dtd">
<svg version="1.1" id="Warstwa_1" xmlns="http://www.w3.org/2000/svg" xmlns:xlink="http://www.w3.org/1999/xlink" x="0px" y="0px"
	 width="423.568px" height="67.405px" viewBox="0 0 423.568 67.405" enable-background="new 0 0 423.568 67.405"
	 xml:space="preserve">
<polygon fill="#A3A0AB" points="49.938,25.937 49.938,14.802 56.975,14.802 56.975,16.522 51.962,16.522 51.962,19.366 
	56.413,19.366 56.413,21.084 51.962,21.084 51.962,25.937 "/>
<path fill="#A3A0AB" d="M65.137,25.503c-0.375,0.096-0.862,0.195-1.462,0.297s-1.258,0.152-1.976,0.152
	c-0.674,0-1.24-0.096-1.695-0.289c-0.456-0.192-0.819-0.46-1.092-0.803c-0.273-0.344-0.469-0.753-0.587-1.229
	c-0.118-0.477-0.177-0.999-0.177-1.566v-4.708h1.944v4.402c0,0.9,0.131,1.543,0.393,1.929c0.263,0.385,0.721,0.577,1.374,0.577
	c0.235,0,0.484-0.011,0.748-0.031c0.262-0.021,0.457-0.049,0.586-0.08v-6.797h1.943V25.503z"/>
<path fill="#A3A0AB" d="M67.515,17.807c0.375-0.107,0.862-0.209,1.462-0.305c0.6-0.097,1.264-0.145,1.992-0.145
	c0.685,0,1.258,0.094,1.719,0.281c0.461,0.188,0.828,0.45,1.101,0.787c0.272,0.337,0.466,0.745,0.578,1.222
	c0.113,0.477,0.169,0.999,0.169,1.566v4.723h-1.944v-4.417c0-0.45-0.029-0.834-0.088-1.149s-0.155-0.573-0.29-0.771
	c-0.133-0.197-0.316-0.342-0.546-0.434c-0.23-0.09-0.512-0.136-0.844-0.136c-0.247,0-0.503,0.016-0.771,0.048
	c-0.268,0.032-0.466,0.059-0.595,0.081v6.779h-1.944V17.807z"/>
<path fill="#A3A0AB" d="M83.918,25.487c-0.385,0.118-0.871,0.225-1.453,0.321c-0.584,0.096-1.197,0.145-1.84,0.145
	c-0.665,0-1.26-0.102-1.783-0.305c-0.525-0.203-0.973-0.496-1.342-0.876c-0.37-0.38-0.653-0.841-0.852-1.382
	c-0.198-0.541-0.297-1.148-0.297-1.824c0-0.663,0.083-1.267,0.249-1.807c0.167-0.541,0.41-1.005,0.731-1.39
	c0.322-0.385,0.712-0.683,1.174-0.892c0.46-0.208,0.991-0.313,1.59-0.313c0.407,0,0.766,0.049,1.076,0.145s0.579,0.203,0.804,0.321
	v-2.507l1.943-0.321V25.487z M78.343,21.519c0,0.856,0.204,1.528,0.611,2.017c0.406,0.486,0.969,0.729,1.686,0.729
	c0.31,0,0.577-0.013,0.796-0.04c0.219-0.025,0.398-0.056,0.538-0.088v-4.82c-0.173-0.118-0.401-0.228-0.684-0.33
	c-0.284-0.102-0.585-0.153-0.908-0.153c-0.707,0-1.223,0.242-1.551,0.723C78.507,20.04,78.343,20.694,78.343,21.519"/>
<path fill="#A3A0AB" d="M93.188,25.503c-0.374,0.096-0.862,0.195-1.461,0.297c-0.6,0.102-1.258,0.152-1.977,0.152
	c-0.674,0-1.24-0.096-1.695-0.289c-0.455-0.192-0.819-0.46-1.092-0.803c-0.274-0.344-0.47-0.753-0.586-1.229
	c-0.118-0.477-0.177-0.999-0.177-1.566v-4.708h1.943v4.402c0,0.9,0.131,1.543,0.394,1.929c0.263,0.385,0.72,0.577,1.374,0.577
	c0.236,0,0.484-0.011,0.748-0.031c0.262-0.021,0.458-0.049,0.586-0.08v-6.797h1.943V25.503z"/>
<path fill="#A3A0AB" d="M97.671,24.346c0.514,0,0.889-0.062,1.125-0.185c0.235-0.123,0.353-0.334,0.353-0.635
	c0-0.278-0.126-0.509-0.377-0.691c-0.252-0.181-0.667-0.38-1.246-0.594c-0.354-0.129-0.677-0.266-0.971-0.41
	c-0.295-0.145-0.549-0.312-0.764-0.506c-0.214-0.193-0.383-0.426-0.506-0.699c-0.123-0.272-0.184-0.607-0.184-1.004
	c0-0.771,0.283-1.379,0.851-1.823s1.339-0.667,2.314-0.667c0.492,0,0.964,0.046,1.414,0.137c0.45,0.091,0.787,0.18,1.012,0.265
	l-0.353,1.574c-0.214-0.096-0.487-0.185-0.82-0.265c-0.332-0.081-0.717-0.121-1.156-0.121c-0.396,0-0.718,0.067-0.964,0.201
	c-0.246,0.134-0.369,0.34-0.369,0.619c0,0.14,0.024,0.263,0.072,0.37c0.048,0.106,0.131,0.206,0.25,0.297
	c0.117,0.091,0.273,0.182,0.466,0.272c0.192,0.091,0.428,0.185,0.707,0.281c0.46,0.172,0.851,0.34,1.173,0.506
	c0.321,0.167,0.585,0.354,0.795,0.562c0.209,0.209,0.361,0.447,0.458,0.715c0.095,0.269,0.144,0.59,0.144,0.965
	c0,0.803-0.297,1.411-0.892,1.823c-0.595,0.412-1.444,0.618-2.547,0.618c-0.739,0-1.334-0.062-1.784-0.185
	c-0.45-0.123-0.766-0.222-0.947-0.298l0.337-1.622c0.29,0.118,0.635,0.23,1.036,0.337C96.699,24.292,97.157,24.346,97.671,24.346"/>
<path fill="#A3A0AB" d="M108.693,18.9c-0.215,0.225-0.496,0.541-0.844,0.947c-0.348,0.407-0.721,0.86-1.116,1.357
	c-0.398,0.499-0.796,1.019-1.197,1.56c-0.402,0.54-0.763,1.058-1.085,1.55h4.338v1.623h-6.683v-1.205
	c0.235-0.429,0.529-0.895,0.883-1.398c0.354-0.503,0.718-1.009,1.092-1.518c0.375-0.509,0.748-0.993,1.117-1.454
	c0.371-0.461,0.7-0.862,0.988-1.205h-3.872v-1.623h6.378V18.9z"/>
<path fill="#A3A0AB" d="M109.753,21.583c0-0.74,0.109-1.388,0.329-1.945c0.219-0.557,0.511-1.02,0.875-1.389
	c0.363-0.37,0.781-0.648,1.253-0.835c0.471-0.188,0.953-0.281,1.446-0.281c1.157,0,2.059,0.359,2.707,1.076
	c0.648,0.718,0.972,1.789,0.972,3.214c0,0.107-0.003,0.228-0.008,0.361c-0.006,0.134-0.013,0.254-0.024,0.361h-5.542
	c0.053,0.675,0.291,1.197,0.714,1.566c0.423,0.37,1.037,0.555,1.84,0.555c0.472,0,0.902-0.043,1.293-0.129
	c0.392-0.085,0.699-0.177,0.924-0.272l0.258,1.59c-0.107,0.054-0.255,0.11-0.443,0.169c-0.187,0.059-0.401,0.112-0.642,0.161
	c-0.241,0.047-0.501,0.088-0.779,0.12c-0.279,0.032-0.562,0.048-0.852,0.048c-0.739,0-1.381-0.109-1.928-0.329
	s-0.995-0.524-1.35-0.916c-0.354-0.391-0.616-0.852-0.787-1.382C109.839,22.795,109.753,22.215,109.753,21.583 M115.392,20.715
	c0-0.268-0.038-0.522-0.112-0.764c-0.075-0.24-0.185-0.45-0.33-0.626c-0.145-0.177-0.321-0.315-0.53-0.418
	c-0.209-0.101-0.458-0.152-0.748-0.152c-0.3,0-0.562,0.056-0.788,0.169c-0.225,0.113-0.415,0.26-0.57,0.442
	s-0.276,0.392-0.362,0.626c-0.085,0.236-0.145,0.478-0.176,0.724H115.392z"/>
<polygon fill="#A3A0AB" points="49.938,40.779 49.938,29.644 57.088,29.644 57.088,31.364 51.962,31.364 51.962,34.111 
	56.525,34.111 56.525,35.798 51.962,35.798 51.962,39.06 57.473,39.06 57.473,40.779 "/>
<path fill="#A3A0AB" d="M65.779,40.345c-0.375,0.096-0.862,0.196-1.462,0.297c-0.6,0.103-1.259,0.152-1.976,0.152
	c-0.675,0-1.24-0.096-1.695-0.289c-0.456-0.192-0.82-0.46-1.092-0.803c-0.274-0.344-0.47-0.753-0.587-1.229
	s-0.177-0.999-0.177-1.566V32.2h1.944v4.401c0,0.9,0.131,1.543,0.394,1.929s0.721,0.578,1.374,0.578
	c0.235,0,0.484-0.011,0.747-0.031c0.263-0.022,0.458-0.049,0.586-0.081V32.2h1.944V40.345z"/>
<path fill="#A3A0AB" d="M72.945,34.127c-0.161-0.054-0.383-0.109-0.667-0.168c-0.284-0.06-0.613-0.09-0.987-0.09
	c-0.215,0-0.442,0.022-0.684,0.065c-0.241,0.042-0.41,0.08-0.506,0.111v6.732h-1.944v-8.001c0.375-0.139,0.844-0.271,1.406-0.394
	c0.562-0.123,1.186-0.186,1.872-0.186c0.129,0,0.279,0.009,0.45,0.024c0.171,0.017,0.342,0.038,0.514,0.064
	c0.171,0.026,0.337,0.06,0.498,0.097c0.161,0.037,0.29,0.072,0.386,0.104L72.945,34.127z"/>
<path fill="#A3A0AB" d="M82.135,36.361c0,0.664-0.096,1.269-0.289,1.815c-0.193,0.546-0.466,1.012-0.82,1.397
	c-0.353,0.386-0.779,0.686-1.277,0.899c-0.498,0.215-1.047,0.321-1.646,0.321c-0.6,0-1.146-0.106-1.639-0.321
	c-0.493-0.214-0.916-0.514-1.27-0.899s-0.629-0.852-0.827-1.397c-0.198-0.547-0.297-1.151-0.297-1.815s0.1-1.267,0.297-1.808
	c0.198-0.541,0.477-1.004,0.835-1.39c0.359-0.387,0.784-0.684,1.277-0.893c0.493-0.208,1.033-0.313,1.623-0.313
	c0.588,0,1.132,0.105,1.63,0.313c0.499,0.209,0.924,0.506,1.278,0.893c0.354,0.386,0.629,0.849,0.828,1.39
	C82.036,35.094,82.135,35.697,82.135,36.361 M80.143,36.361c0-0.836-0.179-1.497-0.538-1.984c-0.358-0.487-0.859-0.731-1.502-0.731
	c-0.643,0-1.144,0.244-1.503,0.731c-0.359,0.487-0.538,1.148-0.538,1.984c0,0.846,0.179,1.516,0.538,2.008
	c0.359,0.493,0.86,0.739,1.503,0.739c0.643,0,1.144-0.246,1.502-0.739C79.964,37.876,80.143,37.207,80.143,36.361"/>
<path fill="#A3A0AB" d="M91.614,36.585c0,0.643-0.083,1.231-0.249,1.768c-0.166,0.536-0.405,0.996-0.715,1.382
	c-0.31,0.386-0.699,0.686-1.165,0.899c-0.465,0.214-0.994,0.321-1.583,0.321c-0.396,0-0.761-0.048-1.092-0.145
	c-0.332-0.096-0.605-0.203-0.819-0.321v3.261h-1.944V32.65c0.396-0.107,0.884-0.209,1.462-0.306s1.188-0.146,1.832-0.146
	c0.664,0,1.258,0.103,1.783,0.306c0.525,0.204,0.973,0.496,1.342,0.876c0.37,0.38,0.653,0.841,0.852,1.382
	C91.515,35.302,91.614,35.911,91.614,36.585 M89.622,36.618c0-0.867-0.196-1.542-0.586-2.024s-1.021-0.724-1.887-0.724
	c-0.183,0-0.373,0.009-0.57,0.024c-0.199,0.017-0.394,0.052-0.587,0.105v4.803c0.171,0.118,0.399,0.229,0.683,0.33
	c0.284,0.102,0.587,0.152,0.908,0.152c0.707,0,1.223-0.241,1.55-0.723C89.458,38.08,89.622,37.431,89.622,36.618"/>
<path fill="#A3A0AB" d="M93.061,36.425c0-0.74,0.109-1.388,0.329-1.944c0.219-0.558,0.511-1.021,0.875-1.39
	c0.364-0.37,0.782-0.648,1.253-0.836c0.471-0.188,0.953-0.281,1.446-0.281c1.157,0,2.059,0.359,2.708,1.076
	c0.647,0.719,0.972,1.79,0.972,3.214c0,0.107-0.002,0.228-0.008,0.361c-0.005,0.134-0.013,0.255-0.024,0.362h-5.543
	c0.053,0.675,0.291,1.196,0.715,1.565c0.423,0.37,1.037,0.555,1.84,0.555c0.471,0,0.902-0.043,1.293-0.128
	c0.392-0.086,0.699-0.178,0.924-0.273l0.258,1.591c-0.107,0.054-0.255,0.109-0.442,0.168c-0.187,0.06-0.401,0.112-0.642,0.161
	c-0.242,0.048-0.501,0.089-0.78,0.12c-0.278,0.032-0.562,0.048-0.852,0.048c-0.739,0-1.381-0.109-1.927-0.329
	c-0.547-0.22-0.996-0.524-1.35-0.916c-0.354-0.391-0.616-0.851-0.787-1.382C93.146,37.638,93.061,37.057,93.061,36.425 M98.7,35.557
	c0-0.268-0.038-0.522-0.113-0.764c-0.075-0.24-0.184-0.449-0.33-0.626c-0.144-0.177-0.321-0.315-0.53-0.418
	c-0.209-0.102-0.458-0.152-0.748-0.152c-0.3,0-0.562,0.056-0.787,0.169c-0.225,0.112-0.415,0.26-0.57,0.441
	c-0.155,0.182-0.276,0.392-0.362,0.627c-0.085,0.235-0.145,0.477-0.176,0.723H98.7z"/>
<path fill="#A3A0AB" d="M101.526,43.767c-0.139,0-0.334-0.013-0.586-0.04c-0.252-0.026-0.474-0.078-0.667-0.152l0.257-1.591
	c0.236,0.075,0.52,0.112,0.852,0.112c0.45,0,0.766-0.131,0.948-0.394s0.273-0.656,0.273-1.181v-8.146h1.944v8.177
	c0,1.093-0.26,1.901-0.779,2.427C103.249,43.504,102.501,43.767,101.526,43.767 M104.756,29.918c0,0.363-0.118,0.653-0.353,0.866
	c-0.236,0.215-0.514,0.322-0.835,0.322c-0.332,0-0.616-0.107-0.851-0.322c-0.236-0.213-0.354-0.503-0.354-0.866
	c0-0.376,0.117-0.67,0.354-0.885c0.235-0.214,0.519-0.32,0.851-0.32c0.322,0,0.6,0.106,0.835,0.32
	C104.638,29.249,104.756,29.542,104.756,29.918"/>
<path fill="#A3A0AB" d="M109.03,39.188c0.514,0,0.888-0.062,1.125-0.184c0.235-0.124,0.354-0.335,0.354-0.636
	c0-0.278-0.126-0.508-0.378-0.691c-0.252-0.181-0.667-0.379-1.245-0.594c-0.354-0.128-0.678-0.265-0.972-0.41
	c-0.295-0.145-0.549-0.312-0.764-0.505c-0.214-0.193-0.383-0.427-0.506-0.699c-0.123-0.273-0.185-0.607-0.185-1.005
	c0-0.771,0.283-1.379,0.851-1.823s1.339-0.667,2.314-0.667c0.492,0,0.964,0.046,1.414,0.138c0.451,0.091,0.788,0.179,1.012,0.265
	l-0.354,1.574c-0.214-0.097-0.487-0.185-0.819-0.266c-0.332-0.08-0.718-0.12-1.157-0.12c-0.396,0-0.717,0.067-0.964,0.201
	c-0.246,0.134-0.369,0.34-0.369,0.618c0,0.14,0.024,0.263,0.072,0.37c0.048,0.107,0.131,0.206,0.25,0.297
	c0.117,0.091,0.273,0.182,0.466,0.273c0.192,0.091,0.428,0.185,0.707,0.281c0.46,0.171,0.851,0.34,1.173,0.506
	c0.321,0.166,0.586,0.354,0.795,0.562c0.209,0.209,0.361,0.448,0.458,0.715c0.095,0.269,0.145,0.59,0.145,0.965
	c0,0.803-0.298,1.411-0.892,1.824c-0.594,0.412-1.444,0.617-2.547,0.617c-0.739,0-1.334-0.061-1.783-0.185
	c-0.451-0.123-0.766-0.222-0.948-0.297l0.337-1.623c0.29,0.118,0.635,0.23,1.036,0.338C108.058,39.134,108.516,39.188,109.03,39.188
	"/>
<path fill="#A3A0AB" d="M116.115,35.654c0.246-0.258,0.509-0.532,0.787-0.827s0.552-0.59,0.82-0.884
	c0.268-0.295,0.522-0.579,0.763-0.852c0.241-0.273,0.447-0.512,0.619-0.715h2.297c-0.535,0.6-1.1,1.221-1.695,1.863
	s-1.191,1.27-1.791,1.88c0.321,0.269,0.659,0.593,1.012,0.972c0.353,0.381,0.695,0.784,1.028,1.214
	c0.332,0.429,0.643,0.856,0.932,1.285c0.289,0.428,0.53,0.825,0.723,1.188h-2.25c-0.193-0.332-0.416-0.68-0.667-1.044
	s-0.521-0.718-0.812-1.061c-0.289-0.343-0.583-0.667-0.883-0.973c-0.3-0.305-0.595-0.564-0.884-0.779v3.856h-1.944V29.966
	l1.944-0.322V35.654z"/>
<path fill="#A3A0AB" d="M125.096,29.917c0,0.365-0.118,0.653-0.354,0.868c-0.236,0.214-0.514,0.321-0.835,0.321
	c-0.333,0-0.616-0.107-0.852-0.321c-0.236-0.215-0.354-0.503-0.354-0.868c0-0.374,0.118-0.669,0.354-0.884
	c0.235-0.214,0.519-0.32,0.852-0.32c0.321,0,0.599,0.106,0.835,0.32C124.978,29.249,125.096,29.543,125.096,29.917 M124.887,40.779
	h-1.944v-8.402h1.944V40.779z"/>
<path fill="#A3A0AB" d="M126.799,36.425c0-0.74,0.109-1.388,0.33-1.944c0.219-0.558,0.511-1.021,0.875-1.39
	c0.363-0.37,0.782-0.648,1.253-0.836c0.471-0.188,0.953-0.281,1.446-0.281c1.156,0,2.058,0.359,2.707,1.076
	c0.648,0.719,0.972,1.79,0.972,3.214c0,0.107-0.002,0.228-0.008,0.361c-0.006,0.134-0.013,0.255-0.024,0.362h-5.543
	c0.053,0.675,0.291,1.196,0.715,1.565c0.423,0.37,1.037,0.555,1.839,0.555c0.471,0,0.902-0.043,1.293-0.128
	c0.391-0.086,0.699-0.178,0.923-0.273l0.258,1.591c-0.107,0.054-0.255,0.109-0.442,0.168c-0.188,0.06-0.402,0.112-0.643,0.161
	c-0.241,0.048-0.501,0.089-0.779,0.12c-0.279,0.032-0.562,0.048-0.852,0.048c-0.739,0-1.381-0.109-1.928-0.329
	s-0.996-0.524-1.35-0.916c-0.354-0.391-0.616-0.851-0.787-1.382C126.885,37.638,126.799,37.057,126.799,36.425 M132.438,35.557
	c0-0.268-0.038-0.522-0.112-0.764c-0.075-0.24-0.185-0.449-0.33-0.626c-0.144-0.177-0.321-0.315-0.529-0.418
	c-0.209-0.102-0.458-0.152-0.748-0.152c-0.3,0-0.562,0.056-0.787,0.169c-0.226,0.112-0.415,0.26-0.57,0.441
	s-0.276,0.392-0.362,0.627s-0.145,0.477-0.176,0.723H132.438z"/>
<rect x="49.951" y="48.283" fill="#A3A0AB" width="1.029" height="7.349"/>
<path fill="#A3A0AB" d="M52.686,50.277c0.227-0.057,0.527-0.116,0.901-0.181c0.375-0.063,0.806-0.095,1.294-0.095
	c0.438,0,0.802,0.062,1.092,0.186s0.521,0.297,0.694,0.52c0.174,0.223,0.295,0.489,0.366,0.8s0.106,0.654,0.106,1.029v3.096h-0.986
	v-2.884c0-0.34-0.023-0.63-0.068-0.87c-0.046-0.24-0.122-0.435-0.228-0.583c-0.106-0.147-0.248-0.256-0.424-0.323
	c-0.177-0.067-0.396-0.101-0.658-0.101c-0.106,0-0.216,0.004-0.329,0.01c-0.113,0.008-0.221,0.017-0.324,0.027
	c-0.102,0.01-0.194,0.022-0.275,0.037c-0.081,0.014-0.14,0.024-0.175,0.031v4.655h-0.986V50.277z"/>
<path fill="#A3A0AB" d="M60.871,47.403c0.29,0,0.539,0.021,0.748,0.064c0.208,0.042,0.355,0.081,0.439,0.116l-0.18,0.848
	c-0.084-0.041-0.205-0.082-0.361-0.121s-0.346-0.059-0.572-0.059c-0.46,0-0.782,0.126-0.965,0.376
	c-0.184,0.251-0.276,0.59-0.276,1.013v0.478h2.121v0.827h-2.121v4.687h-0.986V49.62c0-0.707,0.173-1.253,0.52-1.638
	C59.584,47.595,60.129,47.403,60.871,47.403"/>
<path fill="#A3A0AB" d="M64.794,50.001c0.085,0,0.182,0.005,0.292,0.016c0.109,0.011,0.217,0.024,0.324,0.042
	c0.105,0.019,0.203,0.035,0.291,0.054c0.088,0.018,0.154,0.033,0.196,0.048l-0.169,0.858c-0.078-0.028-0.207-0.062-0.388-0.101
	c-0.18-0.039-0.412-0.059-0.694-0.059c-0.184,0-0.366,0.02-0.546,0.059c-0.18,0.038-0.299,0.065-0.356,0.078v4.635h-0.985v-5.28
	c0.233-0.085,0.523-0.164,0.869-0.238S64.363,50.001,64.794,50.001"/>
<path fill="#A3A0AB" d="M68.58,49.874c0.396,0,0.73,0.052,1.001,0.154c0.272,0.103,0.491,0.247,0.658,0.435
	c0.166,0.187,0.284,0.41,0.355,0.668c0.07,0.258,0.106,0.543,0.106,0.854v3.446c-0.085,0.014-0.204,0.033-0.355,0.059
	c-0.152,0.024-0.323,0.047-0.515,0.068c-0.19,0.021-0.397,0.04-0.62,0.058c-0.223,0.018-0.443,0.027-0.663,0.027
	c-0.311,0-0.598-0.032-0.858-0.096c-0.262-0.063-0.488-0.164-0.679-0.302c-0.19-0.138-0.339-0.32-0.446-0.546
	c-0.105-0.227-0.158-0.499-0.158-0.816c0-0.305,0.062-0.566,0.185-0.785c0.124-0.219,0.292-0.396,0.504-0.529
	c0.212-0.135,0.459-0.234,0.742-0.298c0.282-0.063,0.579-0.096,0.891-0.096c0.099,0,0.201,0.006,0.307,0.017
	s0.207,0.025,0.302,0.042c0.096,0.019,0.179,0.034,0.25,0.048c0.07,0.015,0.12,0.025,0.148,0.031v-0.275
	c0-0.163-0.018-0.323-0.053-0.482c-0.036-0.158-0.099-0.3-0.191-0.424s-0.217-0.223-0.376-0.297
	c-0.159-0.074-0.366-0.111-0.621-0.111c-0.326,0-0.61,0.023-0.854,0.068c-0.244,0.047-0.426,0.095-0.545,0.144l-0.117-0.815
	c0.127-0.058,0.34-0.112,0.636-0.165C67.911,49.901,68.233,49.874,68.58,49.874 M68.664,54.815c0.233,0,0.44-0.006,0.621-0.017
	s0.331-0.029,0.451-0.058v-1.644c-0.071-0.035-0.186-0.065-0.344-0.09c-0.159-0.025-0.352-0.038-0.578-0.038
	c-0.149,0-0.306,0.012-0.472,0.032c-0.167,0.021-0.318,0.065-0.456,0.133s-0.253,0.158-0.345,0.275s-0.138,0.271-0.138,0.462
	c0,0.354,0.113,0.599,0.339,0.736S68.275,54.815,68.664,54.815"/>
<path fill="#A3A0AB" d="M73.562,54.793c0.402,0,0.702-0.053,0.896-0.159c0.194-0.105,0.291-0.275,0.291-0.509
	c0-0.24-0.096-0.431-0.286-0.573c-0.191-0.141-0.506-0.3-0.944-0.477c-0.211-0.085-0.415-0.171-0.61-0.26
	c-0.194-0.088-0.362-0.192-0.503-0.312c-0.142-0.12-0.255-0.266-0.339-0.436c-0.085-0.169-0.127-0.377-0.127-0.625
	c0-0.487,0.181-0.875,0.541-1.16c0.36-0.287,0.852-0.43,1.474-0.43c0.155,0,0.311,0.008,0.466,0.026
	c0.155,0.018,0.3,0.039,0.435,0.063s0.253,0.052,0.355,0.079c0.102,0.028,0.182,0.054,0.238,0.074l-0.18,0.849
	c-0.105-0.057-0.272-0.114-0.498-0.176c-0.227-0.06-0.499-0.09-0.816-0.09c-0.276,0-0.516,0.055-0.721,0.164
	c-0.206,0.11-0.308,0.281-0.308,0.515c0,0.12,0.023,0.227,0.069,0.318c0.045,0.092,0.117,0.175,0.212,0.249s0.214,0.143,0.355,0.207
	c0.141,0.063,0.311,0.131,0.508,0.202c0.262,0.098,0.495,0.196,0.7,0.29c0.205,0.097,0.38,0.207,0.524,0.335
	c0.146,0.127,0.256,0.28,0.334,0.461c0.077,0.18,0.116,0.401,0.116,0.663c0,0.509-0.188,0.895-0.567,1.155
	c-0.378,0.262-0.917,0.393-1.617,0.393c-0.488,0-0.87-0.041-1.146-0.122c-0.275-0.082-0.463-0.143-0.562-0.186l0.18-0.849
	c0.114,0.043,0.293,0.106,0.541,0.191C72.823,54.75,73.152,54.793,73.562,54.793"/>
<path fill="#A3A0AB" d="M77.877,49.991h2.089v0.827h-2.089v2.544c0,0.276,0.022,0.504,0.064,0.684
	c0.042,0.182,0.106,0.322,0.19,0.425c0.085,0.103,0.191,0.175,0.318,0.217c0.127,0.043,0.276,0.063,0.446,0.063
	c0.296,0,0.535-0.032,0.715-0.1c0.181-0.067,0.306-0.115,0.377-0.144l0.19,0.816c-0.099,0.05-0.272,0.111-0.52,0.186
	c-0.248,0.074-0.53,0.111-0.848,0.111c-0.375,0-0.684-0.048-0.928-0.144c-0.243-0.096-0.44-0.238-0.588-0.429
	s-0.252-0.426-0.312-0.705s-0.09-0.603-0.09-0.971v-4.919l0.985-0.17V49.991z"/>
<path fill="#A3A0AB" d="M83.2,50.001c0.085,0,0.182,0.005,0.292,0.016c0.11,0.011,0.217,0.024,0.323,0.042
	c0.106,0.019,0.204,0.035,0.292,0.054c0.089,0.018,0.154,0.033,0.196,0.048l-0.169,0.858c-0.078-0.028-0.208-0.062-0.388-0.101
	c-0.18-0.039-0.412-0.059-0.694-0.059c-0.184,0-0.365,0.02-0.546,0.059c-0.18,0.038-0.299,0.065-0.355,0.078v4.635h-0.985v-5.28
	c0.233-0.085,0.522-0.164,0.869-0.238C82.38,50.039,82.769,50.001,83.2,50.001"/>
<path fill="#A3A0AB" d="M89.593,55.355c-0.227,0.058-0.525,0.117-0.896,0.181s-0.8,0.096-1.288,0.096
	c-0.424,0-0.781-0.062-1.071-0.186c-0.29-0.124-0.522-0.299-0.7-0.525c-0.176-0.226-0.304-0.492-0.382-0.8
	c-0.078-0.309-0.116-0.648-0.116-1.023v-3.096h0.986v2.884c0,0.672,0.106,1.152,0.318,1.441c0.213,0.29,0.569,0.435,1.071,0.435
	c0.106,0,0.216-0.003,0.329-0.01c0.112-0.007,0.219-0.017,0.317-0.027c0.1-0.011,0.19-0.021,0.271-0.031s0.139-0.022,0.175-0.037
	v-4.654h0.986V55.355z"/>
<path fill="#A3A0AB" d="M93.23,52.599c0.212,0.162,0.437,0.364,0.673,0.604c0.238,0.241,0.471,0.5,0.7,0.78
	c0.229,0.279,0.447,0.562,0.652,0.848s0.378,0.553,0.52,0.801h-1.156c-0.148-0.248-0.32-0.5-0.514-0.759
	c-0.194-0.257-0.397-0.505-0.609-0.742c-0.212-0.236-0.428-0.454-0.647-0.651c-0.219-0.198-0.428-0.364-0.625-0.499v2.651h-0.986
	v-8.059l0.986-0.17v5.026l0.562-0.562c0.205-0.204,0.406-0.413,0.604-0.626c0.197-0.211,0.385-0.414,0.562-0.608
	c0.176-0.194,0.329-0.366,0.456-0.515h1.155c-0.163,0.177-0.339,0.371-0.53,0.583c-0.191,0.212-0.389,0.426-0.593,0.643
	c-0.206,0.215-0.412,0.431-0.621,0.646C93.609,52.205,93.414,52.408,93.23,52.599"/>
<path fill="#A3A0AB" d="M97.641,49.991h2.089v0.827h-2.089v2.544c0,0.276,0.022,0.504,0.064,0.684
	c0.042,0.182,0.106,0.322,0.19,0.425c0.085,0.103,0.191,0.175,0.318,0.217c0.127,0.043,0.276,0.063,0.446,0.063
	c0.296,0,0.535-0.032,0.716-0.1c0.18-0.067,0.305-0.115,0.376-0.144l0.19,0.816c-0.099,0.05-0.272,0.111-0.52,0.186
	s-0.53,0.111-0.848,0.111c-0.375,0-0.684-0.048-0.927-0.144c-0.244-0.096-0.44-0.238-0.589-0.429
	c-0.148-0.19-0.252-0.426-0.312-0.705c-0.061-0.279-0.09-0.603-0.09-0.971v-4.919l0.985-0.17V49.991z"/>
<path fill="#A3A0AB" d="M105.317,55.355c-0.226,0.058-0.525,0.117-0.896,0.181c-0.372,0.063-0.801,0.096-1.289,0.096
	c-0.424,0-0.781-0.062-1.071-0.186c-0.289-0.124-0.522-0.299-0.7-0.525c-0.176-0.226-0.304-0.492-0.381-0.8
	c-0.078-0.309-0.117-0.648-0.117-1.023v-3.096h0.986v2.884c0,0.672,0.106,1.152,0.318,1.441c0.213,0.29,0.569,0.435,1.071,0.435
	c0.106,0,0.216-0.003,0.329-0.01s0.219-0.017,0.317-0.027c0.1-0.011,0.19-0.021,0.271-0.031c0.082-0.011,0.14-0.022,0.175-0.037
	v-4.654h0.986V55.355z"/>
<path fill="#A3A0AB" d="M108.996,50.001c0.085,0,0.182,0.005,0.292,0.016c0.11,0.011,0.217,0.024,0.323,0.042
	c0.107,0.019,0.204,0.035,0.292,0.054c0.089,0.018,0.154,0.033,0.196,0.048l-0.169,0.858c-0.078-0.028-0.207-0.062-0.387-0.101
	c-0.18-0.039-0.412-0.059-0.695-0.059c-0.184,0-0.365,0.02-0.546,0.059c-0.18,0.038-0.298,0.065-0.355,0.078v4.635h-0.986v-5.28
	c0.233-0.085,0.522-0.164,0.869-0.238C108.176,50.039,108.565,50.001,108.996,50.001"/>
<path fill="#A3A0AB" d="M112.781,49.874c0.396,0,0.73,0.052,1.002,0.154c0.271,0.103,0.491,0.247,0.657,0.435
	c0.166,0.187,0.285,0.41,0.355,0.668c0.071,0.258,0.106,0.543,0.106,0.854v3.446c-0.085,0.014-0.203,0.033-0.355,0.059
	c-0.152,0.024-0.323,0.047-0.514,0.068s-0.397,0.04-0.621,0.058c-0.222,0.018-0.443,0.027-0.663,0.027
	c-0.311,0-0.597-0.032-0.858-0.096c-0.263-0.063-0.488-0.164-0.679-0.302c-0.191-0.138-0.34-0.32-0.446-0.546
	c-0.106-0.227-0.159-0.499-0.159-0.816c0-0.305,0.062-0.566,0.186-0.785c0.123-0.219,0.292-0.396,0.504-0.529
	c0.211-0.135,0.458-0.234,0.742-0.298c0.282-0.063,0.579-0.096,0.891-0.096c0.099,0,0.201,0.006,0.307,0.017
	s0.208,0.025,0.302,0.042c0.096,0.019,0.179,0.034,0.249,0.048c0.071,0.015,0.121,0.025,0.149,0.031v-0.275
	c0-0.163-0.019-0.323-0.053-0.482c-0.036-0.158-0.099-0.3-0.19-0.424c-0.092-0.124-0.217-0.223-0.377-0.297
	c-0.159-0.074-0.366-0.111-0.621-0.111c-0.325,0-0.609,0.023-0.853,0.068c-0.245,0.047-0.426,0.095-0.546,0.144l-0.117-0.815
	c0.127-0.058,0.339-0.112,0.636-0.165S112.435,49.874,112.781,49.874 M112.866,54.815c0.233,0,0.44-0.006,0.62-0.017
	c0.181-0.011,0.331-0.029,0.451-0.058v-1.644c-0.071-0.035-0.186-0.065-0.345-0.09c-0.159-0.025-0.352-0.038-0.578-0.038
	c-0.148,0-0.306,0.012-0.472,0.032c-0.167,0.021-0.318,0.065-0.457,0.133c-0.137,0.067-0.252,0.158-0.345,0.275
	c-0.092,0.117-0.137,0.271-0.137,0.462c0,0.354,0.112,0.599,0.339,0.736C112.169,54.746,112.477,54.815,112.866,54.815"/>
<path fill="#A3A0AB" d="M119.365,49.122c-0.176,0-0.327-0.06-0.45-0.175c-0.124-0.118-0.186-0.274-0.186-0.473
	s0.062-0.355,0.186-0.472s0.274-0.175,0.45-0.175c0.177,0,0.328,0.059,0.451,0.175s0.186,0.273,0.186,0.472
	s-0.062,0.354-0.186,0.473C119.692,49.062,119.542,49.122,119.365,49.122 M119.864,55.631h-0.986v-5.513h0.986V55.631z"/>
<path fill="#A3A0AB" d="M125.673,54.741c1.074,0,1.612-0.368,1.612-1.103c0-0.228-0.048-0.42-0.144-0.578
	c-0.095-0.159-0.224-0.297-0.387-0.413c-0.162-0.117-0.348-0.218-0.556-0.303c-0.208-0.085-0.429-0.17-0.663-0.254
	c-0.27-0.093-0.523-0.196-0.764-0.312c-0.24-0.117-0.448-0.256-0.625-0.415c-0.177-0.158-0.316-0.348-0.419-0.566
	s-0.154-0.484-0.154-0.795c0-0.644,0.219-1.146,0.657-1.506c0.438-0.36,1.043-0.541,1.813-0.541c0.445,0,0.85,0.048,1.213,0.144
	c0.365,0.095,0.631,0.2,0.801,0.312l-0.329,0.838c-0.149-0.092-0.37-0.183-0.663-0.271c-0.293-0.088-0.635-0.133-1.023-0.133
	c-0.198,0-0.381,0.021-0.552,0.063c-0.169,0.043-0.317,0.106-0.445,0.191c-0.127,0.084-0.228,0.192-0.302,0.323
	s-0.111,0.284-0.111,0.461c0,0.198,0.038,0.363,0.116,0.498s0.188,0.254,0.329,0.355c0.142,0.103,0.307,0.196,0.493,0.281
	c0.188,0.085,0.394,0.17,0.62,0.254c0.319,0.128,0.61,0.255,0.875,0.382c0.265,0.128,0.495,0.279,0.689,0.456
	c0.195,0.177,0.345,0.387,0.451,0.631c0.106,0.244,0.16,0.54,0.16,0.886c0,0.643-0.236,1.138-0.706,1.484
	c-0.47,0.347-1.133,0.52-1.988,0.52c-0.29,0-0.556-0.02-0.8-0.058c-0.244-0.04-0.461-0.085-0.652-0.139
	c-0.191-0.053-0.355-0.109-0.494-0.171c-0.137-0.059-0.246-0.11-0.323-0.152l0.308-0.848c0.163,0.091,0.41,0.194,0.742,0.307
	C124.787,54.684,125.193,54.741,125.673,54.741 M127.264,46.375l-1.495,1.453l-0.499-0.445l1.357-1.633L127.264,46.375z"/>
<path fill="#A3A0AB" d="M131.526,50.001c0.085,0,0.182,0.005,0.292,0.016c0.11,0.011,0.217,0.024,0.323,0.042
	c0.107,0.019,0.204,0.035,0.292,0.054c0.089,0.018,0.154,0.033,0.196,0.048l-0.169,0.858c-0.078-0.028-0.208-0.062-0.388-0.101
	c-0.18-0.039-0.412-0.059-0.694-0.059c-0.184,0-0.365,0.02-0.546,0.059c-0.18,0.038-0.299,0.065-0.355,0.078v4.635h-0.985v-5.28
	c0.233-0.085,0.522-0.164,0.869-0.238C130.706,50.039,131.095,50.001,131.526,50.001"/>
<path fill="#A3A0AB" d="M138.396,52.747c0,0.438-0.063,0.835-0.19,1.188c-0.127,0.354-0.307,0.658-0.536,0.912
	c-0.229,0.255-0.504,0.451-0.822,0.589c-0.317,0.138-0.664,0.207-1.039,0.207c-0.375,0-0.721-0.069-1.039-0.207
	c-0.318-0.138-0.592-0.334-0.822-0.589c-0.229-0.254-0.408-0.559-0.535-0.912c-0.127-0.353-0.191-0.749-0.191-1.188
	c0-0.431,0.064-0.825,0.191-1.182c0.127-0.357,0.306-0.662,0.535-0.918c0.23-0.254,0.504-0.449,0.822-0.588
	c0.318-0.137,0.664-0.207,1.039-0.207c0.375,0,0.721,0.07,1.039,0.207c0.318,0.139,0.593,0.334,0.822,0.588
	c0.229,0.256,0.408,0.561,0.536,0.918C138.333,51.921,138.396,52.316,138.396,52.747 M137.368,52.747
	c0-0.621-0.139-1.114-0.418-1.479c-0.279-0.363-0.659-0.546-1.14-0.546s-0.86,0.183-1.14,0.546
	c-0.279,0.364-0.418,0.857-0.418,1.479c0,0.622,0.139,1.116,0.418,1.48c0.28,0.363,0.659,0.546,1.14,0.546s0.861-0.183,1.14-0.546
	C137.229,53.863,137.368,53.369,137.368,52.747"/>
<path fill="#A3A0AB" d="M143.295,47.446l0.986-0.169v8.067c-0.227,0.064-0.516,0.128-0.87,0.19c-0.354,0.064-0.76,0.097-1.22,0.097
	c-0.424,0-0.806-0.067-1.145-0.201c-0.339-0.134-0.629-0.325-0.869-0.572c-0.24-0.248-0.426-0.551-0.556-0.907
	c-0.131-0.356-0.197-0.758-0.197-1.204c0-0.423,0.055-0.812,0.165-1.166c0.109-0.353,0.27-0.657,0.482-0.911
	c0.212-0.255,0.472-0.453,0.779-0.594c0.307-0.142,0.658-0.213,1.055-0.213c0.317,0,0.599,0.043,0.843,0.128
	c0.244,0.085,0.425,0.166,0.546,0.244V47.446z M143.295,51.157c-0.121-0.099-0.293-0.194-0.52-0.286s-0.474-0.139-0.742-0.139
	c-0.283,0-0.524,0.052-0.726,0.154c-0.203,0.104-0.367,0.244-0.494,0.425c-0.127,0.18-0.219,0.394-0.276,0.641
	c-0.057,0.248-0.085,0.513-0.085,0.795c0,0.645,0.159,1.14,0.478,1.49c0.317,0.351,0.741,0.524,1.271,0.524
	c0.269,0,0.493-0.012,0.674-0.037c0.18-0.023,0.32-0.051,0.418-0.079V51.157z"/>
<path fill="#A3A0AB" d="M150.791,52.747c0,0.438-0.063,0.835-0.19,1.188c-0.127,0.354-0.306,0.658-0.536,0.912
	c-0.229,0.255-0.503,0.451-0.822,0.589c-0.317,0.138-0.664,0.207-1.039,0.207c-0.375,0-0.721-0.069-1.039-0.207
	s-0.592-0.334-0.822-0.589c-0.229-0.254-0.408-0.559-0.535-0.912c-0.127-0.353-0.191-0.749-0.191-1.188
	c0-0.431,0.064-0.825,0.191-1.182c0.127-0.357,0.306-0.662,0.535-0.918c0.23-0.254,0.504-0.449,0.822-0.588
	c0.318-0.137,0.664-0.207,1.039-0.207c0.375,0,0.721,0.07,1.039,0.207c0.318,0.139,0.592,0.334,0.822,0.588
	c0.229,0.256,0.409,0.561,0.536,0.918C150.728,51.921,150.791,52.316,150.791,52.747 M149.762,52.747
	c0-0.621-0.139-1.114-0.418-1.479c-0.279-0.363-0.659-0.546-1.14-0.546s-0.861,0.183-1.14,0.546
	c-0.279,0.364-0.419,0.857-0.419,1.479c0,0.622,0.14,1.116,0.419,1.48c0.279,0.363,0.659,0.546,1.14,0.546s0.861-0.183,1.14-0.546
	C149.623,53.863,149.762,53.369,149.762,52.747"/>
<path fill="#A3A0AB" d="M156.495,55.631c-0.197-0.509-0.408-1.091-0.631-1.745c-0.222-0.653-0.425-1.333-0.61-2.04
	c-0.183,0.707-0.384,1.387-0.604,2.04c-0.219,0.654-0.428,1.236-0.625,1.745h-0.859c-0.325-0.728-0.643-1.559-0.955-2.492
	c-0.311-0.933-0.604-1.939-0.879-3.021h1.06c0.071,0.332,0.156,0.693,0.255,1.082c0.099,0.388,0.203,0.777,0.312,1.166
	c0.109,0.389,0.224,0.764,0.344,1.124c0.121,0.359,0.233,0.675,0.34,0.942c0.12-0.331,0.238-0.683,0.355-1.054
	c0.116-0.371,0.227-0.746,0.333-1.124c0.106-0.378,0.207-0.749,0.302-1.113s0.179-0.705,0.249-1.023h0.816
	c0.064,0.318,0.141,0.659,0.233,1.023c0.092,0.364,0.191,0.735,0.297,1.113s0.217,0.753,0.333,1.124
	c0.117,0.371,0.236,0.723,0.355,1.054c0.106-0.268,0.217-0.583,0.334-0.942c0.117-0.36,0.232-0.735,0.345-1.124
	c0.112-0.389,0.219-0.778,0.318-1.166c0.099-0.389,0.184-0.75,0.254-1.082h1.018c-0.275,1.082-0.569,2.089-0.88,3.021
	c-0.312,0.934-0.629,1.765-0.955,2.492H156.495z"/>
<path fill="#A3A0AB" d="M160.663,49.122c-0.177,0-0.327-0.06-0.451-0.175c-0.123-0.118-0.186-0.274-0.186-0.473
	s0.062-0.355,0.186-0.472c0.124-0.116,0.274-0.175,0.451-0.175c0.176,0,0.328,0.059,0.451,0.175
	c0.124,0.116,0.186,0.273,0.186,0.472s-0.062,0.354-0.186,0.473C160.99,49.062,160.839,49.122,160.663,49.122 M161.161,55.631
	h-0.986v-5.513h0.986V55.631z"/>
<path fill="#A3A0AB" d="M164.087,54.793c0.403,0,0.702-0.053,0.896-0.159c0.194-0.105,0.292-0.275,0.292-0.509
	c0-0.24-0.095-0.431-0.286-0.573c-0.19-0.141-0.505-0.3-0.943-0.477c-0.212-0.085-0.415-0.171-0.61-0.26
	c-0.194-0.088-0.362-0.192-0.503-0.312s-0.254-0.266-0.339-0.436c-0.084-0.169-0.128-0.377-0.128-0.625
	c0-0.487,0.181-0.875,0.542-1.16c0.36-0.287,0.852-0.43,1.474-0.43c0.155,0,0.311,0.008,0.466,0.026
	c0.156,0.018,0.3,0.039,0.435,0.063c0.134,0.024,0.252,0.052,0.355,0.079c0.103,0.028,0.182,0.054,0.238,0.074l-0.181,0.849
	c-0.106-0.057-0.272-0.114-0.498-0.176c-0.227-0.06-0.498-0.09-0.816-0.09c-0.276,0-0.516,0.055-0.722,0.164
	c-0.205,0.11-0.307,0.281-0.307,0.515c0,0.12,0.022,0.227,0.069,0.318c0.045,0.092,0.116,0.175,0.212,0.249
	c0.095,0.074,0.213,0.143,0.354,0.207c0.142,0.063,0.312,0.131,0.51,0.202c0.262,0.098,0.495,0.196,0.699,0.29
	c0.205,0.097,0.38,0.207,0.525,0.335c0.145,0.127,0.256,0.28,0.334,0.461c0.078,0.18,0.117,0.401,0.117,0.663
	c0,0.509-0.188,0.895-0.567,1.155c-0.378,0.262-0.917,0.393-1.618,0.393c-0.487,0-0.869-0.041-1.145-0.122
	c-0.276-0.082-0.463-0.143-0.562-0.186l0.18-0.849c0.113,0.043,0.293,0.106,0.541,0.191
	C163.349,54.75,163.677,54.793,164.087,54.793"/>
<path fill="#A3A0AB" d="M169.473,52.599c0.212,0.162,0.437,0.364,0.673,0.604c0.238,0.241,0.471,0.5,0.7,0.78
	c0.229,0.279,0.447,0.562,0.652,0.848c0.205,0.286,0.378,0.553,0.52,0.801h-1.156c-0.148-0.248-0.32-0.5-0.514-0.759
	c-0.194-0.257-0.397-0.505-0.609-0.742c-0.212-0.236-0.428-0.454-0.646-0.651c-0.219-0.198-0.428-0.364-0.626-0.499v2.651h-0.986
	v-8.059l0.986-0.17v5.026l0.562-0.562c0.206-0.204,0.406-0.413,0.604-0.626c0.197-0.211,0.385-0.414,0.562-0.608
	c0.176-0.194,0.329-0.366,0.456-0.515h1.155c-0.163,0.177-0.339,0.371-0.529,0.583c-0.191,0.212-0.389,0.426-0.594,0.643
	c-0.206,0.215-0.412,0.431-0.621,0.646C169.853,52.205,169.657,52.408,169.473,52.599"/>
<path fill="#A3A0AB" d="M177.52,52.747c0,0.438-0.063,0.835-0.19,1.188c-0.127,0.354-0.307,0.658-0.536,0.912
	c-0.229,0.255-0.504,0.451-0.822,0.589c-0.317,0.138-0.665,0.207-1.039,0.207c-0.375,0-0.721-0.069-1.04-0.207
	c-0.318-0.138-0.592-0.334-0.822-0.589c-0.229-0.254-0.407-0.559-0.535-0.912c-0.127-0.353-0.191-0.749-0.191-1.188
	c0-0.431,0.064-0.825,0.191-1.182c0.127-0.357,0.306-0.662,0.535-0.918c0.23-0.254,0.504-0.449,0.822-0.588
	c0.319-0.137,0.664-0.207,1.04-0.207c0.374,0,0.721,0.07,1.039,0.207c0.318,0.139,0.592,0.334,0.822,0.588
	c0.229,0.256,0.409,0.561,0.536,0.918C177.457,51.921,177.52,52.316,177.52,52.747 M176.492,52.747c0-0.621-0.139-1.114-0.418-1.479
	c-0.279-0.363-0.659-0.546-1.14-0.546s-0.861,0.183-1.141,0.546c-0.279,0.364-0.418,0.857-0.418,1.479
	c0,0.622,0.139,1.116,0.418,1.48c0.28,0.363,0.66,0.546,1.141,0.546s0.86-0.183,1.14-0.546
	C176.353,53.863,176.492,53.369,176.492,52.747"/>
<g>
	<path fill="#A3A0AB" d="M418.083,55.692h-63.22v-40.96h63.22V55.692z M419.864,12.952h-66.782v44.521h66.782V12.952z"/>
	<polygon fill="#A3A0AB" points="385.05,22.656 386.462,21.626 387.87,22.656 387.332,20.993 388.765,19.964 387,19.964 
		386.462,18.282 385.924,19.964 384.154,19.964 385.583,20.993 	"/>
	<polygon fill="#A3A0AB" points="377.756,24.612 379.169,23.583 380.576,24.612 380.039,22.951 381.471,21.921 379.706,21.921 
		379.166,20.234 378.627,21.925 376.866,21.921 378.295,22.951 	"/>
	<polygon fill="#A3A0AB" points="373.829,25.584 373.29,27.273 371.526,27.269 372.955,28.298 372.421,29.961 373.829,28.935 
		375.241,29.961 374.704,28.298 376.138,27.269 374.371,27.269 	"/>
	<polygon fill="#A3A0AB" points="371.876,36.21 373.279,37.245 372.745,35.582 374.179,34.553 372.414,34.553 371.876,32.866 
		371.329,34.557 369.567,34.553 370.996,35.582 370.464,37.245 	"/>
	<polygon fill="#A3A0AB" points="374.371,41.857 373.828,40.173 373.291,41.857 371.525,41.857 372.954,42.89 372.421,44.548 
		373.828,43.518 375.24,44.548 374.704,42.89 376.136,41.857 	"/>
	<polygon fill="#A3A0AB" points="379.715,47.203 379.176,45.52 378.633,47.208 376.869,47.203 378.302,48.233 377.768,49.894 
		379.176,48.865 380.589,49.894 380.051,48.233 381.484,47.203 	"/>
	<polygon fill="#A3A0AB" points="387,49.139 386.462,47.453 385.923,49.139 384.154,49.139 385.587,50.167 385.049,51.832 
		386.462,50.801 387.873,51.832 387.331,50.167 388.769,49.139 	"/>
	<polygon fill="#A3A0AB" points="394.284,47.203 393.741,45.52 393.199,47.208 391.442,47.203 392.868,48.233 392.334,49.894 
		393.741,48.865 395.154,49.894 394.616,48.233 396.054,47.203 	"/>
	<polygon fill="#A3A0AB" points="399.632,41.857 399.09,40.173 398.553,41.857 396.79,41.857 398.22,42.89 397.678,44.548 
		399.09,43.518 400.501,44.548 399.964,42.89 401.397,41.857 	"/>
	<polygon fill="#A3A0AB" points="403.33,34.532 401.564,34.532 401.03,32.845 400.484,34.532 398.726,34.532 400.156,35.561 
		399.614,37.223 401.03,36.194 402.438,37.223 401.901,35.561 	"/>
	<polygon fill="#A3A0AB" points="397.678,29.936 399.091,28.912 400.503,29.936 399.964,28.274 401.398,27.25 399.633,27.25 
		399.091,25.559 398.553,27.254 396.792,27.25 398.221,28.274 	"/>
	<polygon fill="#A3A0AB" points="393.763,20.234 393.23,21.925 391.46,21.921 392.894,22.951 392.359,24.616 393.772,23.582 
		395.175,24.616 394.642,22.951 396.07,21.921 394.306,21.921 	"/>
	<polygon fill="#A3A0AB" points="248.291,41.933 248.291,34.584 252.775,34.584 252.775,35.465 249.319,35.465 249.319,37.65 
		252.395,37.65 252.395,38.508 249.319,38.508 249.319,41.053 253.041,41.053 253.041,41.933 	"/>
	<path fill="#A3A0AB" d="M258.416,41.657c-0.227,0.058-0.524,0.117-0.896,0.181s-0.8,0.096-1.288,0.096
		c-0.424,0-0.781-0.062-1.071-0.186s-0.522-0.298-0.7-0.524c-0.176-0.227-0.303-0.493-0.381-0.801s-0.117-0.648-0.117-1.022v-3.097
		h0.986v2.884c0,0.672,0.105,1.152,0.318,1.442c0.212,0.289,0.569,0.435,1.07,0.435c0.106,0,0.216-0.003,0.329-0.011
		c0.113-0.007,0.22-0.017,0.318-0.027c0.099-0.01,0.188-0.021,0.271-0.031c0.081-0.01,0.139-0.022,0.174-0.037v-4.654h0.986V41.657z
		"/>
	<path fill="#A3A0AB" d="M262.096,36.303c0.084,0,0.182,0.006,0.291,0.016c0.109,0.011,0.218,0.025,0.324,0.043
		c0.105,0.018,0.203,0.035,0.291,0.053s0.154,0.033,0.196,0.048l-0.17,0.858c-0.077-0.028-0.206-0.062-0.388-0.101
		c-0.18-0.038-0.411-0.059-0.693-0.059c-0.185,0-0.367,0.021-0.546,0.059c-0.181,0.038-0.3,0.065-0.355,0.079v4.634h-0.985v-5.28
		c0.232-0.085,0.522-0.165,0.868-0.238C261.275,36.34,261.664,36.303,262.096,36.303"/>
	<path fill="#A3A0AB" d="M268.967,39.049c0,0.438-0.064,0.834-0.191,1.187c-0.128,0.354-0.306,0.659-0.536,0.913
		c-0.229,0.254-0.503,0.45-0.821,0.587c-0.318,0.14-0.664,0.208-1.039,0.208s-0.721-0.068-1.039-0.208
		c-0.318-0.137-0.593-0.333-0.821-0.587c-0.23-0.254-0.409-0.56-0.536-0.913c-0.127-0.353-0.191-0.749-0.191-1.187
		c0-0.432,0.064-0.825,0.191-1.183s0.306-0.662,0.536-0.917c0.229-0.254,0.503-0.45,0.821-0.589
		c0.318-0.137,0.664-0.206,1.039-0.206s0.721,0.069,1.039,0.206c0.318,0.139,0.592,0.335,0.821,0.589
		c0.23,0.255,0.408,0.56,0.536,0.917C268.902,38.224,268.967,38.618,268.967,39.049 M267.938,39.049c0-0.622-0.14-1.115-0.419-1.479
		c-0.278-0.365-0.659-0.546-1.14-0.546c-0.481,0-0.86,0.181-1.141,0.546c-0.278,0.363-0.418,0.856-0.418,1.479
		s0.14,1.115,0.418,1.479c0.28,0.364,0.659,0.545,1.141,0.545c0.48,0,0.861-0.181,1.14-0.545
		C267.798,40.165,267.938,39.671,267.938,39.049"/>
	<path fill="#A3A0AB" d="M275.158,39.187c0,0.417-0.055,0.803-0.165,1.156c-0.108,0.354-0.271,0.657-0.482,0.911
		c-0.212,0.255-0.472,0.452-0.778,0.594c-0.309,0.142-0.66,0.212-1.055,0.212c-0.318,0-0.6-0.043-0.844-0.127
		c-0.244-0.085-0.426-0.166-0.546-0.244v2.206h-0.985v-7.306c0.232-0.057,0.523-0.118,0.873-0.186
		c0.352-0.067,0.756-0.101,1.215-0.101c0.424,0,0.807,0.066,1.145,0.201c0.34,0.134,0.629,0.325,0.869,0.572
		c0.241,0.248,0.427,0.55,0.558,0.906C275.094,38.34,275.158,38.742,275.158,39.187 M274.129,39.187
		c0-0.643-0.158-1.138-0.477-1.484s-0.742-0.52-1.272-0.52c-0.296,0-0.528,0.011-0.694,0.032c-0.166,0.021-0.299,0.046-0.397,0.074
		v3.478c0.12,0.099,0.293,0.194,0.519,0.286c0.227,0.092,0.475,0.138,0.742,0.138c0.283,0,0.525-0.052,0.727-0.154
		c0.202-0.103,0.366-0.244,0.493-0.423c0.128-0.182,0.22-0.393,0.276-0.637S274.129,39.47,274.129,39.187"/>
	<path fill="#A3A0AB" d="M276.186,39.059c0-0.487,0.071-0.913,0.213-1.277c0.141-0.363,0.328-0.666,0.562-0.906
		s0.502-0.42,0.806-0.541c0.305-0.12,0.615-0.18,0.934-0.18c0.742,0,1.312,0.231,1.707,0.694c0.396,0.463,0.594,1.168,0.594,2.115
		v0.165c0,0.066-0.004,0.128-0.01,0.186h-3.775c0.043,0.572,0.208,1.006,0.498,1.304c0.289,0.296,0.742,0.445,1.357,0.445
		c0.346,0,0.639-0.03,0.875-0.091c0.236-0.06,0.414-0.118,0.535-0.175l0.138,0.827c-0.12,0.064-0.331,0.131-0.631,0.201
		c-0.301,0.071-0.642,0.106-1.023,0.106c-0.479,0-0.896-0.073-1.245-0.217c-0.35-0.146-0.639-0.345-0.865-0.6
		c-0.225-0.255-0.395-0.557-0.503-0.906C276.24,39.861,276.186,39.477,276.186,39.059 M279.971,38.519
		c0.008-0.445-0.104-0.811-0.333-1.098c-0.23-0.286-0.546-0.43-0.949-0.43c-0.227,0-0.427,0.045-0.599,0.133
		c-0.174,0.089-0.32,0.203-0.439,0.345c-0.121,0.142-0.215,0.304-0.281,0.487c-0.068,0.185-0.111,0.371-0.133,0.562H279.971z"/>
	<path fill="#A3A0AB" d="M281.467,43.916c-0.085,0-0.195-0.01-0.329-0.031s-0.247-0.05-0.339-0.085l0.127-0.806
		c0.07,0.021,0.152,0.038,0.243,0.053c0.093,0.015,0.177,0.021,0.255,0.021c0.34,0,0.581-0.104,0.727-0.313
		c0.145-0.208,0.217-0.514,0.217-0.916v-5.419h0.986v5.407c0,0.707-0.16,1.232-0.482,1.574
		C282.549,43.745,282.081,43.916,281.467,43.916 M282.855,35.422c-0.177,0-0.328-0.058-0.45-0.174
		c-0.124-0.116-0.187-0.274-0.187-0.472c0-0.199,0.062-0.355,0.187-0.473c0.122-0.116,0.273-0.175,0.45-0.175
		s0.326,0.059,0.45,0.175c0.123,0.117,0.185,0.273,0.185,0.473c0,0.197-0.062,0.355-0.185,0.472
		C283.182,35.365,283.032,35.422,282.855,35.422"/>
	<path fill="#A3A0AB" d="M286.28,41.095c0.401,0,0.701-0.053,0.896-0.158c0.195-0.106,0.291-0.275,0.291-0.51
		c0-0.24-0.095-0.431-0.285-0.572c-0.191-0.141-0.506-0.3-0.944-0.478c-0.212-0.085-0.415-0.171-0.61-0.259
		c-0.193-0.089-0.361-0.192-0.503-0.312c-0.142-0.121-0.255-0.266-0.339-0.436c-0.085-0.17-0.128-0.378-0.128-0.625
		c0-0.488,0.181-0.875,0.542-1.161c0.359-0.287,0.852-0.43,1.473-0.43c0.156,0,0.311,0.009,0.467,0.026
		c0.155,0.019,0.301,0.039,0.435,0.063c0.134,0.025,0.253,0.051,0.355,0.08c0.103,0.028,0.183,0.053,0.238,0.073l-0.181,0.849
		c-0.105-0.057-0.271-0.114-0.498-0.175c-0.226-0.061-0.498-0.09-0.816-0.09c-0.275,0-0.516,0.055-0.721,0.164
		c-0.205,0.11-0.308,0.281-0.308,0.515c0,0.12,0.022,0.226,0.069,0.317c0.046,0.092,0.117,0.175,0.212,0.249
		s0.214,0.144,0.355,0.207s0.311,0.132,0.508,0.202c0.263,0.099,0.495,0.195,0.7,0.291s0.381,0.207,0.524,0.334
		c0.146,0.128,0.257,0.281,0.335,0.461c0.077,0.181,0.117,0.401,0.117,0.663c0,0.509-0.189,0.895-0.568,1.155
		c-0.377,0.262-0.917,0.393-1.616,0.393c-0.487,0-0.87-0.04-1.146-0.122c-0.275-0.081-0.463-0.144-0.562-0.186l0.181-0.848
		c0.112,0.042,0.292,0.105,0.54,0.19C285.541,41.053,285.871,41.095,286.28,41.095"/>
	<path fill="#A3A0AB" d="M291.666,38.901c0.212,0.162,0.438,0.364,0.673,0.604c0.237,0.24,0.471,0.499,0.7,0.779
		c0.229,0.279,0.447,0.562,0.652,0.848c0.204,0.287,0.378,0.554,0.52,0.801h-1.156c-0.148-0.247-0.32-0.5-0.514-0.758
		c-0.195-0.259-0.398-0.506-0.609-0.742c-0.213-0.237-0.428-0.454-0.646-0.652c-0.22-0.198-0.429-0.364-0.626-0.499v2.651h-0.986
		v-8.059l0.986-0.169v5.025c0.169-0.169,0.356-0.356,0.562-0.562s0.406-0.414,0.604-0.626c0.199-0.212,0.387-0.415,0.562-0.609
		c0.177-0.194,0.329-0.366,0.456-0.515h1.155c-0.162,0.177-0.339,0.371-0.529,0.583c-0.191,0.213-0.389,0.426-0.594,0.642
		c-0.206,0.216-0.412,0.432-0.621,0.646C292.046,38.506,291.85,38.709,291.666,38.901"/>
	<path fill="#A3A0AB" d="M295.643,35.423c-0.178,0-0.327-0.059-0.451-0.176c-0.123-0.116-0.186-0.273-0.186-0.472
		c0-0.197,0.062-0.354,0.186-0.471c0.124-0.117,0.273-0.176,0.451-0.176c0.176,0,0.326,0.059,0.451,0.176
		c0.123,0.116,0.184,0.273,0.184,0.471c0,0.198-0.061,0.355-0.184,0.472C295.969,35.365,295.818,35.423,295.643,35.423
		 M296.141,41.933h-0.986v-5.514h0.986V41.933z"/>
	<polygon fill="#A3A0AB" points="300.243,41.933 300.243,34.584 304.676,34.584 304.676,35.465 301.271,35.465 301.271,37.681 
		304.293,37.681 304.293,38.551 301.271,38.551 301.271,41.933 	"/>
	<path fill="#A3A0AB" d="M309.945,41.657c-0.227,0.058-0.525,0.117-0.896,0.181s-0.801,0.096-1.288,0.096
		c-0.424,0-0.782-0.062-1.071-0.186c-0.29-0.124-0.522-0.298-0.699-0.524s-0.305-0.493-0.382-0.801
		c-0.078-0.308-0.116-0.648-0.116-1.022v-3.097h0.986v2.884c0,0.672,0.105,1.152,0.317,1.442c0.213,0.289,0.569,0.435,1.071,0.435
		c0.105,0,0.215-0.003,0.328-0.011c0.113-0.007,0.219-0.017,0.318-0.027c0.099-0.01,0.189-0.021,0.271-0.031
		c0.081-0.01,0.14-0.022,0.175-0.037v-4.654h0.986V41.657z"/>
	<path fill="#A3A0AB" d="M311.588,36.579c0.227-0.057,0.527-0.116,0.901-0.18c0.374-0.064,0.806-0.096,1.294-0.096
		c0.438,0,0.802,0.062,1.092,0.185c0.29,0.125,0.521,0.298,0.694,0.521c0.174,0.223,0.296,0.489,0.366,0.801
		c0.07,0.311,0.105,0.653,0.105,1.028v3.096h-0.986v-2.884c0-0.34-0.023-0.63-0.068-0.87c-0.046-0.24-0.122-0.435-0.229-0.583
		c-0.105-0.147-0.247-0.256-0.424-0.323s-0.396-0.101-0.657-0.101c-0.106,0-0.216,0.004-0.329,0.011
		c-0.111,0.008-0.22,0.016-0.322,0.026s-0.195,0.022-0.275,0.037c-0.082,0.014-0.141,0.025-0.176,0.031v4.655h-0.986V36.579z"/>
	<path fill="#A3A0AB" d="M321.184,33.748l0.985-0.169v8.068c-0.226,0.063-0.516,0.127-0.869,0.19
		c-0.353,0.063-0.76,0.095-1.22,0.095c-0.424,0-0.805-0.066-1.145-0.2c-0.34-0.135-0.629-0.325-0.869-0.572
		c-0.24-0.248-0.426-0.55-0.557-0.907c-0.131-0.356-0.196-0.758-0.196-1.203c0-0.425,0.055-0.813,0.165-1.166
		c0.108-0.354,0.27-0.657,0.481-0.912s0.472-0.452,0.78-0.594c0.307-0.141,0.658-0.213,1.055-0.213c0.317,0,0.599,0.043,0.843,0.128
		c0.243,0.085,0.425,0.166,0.546,0.244V33.748z M321.184,37.458c-0.121-0.099-0.293-0.194-0.52-0.286s-0.475-0.138-0.742-0.138
		c-0.283,0-0.525,0.052-0.727,0.154s-0.366,0.242-0.492,0.424c-0.128,0.18-0.22,0.395-0.276,0.642s-0.085,0.512-0.085,0.795
		c0,0.643,0.158,1.14,0.477,1.489c0.319,0.351,0.742,0.525,1.273,0.525c0.269,0,0.492-0.013,0.673-0.038
		c0.181-0.024,0.319-0.051,0.419-0.079V37.458z"/>
	<path fill="#A3A0AB" d="M328.203,41.657c-0.228,0.058-0.525,0.117-0.896,0.181s-0.8,0.096-1.288,0.096
		c-0.424,0-0.781-0.062-1.071-0.186s-0.523-0.298-0.699-0.524c-0.178-0.227-0.304-0.493-0.382-0.801s-0.117-0.648-0.117-1.022
		v-3.097h0.987v2.884c0,0.672,0.104,1.152,0.316,1.442c0.213,0.289,0.57,0.435,1.071,0.435c0.106,0,0.216-0.003,0.329-0.011
		c0.113-0.007,0.22-0.017,0.318-0.027c0.099-0.01,0.188-0.021,0.27-0.031c0.082-0.01,0.14-0.022,0.176-0.037v-4.654h0.986V41.657z"
		/>
	<path fill="#A3A0AB" d="M331.129,41.095c0.402,0,0.701-0.053,0.896-0.158c0.194-0.106,0.29-0.275,0.29-0.51
		c0-0.24-0.095-0.431-0.285-0.572c-0.191-0.141-0.507-0.3-0.944-0.478c-0.212-0.085-0.415-0.171-0.609-0.259
		c-0.194-0.089-0.362-0.192-0.504-0.312c-0.142-0.121-0.254-0.266-0.339-0.436s-0.128-0.378-0.128-0.625
		c0-0.488,0.181-0.875,0.542-1.161c0.359-0.287,0.851-0.43,1.473-0.43c0.156,0,0.312,0.009,0.467,0.026
		c0.155,0.019,0.301,0.039,0.435,0.063c0.134,0.025,0.253,0.051,0.355,0.08c0.103,0.028,0.182,0.053,0.238,0.073l-0.181,0.849
		c-0.105-0.057-0.271-0.114-0.497-0.175c-0.227-0.061-0.499-0.09-0.817-0.09c-0.275,0-0.516,0.055-0.72,0.164
		c-0.206,0.11-0.309,0.281-0.309,0.515c0,0.12,0.023,0.226,0.069,0.317s0.117,0.175,0.212,0.249
		c0.096,0.074,0.214,0.144,0.355,0.207s0.311,0.132,0.508,0.202c0.263,0.099,0.496,0.195,0.701,0.291s0.379,0.207,0.523,0.334
		c0.146,0.128,0.257,0.281,0.335,0.461c0.077,0.181,0.116,0.401,0.116,0.663c0,0.509-0.188,0.895-0.567,1.155
		c-0.378,0.262-0.917,0.393-1.616,0.393c-0.487,0-0.87-0.04-1.146-0.122c-0.275-0.081-0.463-0.144-0.562-0.186l0.18-0.848
		c0.113,0.042,0.294,0.105,0.541,0.19S330.719,41.095,331.129,41.095"/>
	<path fill="#A3A0AB" d="M338.18,37.162c-0.148,0.163-0.344,0.393-0.588,0.689s-0.506,0.626-0.785,0.986s-0.559,0.738-0.838,1.134
		c-0.279,0.396-0.524,0.774-0.736,1.135h3.032v0.827h-4.21v-0.657c0.17-0.311,0.379-0.653,0.626-1.028s0.507-0.748,0.779-1.119
		s0.537-0.721,0.796-1.049c0.257-0.33,0.481-0.606,0.673-0.833h-2.726v-0.827h3.977V37.162z"/>
	<path fill="#A3A0AB" d="M234.316,51.85c0.112,0.142,0.256,0.327,0.43,0.557c0.172,0.229,0.351,0.484,0.535,0.764
		c0.184,0.278,0.365,0.57,0.545,0.874c0.181,0.305,0.334,0.598,0.462,0.88h-1.124c-0.141-0.268-0.295-0.54-0.461-0.815
		c-0.166-0.276-0.334-0.539-0.503-0.79c-0.171-0.252-0.339-0.486-0.505-0.705s-0.316-0.41-0.449-0.572
		c-0.093,0.006-0.186,0.01-0.282,0.01h-0.29h-0.924v2.873h-1.028v-7.241c0.29-0.07,0.614-0.118,0.97-0.143
		c0.357-0.025,0.685-0.038,0.982-0.038c1.03,0,1.817,0.194,2.357,0.584c0.541,0.389,0.812,0.968,0.812,1.738
		c0,0.487-0.129,0.905-0.387,1.252C235.197,51.422,234.817,51.681,234.316,51.85 M232.758,48.404c-0.438,0-0.775,0.011-1.008,0.032
		v2.768h0.732c0.354,0,0.671-0.018,0.954-0.053c0.282-0.035,0.521-0.104,0.715-0.202s0.345-0.238,0.45-0.419
		c0.107-0.18,0.16-0.419,0.16-0.716c0-0.275-0.053-0.505-0.16-0.688c-0.105-0.184-0.248-0.329-0.428-0.436
		c-0.181-0.105-0.394-0.18-0.637-0.222C233.293,48.425,233.033,48.404,232.758,48.404"/>
	<path fill="#A3A0AB" d="M242.141,52.041c0,0.438-0.062,0.834-0.191,1.188c-0.127,0.354-0.305,0.658-0.534,0.912
		c-0.23,0.255-0.505,0.451-0.821,0.588c-0.319,0.139-0.666,0.207-1.04,0.207s-0.722-0.068-1.039-0.207
		c-0.317-0.137-0.593-0.333-0.821-0.588c-0.229-0.254-0.408-0.559-0.535-0.912c-0.128-0.354-0.191-0.749-0.191-1.188
		c0-0.431,0.063-0.825,0.191-1.183c0.127-0.356,0.306-0.662,0.535-0.917c0.229-0.254,0.504-0.45,0.821-0.588
		s0.665-0.207,1.039-0.207s0.721,0.069,1.04,0.207c0.316,0.138,0.591,0.334,0.821,0.588c0.229,0.255,0.407,0.561,0.534,0.917
		C242.078,51.215,242.141,51.61,242.141,52.041 M241.113,52.041c0-0.621-0.141-1.114-0.42-1.479s-0.659-0.546-1.14-0.546
		s-0.86,0.182-1.14,0.546s-0.42,0.857-0.42,1.479c0,0.622,0.141,1.115,0.42,1.479s0.659,0.546,1.14,0.546s0.86-0.182,1.14-0.546
		S241.113,52.663,241.113,52.041"/>
	<path fill="#A3A0AB" d="M246.922,50.154c-0.147,0.162-0.344,0.393-0.588,0.689c-0.243,0.297-0.505,0.625-0.784,0.986
		c-0.278,0.359-0.559,0.738-0.837,1.134c-0.279,0.396-0.525,0.774-0.737,1.134h3.032v0.827h-4.21v-0.657
		c0.171-0.311,0.378-0.653,0.626-1.028c0.247-0.374,0.507-0.747,0.779-1.118c0.271-0.371,0.537-0.722,0.795-1.05
		c0.258-0.329,0.482-0.605,0.674-0.832h-2.726v-0.827h3.976V50.154z"/>
	<path fill="#A3A0AB" d="M252.712,54.924c-0.198-0.509-0.408-1.09-0.631-1.744c-0.223-0.653-0.427-1.333-0.61-2.04
		c-0.184,0.707-0.385,1.387-0.604,2.04c-0.219,0.654-0.428,1.235-0.625,1.744h-0.859c-0.326-0.728-0.643-1.558-0.955-2.491
		c-0.311-0.933-0.604-1.939-0.879-3.021h1.06c0.07,0.332,0.155,0.693,0.255,1.082c0.1,0.388,0.203,0.777,0.312,1.165
		c0.11,0.389,0.225,0.765,0.345,1.125c0.12,0.359,0.233,0.675,0.339,0.942c0.121-0.332,0.238-0.684,0.355-1.054
		c0.117-0.371,0.229-0.747,0.334-1.124c0.106-0.378,0.207-0.749,0.303-1.114c0.096-0.364,0.178-0.704,0.249-1.022h0.816
		c0.063,0.318,0.142,0.658,0.233,1.022c0.092,0.365,0.191,0.736,0.297,1.114c0.105,0.377,0.217,0.753,0.334,1.124
		c0.116,0.37,0.234,0.722,0.355,1.054c0.105-0.268,0.217-0.583,0.333-0.942c0.116-0.36,0.232-0.736,0.345-1.125
		c0.113-0.388,0.219-0.777,0.318-1.165c0.1-0.389,0.184-0.75,0.255-1.082h1.018c-0.276,1.082-0.569,2.089-0.88,3.021
		c-0.312,0.934-0.629,1.764-0.955,2.491H252.712z"/>
	<path fill="#A3A0AB" d="M261.131,52.041c0,0.438-0.063,0.834-0.191,1.188c-0.127,0.354-0.305,0.658-0.535,0.912
		c-0.229,0.255-0.504,0.451-0.821,0.588c-0.319,0.139-0.665,0.207-1.04,0.207s-0.721-0.068-1.039-0.207
		c-0.318-0.137-0.592-0.333-0.82-0.588c-0.23-0.254-0.409-0.559-0.536-0.912c-0.128-0.354-0.191-0.749-0.191-1.188
		c0-0.431,0.063-0.825,0.191-1.183c0.127-0.356,0.306-0.662,0.536-0.917c0.229-0.254,0.502-0.45,0.82-0.588s0.664-0.207,1.039-0.207
		s0.721,0.069,1.04,0.207c0.317,0.138,0.592,0.334,0.821,0.588c0.23,0.255,0.408,0.561,0.535,0.917
		C261.067,51.215,261.131,51.61,261.131,52.041 M260.102,52.041c0-0.621-0.139-1.114-0.418-1.479s-0.659-0.546-1.141-0.546
		c-0.48,0-0.86,0.182-1.14,0.546c-0.278,0.364-0.419,0.857-0.419,1.479c0,0.622,0.141,1.115,0.419,1.479
		c0.279,0.364,0.659,0.546,1.14,0.546c0.481,0,0.861-0.182,1.141-0.546S260.102,52.663,260.102,52.041"/>
	<path fill="#A3A0AB" d="M261.565,56.908c-0.085,0-0.194-0.011-0.329-0.032c-0.134-0.021-0.246-0.05-0.34-0.085l0.129-0.805
		c0.07,0.021,0.15,0.038,0.242,0.053c0.093,0.014,0.178,0.021,0.255,0.021c0.341,0,0.582-0.104,0.728-0.312
		c0.144-0.208,0.217-0.514,0.217-0.917v-5.418h0.986v5.407c0,0.707-0.161,1.232-0.483,1.574
		C262.648,56.736,262.18,56.908,261.565,56.908 M262.954,48.415c-0.177,0-0.327-0.058-0.45-0.174
		c-0.123-0.117-0.186-0.274-0.186-0.473s0.062-0.355,0.186-0.472s0.273-0.175,0.45-0.175s0.327,0.059,0.45,0.175
		c0.124,0.116,0.186,0.273,0.186,0.472s-0.062,0.355-0.186,0.473C263.281,48.357,263.131,48.415,262.954,48.415"/>
	<path fill="#A3A0AB" d="M269.485,54.649c-0.227,0.057-0.524,0.116-0.896,0.18c-0.37,0.064-0.8,0.096-1.288,0.096
		c-0.424,0-0.781-0.062-1.07-0.186c-0.291-0.123-0.523-0.298-0.7-0.524s-0.304-0.492-0.382-0.8
		c-0.078-0.309-0.116-0.649-0.116-1.023v-3.096h0.986v2.884c0,0.671,0.105,1.152,0.317,1.441c0.213,0.29,0.57,0.435,1.071,0.435
		c0.106,0,0.216-0.003,0.329-0.01c0.113-0.008,0.219-0.017,0.318-0.027c0.098-0.011,0.188-0.021,0.27-0.031
		c0.082-0.011,0.14-0.022,0.175-0.037v-4.654h0.986V54.649z"/>
	<path fill="#A3A0AB" d="M277.183,51.85c0.112,0.142,0.257,0.327,0.431,0.557c0.172,0.229,0.35,0.484,0.534,0.764
		c0.185,0.278,0.366,0.57,0.546,0.874c0.18,0.305,0.334,0.598,0.461,0.88h-1.123c-0.142-0.268-0.295-0.54-0.461-0.815
		c-0.166-0.276-0.335-0.539-0.504-0.79c-0.17-0.252-0.338-0.486-0.504-0.705s-0.316-0.41-0.449-0.572
		c-0.094,0.006-0.187,0.01-0.283,0.01h-0.29h-0.923v2.873h-1.029v-7.241c0.291-0.07,0.614-0.118,0.971-0.143
		c0.357-0.025,0.684-0.038,0.981-0.038c1.03,0,1.817,0.194,2.358,0.584c0.541,0.389,0.811,0.968,0.811,1.738
		c0,0.487-0.129,0.905-0.387,1.252C278.064,51.422,277.684,51.681,277.183,51.85 M275.624,48.404c-0.438,0-0.774,0.011-1.007,0.032
		v2.768h0.731c0.354,0,0.671-0.018,0.954-0.053s0.521-0.104,0.715-0.202c0.195-0.099,0.346-0.238,0.451-0.419
		c0.106-0.18,0.159-0.419,0.159-0.716c0-0.275-0.053-0.505-0.159-0.688c-0.105-0.184-0.249-0.329-0.429-0.436
		c-0.181-0.105-0.394-0.18-0.637-0.222C276.159,48.425,275.9,48.404,275.624,48.404"/>
	<path fill="#A3A0AB" d="M279.833,52.051c0-0.487,0.071-0.914,0.212-1.277c0.142-0.363,0.329-0.667,0.562-0.906
		c0.232-0.24,0.502-0.421,0.806-0.541s0.614-0.181,0.933-0.181c0.742,0,1.312,0.232,1.707,0.694
		c0.396,0.464,0.594,1.168,0.594,2.115v0.165c0,0.067-0.003,0.129-0.01,0.186h-3.775c0.043,0.572,0.209,1.007,0.498,1.305
		c0.29,0.296,0.743,0.444,1.357,0.444c0.347,0,0.639-0.03,0.875-0.09s0.415-0.118,0.535-0.175l0.139,0.827
		c-0.12,0.063-0.331,0.131-0.631,0.201c-0.301,0.071-0.643,0.105-1.023,0.105c-0.48,0-0.896-0.072-1.246-0.217
		s-0.639-0.345-0.864-0.599c-0.226-0.255-0.395-0.557-0.503-0.907C279.887,52.852,279.833,52.468,279.833,52.051 M283.618,51.511
		c0.007-0.446-0.104-0.812-0.333-1.098c-0.23-0.286-0.547-0.43-0.949-0.43c-0.227,0-0.426,0.045-0.6,0.133
		c-0.173,0.089-0.32,0.203-0.439,0.344c-0.12,0.143-0.215,0.305-0.281,0.488c-0.068,0.184-0.111,0.371-0.133,0.562H283.618z"/>
	<path fill="#A3A0AB" d="M289.471,54.373c-0.084,0.058-0.249,0.13-0.492,0.218c-0.244,0.09-0.528,0.133-0.854,0.133
		c-0.333,0-0.646-0.053-0.939-0.159c-0.293-0.105-0.549-0.27-0.768-0.492c-0.22-0.224-0.393-0.5-0.52-0.833
		c-0.129-0.332-0.191-0.728-0.191-1.188c0-0.402,0.061-0.771,0.181-1.107s0.294-0.626,0.524-0.87
		c0.229-0.243,0.512-0.435,0.843-0.571c0.333-0.139,0.707-0.207,1.124-0.207c0.459,0,0.86,0.033,1.203,0.1
		c0.344,0.067,0.631,0.13,0.864,0.187V54.5c0,0.849-0.219,1.464-0.657,1.846c-0.438,0.382-1.104,0.572-1.992,0.572
		c-0.348,0-0.674-0.028-0.981-0.085s-0.574-0.124-0.802-0.202l0.181-0.858c0.198,0.078,0.44,0.146,0.728,0.207
		c0.285,0.06,0.584,0.09,0.895,0.09c0.587,0,1.009-0.117,1.268-0.35c0.258-0.233,0.387-0.604,0.387-1.113V54.373z M289.461,50.281
		c-0.1-0.028-0.232-0.055-0.398-0.08c-0.166-0.023-0.391-0.036-0.673-0.036c-0.53,0-0.938,0.173-1.225,0.52
		c-0.286,0.346-0.43,0.806-0.43,1.378c0,0.318,0.04,0.591,0.122,0.816c0.081,0.227,0.19,0.414,0.328,0.562
		c0.139,0.148,0.297,0.258,0.478,0.328c0.18,0.071,0.366,0.106,0.556,0.106c0.263,0,0.503-0.037,0.723-0.111
		c0.219-0.075,0.393-0.161,0.52-0.26V50.281z"/>
	<path fill="#A3A0AB" d="M292.578,48.415c-0.178,0-0.327-0.059-0.451-0.174c-0.123-0.117-0.186-0.274-0.186-0.473
		s0.062-0.354,0.186-0.472c0.124-0.117,0.273-0.175,0.451-0.175c0.176,0,0.327,0.058,0.449,0.175
		c0.125,0.117,0.187,0.273,0.187,0.472s-0.062,0.355-0.187,0.473C292.905,48.356,292.754,48.415,292.578,48.415 M293.076,54.924
		h-0.986v-5.513h0.986V54.924z"/>
	<path fill="#A3A0AB" d="M299.586,52.041c0,0.438-0.062,0.834-0.191,1.188c-0.127,0.354-0.305,0.658-0.535,0.912
		c-0.229,0.255-0.504,0.451-0.82,0.588c-0.319,0.139-0.666,0.207-1.039,0.207c-0.376,0-0.723-0.068-1.041-0.207
		c-0.316-0.137-0.592-0.333-0.82-0.588c-0.23-0.254-0.408-0.559-0.535-0.912c-0.128-0.354-0.191-0.749-0.191-1.188
		c0-0.431,0.063-0.825,0.191-1.183c0.127-0.356,0.305-0.662,0.535-0.917c0.229-0.254,0.504-0.45,0.82-0.588
		c0.318-0.138,0.665-0.207,1.041-0.207c0.373,0,0.72,0.069,1.039,0.207c0.316,0.138,0.591,0.334,0.82,0.588
		c0.23,0.255,0.408,0.561,0.535,0.917C299.523,51.215,299.586,51.61,299.586,52.041 M298.558,52.041c0-0.621-0.14-1.114-0.419-1.479
		s-0.659-0.546-1.139-0.546c-0.482,0-0.861,0.182-1.141,0.546s-0.42,0.857-0.42,1.479c0,0.622,0.141,1.115,0.42,1.479
		s0.658,0.546,1.141,0.546c0.479,0,0.859-0.182,1.139-0.546S298.558,52.663,298.558,52.041"/>
	<path fill="#A3A0AB" d="M300.922,49.571c0.227-0.057,0.527-0.117,0.901-0.181s0.806-0.095,1.294-0.095
		c0.438,0,0.802,0.062,1.092,0.185c0.289,0.124,0.521,0.298,0.694,0.52c0.173,0.224,0.294,0.49,0.365,0.801s0.106,0.653,0.106,1.029
		v3.095h-0.986v-2.883c0-0.34-0.023-0.63-0.068-0.87c-0.046-0.24-0.122-0.435-0.229-0.583c-0.105-0.148-0.247-0.256-0.424-0.324
		c-0.177-0.066-0.396-0.1-0.658-0.1c-0.105,0-0.215,0.004-0.328,0.01c-0.113,0.008-0.221,0.017-0.324,0.027
		c-0.102,0.01-0.193,0.022-0.275,0.037c-0.08,0.014-0.139,0.024-0.174,0.031v4.654h-0.986V49.571z"/>
	<path fill="#A3A0AB" d="M308.736,49.167c0.396,0,0.73,0.052,1.002,0.153c0.271,0.104,0.491,0.248,0.657,0.435
		c0.166,0.188,0.284,0.411,0.355,0.669s0.106,0.543,0.106,0.854v3.446c-0.086,0.014-0.205,0.033-0.355,0.058
		c-0.153,0.025-0.324,0.048-0.516,0.068c-0.189,0.022-0.396,0.041-0.62,0.059c-0.222,0.018-0.442,0.026-0.662,0.026
		c-0.312,0-0.598-0.031-0.858-0.095c-0.262-0.064-0.487-0.164-0.679-0.303c-0.19-0.137-0.339-0.319-0.446-0.546
		c-0.105-0.226-0.158-0.498-0.158-0.815c0-0.305,0.062-0.566,0.186-0.785c0.123-0.22,0.292-0.396,0.504-0.53
		s0.459-0.233,0.742-0.297c0.281-0.063,0.579-0.096,0.891-0.096c0.099,0,0.201,0.006,0.307,0.017
		c0.106,0.01,0.207,0.024,0.303,0.042s0.178,0.034,0.25,0.047c0.07,0.016,0.119,0.026,0.146,0.032v-0.275
		c0-0.163-0.017-0.323-0.051-0.482c-0.037-0.158-0.1-0.301-0.191-0.424c-0.092-0.124-0.217-0.223-0.377-0.297
		c-0.158-0.074-0.365-0.111-0.62-0.111c-0.325,0-0.609,0.022-0.854,0.068c-0.244,0.047-0.427,0.095-0.546,0.144l-0.117-0.816
		c0.127-0.057,0.34-0.111,0.637-0.165C308.068,49.195,308.389,49.167,308.736,49.167 M308.82,54.109
		c0.233,0,0.439-0.006,0.621-0.017c0.18-0.011,0.33-0.03,0.449-0.058v-1.644c-0.07-0.035-0.184-0.065-0.344-0.09
		c-0.158-0.025-0.352-0.038-0.577-0.038c-0.149,0-0.307,0.012-0.473,0.032s-0.317,0.065-0.455,0.133s-0.254,0.158-0.345,0.275
		c-0.092,0.117-0.139,0.271-0.139,0.461c0,0.354,0.113,0.6,0.34,0.736C308.125,54.04,308.432,54.109,308.82,54.109"/>
	<path fill="#A3A0AB" d="M314.09,54.924c-0.607-0.013-1.038-0.145-1.294-0.393c-0.253-0.247-0.382-0.632-0.382-1.154V46.76
		l0.986-0.169v6.627c0,0.162,0.015,0.296,0.043,0.402c0.028,0.105,0.074,0.191,0.138,0.255c0.063,0.062,0.149,0.11,0.255,0.143
		s0.236,0.059,0.392,0.079L314.09,54.924z"/>
	<path fill="#A3A0AB" d="M315.277,49.571c0.227-0.057,0.527-0.117,0.902-0.181c0.373-0.063,0.805-0.095,1.293-0.095
		c0.438,0,0.803,0.062,1.092,0.185c0.29,0.124,0.521,0.298,0.695,0.52c0.173,0.224,0.294,0.49,0.365,0.801
		c0.07,0.311,0.105,0.653,0.105,1.029v3.095h-0.986v-2.883c0-0.34-0.022-0.63-0.068-0.87c-0.045-0.24-0.121-0.435-0.228-0.583
		s-0.247-0.256-0.425-0.324c-0.176-0.066-0.396-0.1-0.657-0.1c-0.106,0-0.216,0.004-0.329,0.01
		c-0.112,0.008-0.221,0.017-0.323,0.027c-0.102,0.01-0.194,0.022-0.275,0.037c-0.081,0.014-0.14,0.024-0.175,0.031v4.654h-0.986
		V49.571z"/>
	<path fill="#A3A0AB" d="M321.004,52.051c0-0.487,0.07-0.914,0.212-1.277s0.328-0.667,0.562-0.906
		c0.233-0.24,0.502-0.421,0.806-0.541s0.614-0.181,0.933-0.181c0.742,0,1.312,0.232,1.708,0.694
		c0.396,0.464,0.593,1.168,0.593,2.115v0.165c0,0.067-0.003,0.129-0.01,0.186h-3.775c0.043,0.572,0.208,1.007,0.499,1.305
		c0.29,0.296,0.742,0.444,1.357,0.444c0.346,0,0.638-0.03,0.875-0.09c0.235-0.06,0.414-0.118,0.534-0.175l0.138,0.827
		c-0.119,0.063-0.33,0.131-0.631,0.201c-0.3,0.071-0.641,0.105-1.022,0.105c-0.48,0-0.896-0.072-1.246-0.217
		s-0.638-0.345-0.864-0.599c-0.226-0.255-0.394-0.557-0.503-0.907C321.058,52.852,321.004,52.468,321.004,52.051 M324.788,51.511
		c0.008-0.446-0.104-0.812-0.333-1.098c-0.23-0.286-0.547-0.43-0.949-0.43c-0.227,0-0.427,0.045-0.599,0.133
		c-0.174,0.089-0.32,0.203-0.44,0.344c-0.12,0.143-0.215,0.305-0.281,0.488c-0.067,0.184-0.111,0.371-0.133,0.562H324.788z"/>
	<path fill="#A3A0AB" d="M330.641,54.373c-0.084,0.058-0.249,0.13-0.493,0.218c-0.244,0.09-0.527,0.133-0.853,0.133
		c-0.333,0-0.646-0.053-0.938-0.159c-0.294-0.105-0.55-0.27-0.769-0.492c-0.22-0.224-0.393-0.5-0.521-0.833
		c-0.127-0.332-0.19-0.728-0.19-1.188c0-0.402,0.061-0.771,0.181-1.107s0.295-0.626,0.524-0.87c0.229-0.243,0.511-0.435,0.843-0.571
		c0.332-0.139,0.707-0.207,1.124-0.207c0.459,0,0.86,0.033,1.203,0.1c0.343,0.067,0.631,0.13,0.864,0.187V54.5
		c0,0.849-0.219,1.464-0.657,1.846c-0.438,0.382-1.103,0.572-1.993,0.572c-0.347,0-0.674-0.028-0.98-0.085
		c-0.308-0.057-0.574-0.124-0.801-0.202l0.18-0.858c0.199,0.078,0.441,0.146,0.727,0.207c0.287,0.06,0.585,0.09,0.896,0.09
		c0.586,0,1.009-0.117,1.267-0.35c0.258-0.233,0.387-0.604,0.387-1.113V54.373z M330.63,50.281c-0.098-0.028-0.23-0.055-0.397-0.08
		c-0.166-0.023-0.391-0.036-0.673-0.036c-0.53,0-0.938,0.173-1.225,0.52c-0.287,0.346-0.43,0.806-0.43,1.378
		c0,0.318,0.041,0.591,0.122,0.816c0.082,0.227,0.19,0.414,0.329,0.562c0.138,0.148,0.297,0.258,0.477,0.328
		c0.181,0.071,0.366,0.106,0.557,0.106c0.262,0,0.502-0.037,0.721-0.111c0.22-0.075,0.393-0.161,0.52-0.26V50.281z"/>
	<path fill="#A3A0AB" d="M338.126,52.041c0,0.438-0.062,0.834-0.19,1.188s-0.306,0.658-0.535,0.912
		c-0.23,0.255-0.505,0.451-0.821,0.588c-0.319,0.139-0.665,0.207-1.04,0.207s-0.721-0.068-1.039-0.207
		c-0.318-0.137-0.592-0.333-0.821-0.588c-0.229-0.254-0.408-0.559-0.535-0.912c-0.128-0.354-0.191-0.749-0.191-1.188
		c0-0.431,0.063-0.825,0.191-1.183c0.127-0.356,0.306-0.662,0.535-0.917c0.229-0.254,0.503-0.45,0.821-0.588
		s0.664-0.207,1.039-0.207s0.721,0.069,1.04,0.207c0.316,0.138,0.591,0.334,0.821,0.588c0.229,0.255,0.407,0.561,0.535,0.917
		C338.063,51.215,338.126,51.61,338.126,52.041 M337.098,52.041c0-0.621-0.139-1.114-0.419-1.479
		c-0.278-0.364-0.659-0.546-1.14-0.546s-0.86,0.182-1.14,0.546s-0.419,0.857-0.419,1.479c0,0.622,0.14,1.115,0.419,1.479
		s0.659,0.546,1.14,0.546s0.861-0.182,1.14-0.546C336.959,53.156,337.098,52.663,337.098,52.041"/>
	<path fill="#A3A0AB" d="M226.422,27.111c-0.76,0-1.414-0.109-1.96-0.329c-0.546-0.219-0.999-0.527-1.357-0.924
		c-0.359-0.396-0.624-0.862-0.795-1.397c-0.171-0.536-0.258-1.125-0.258-1.767v-6.958h2.04V22.5c0,0.503,0.057,0.935,0.169,1.293
		c0.113,0.358,0.273,0.65,0.482,0.876c0.209,0.225,0.455,0.391,0.739,0.498c0.284,0.106,0.602,0.16,0.955,0.16
		s0.676-0.054,0.965-0.16c0.289-0.107,0.538-0.273,0.747-0.498c0.209-0.226,0.37-0.518,0.481-0.876
		c0.113-0.358,0.169-0.79,0.169-1.293v-6.764h2.04v6.958c0,0.642-0.088,1.23-0.264,1.767c-0.178,0.535-0.445,1.002-0.805,1.397
		c-0.358,0.396-0.816,0.705-1.373,0.924C227.842,27.001,227.184,27.111,226.422,27.111"/>
	<path fill="#A3A0AB" d="M233.234,18.965c0.375-0.106,0.861-0.208,1.462-0.305c0.6-0.097,1.265-0.145,1.992-0.145
		c0.685,0,1.259,0.093,1.719,0.281s0.828,0.45,1.101,0.787c0.273,0.338,0.467,0.745,0.579,1.222s0.169,0.999,0.169,1.566v4.724
		h-1.945v-4.418c0-0.45-0.029-0.833-0.088-1.148c-0.059-0.316-0.154-0.573-0.289-0.772c-0.134-0.197-0.316-0.342-0.546-0.434
		c-0.231-0.09-0.513-0.136-0.844-0.136c-0.247,0-0.503,0.016-0.771,0.048c-0.268,0.031-0.466,0.059-0.595,0.08v6.78h-1.943V18.965z"
		/>
	<path fill="#A3A0AB" d="M244.705,16.234c0,0.364-0.117,0.653-0.354,0.867c-0.234,0.215-0.514,0.322-0.834,0.322
		c-0.334,0-0.617-0.107-0.854-0.322c-0.234-0.214-0.354-0.503-0.354-0.867c0-0.375,0.119-0.67,0.354-0.883
		c0.236-0.215,0.52-0.322,0.854-0.322c0.32,0,0.6,0.107,0.834,0.322C244.588,15.564,244.705,15.859,244.705,16.234 M244.497,27.095
		h-1.945v-8.402h1.945V27.095z"/>
	<path fill="#A3A0AB" d="M249.67,18.323c0.643,0,1.183,0.081,1.623,0.241c0.438,0.16,0.789,0.385,1.053,0.675
		c0.261,0.289,0.449,0.641,0.561,1.053c0.113,0.412,0.17,0.865,0.17,1.356v5.094c-0.301,0.064-0.753,0.142-1.358,0.233
		c-0.604,0.091-1.288,0.136-2.048,0.136c-0.504,0-0.965-0.048-1.383-0.145c-0.417-0.097-0.773-0.251-1.067-0.466
		c-0.295-0.214-0.525-0.492-0.69-0.835c-0.168-0.343-0.25-0.766-0.25-1.27c0-0.481,0.094-0.889,0.281-1.222
		c0.188-0.331,0.441-0.602,0.764-0.811c0.32-0.209,0.692-0.358,1.116-0.449c0.423-0.092,0.864-0.137,1.325-0.137
		c0.215,0,0.439,0.014,0.676,0.04c0.234,0.026,0.486,0.071,0.754,0.137v-0.322c0-0.225-0.026-0.438-0.08-0.643
		c-0.054-0.203-0.147-0.383-0.281-0.537c-0.133-0.156-0.311-0.276-0.529-0.362c-0.221-0.085-0.496-0.128-0.828-0.128
		c-0.45,0-0.862,0.031-1.237,0.096c-0.374,0.064-0.681,0.14-0.915,0.225l-0.241-1.574c0.246-0.086,0.604-0.171,1.076-0.257
		C248.631,18.366,249.134,18.323,249.67,18.323 M249.83,25.569c0.6,0,1.055-0.032,1.365-0.096V23.32
		c-0.106-0.032-0.262-0.064-0.465-0.097c-0.205-0.032-0.429-0.049-0.676-0.049c-0.214,0-0.431,0.017-0.65,0.049
		c-0.219,0.032-0.418,0.091-0.594,0.177c-0.178,0.086-0.318,0.206-0.426,0.361c-0.107,0.156-0.161,0.351-0.161,0.586
		c0,0.461,0.145,0.78,0.435,0.957C248.947,25.48,249.338,25.569,249.83,25.569"/>
	<polygon fill="#A3A0AB" points="259.102,27.095 259.102,15.961 266.25,15.961 266.25,17.68 261.125,17.68 261.125,20.427 
		265.688,20.427 265.688,22.115 261.125,22.115 261.125,25.376 266.636,25.376 266.636,27.095 	"/>
	<path fill="#A3A0AB" d="M274.942,26.662c-0.376,0.096-0.862,0.195-1.462,0.297c-0.601,0.103-1.26,0.152-1.977,0.152
		c-0.675,0-1.24-0.096-1.695-0.289c-0.455-0.192-0.819-0.46-1.092-0.803c-0.273-0.344-0.47-0.753-0.588-1.229
		c-0.117-0.477-0.176-0.999-0.176-1.566v-4.708h1.944v4.402c0,0.9,0.13,1.543,0.394,1.929c0.262,0.386,0.721,0.578,1.373,0.578
		c0.236,0,0.484-0.011,0.748-0.032c0.263-0.021,0.457-0.048,0.586-0.08v-6.796h1.944V26.662z"/>
	<path fill="#A3A0AB" d="M282.107,20.444c-0.16-0.054-0.383-0.109-0.667-0.168c-0.284-0.06-0.612-0.09-0.987-0.09
		c-0.215,0-0.442,0.022-0.684,0.065c-0.24,0.042-0.409,0.08-0.506,0.111v6.732h-1.943v-8.001c0.374-0.139,0.844-0.271,1.406-0.394
		c0.562-0.123,1.186-0.185,1.87-0.185c0.13,0,0.279,0.008,0.45,0.024c0.172,0.017,0.343,0.038,0.516,0.064
		c0.17,0.027,0.336,0.059,0.496,0.097c0.162,0.037,0.29,0.072,0.387,0.104L282.107,20.444z"/>
	<path fill="#A3A0AB" d="M291.297,22.677c0,0.664-0.096,1.269-0.288,1.815c-0.192,0.546-0.466,1.012-0.819,1.397
		s-0.779,0.686-1.277,0.9c-0.498,0.214-1.047,0.32-1.647,0.32c-0.6,0-1.146-0.106-1.64-0.32c-0.492-0.215-0.914-0.515-1.268-0.9
		s-0.629-0.852-0.828-1.397c-0.198-0.547-0.297-1.151-0.297-1.815s0.099-1.267,0.297-1.808c0.199-0.541,0.477-1.004,0.836-1.39
		c0.358-0.386,0.784-0.684,1.277-0.892c0.492-0.208,1.033-0.313,1.622-0.313s1.133,0.105,1.631,0.313s0.925,0.506,1.278,0.892
		c0.354,0.386,0.629,0.849,0.826,1.39C291.199,21.411,291.297,22.013,291.297,22.677 M289.305,22.677
		c0-0.836-0.178-1.497-0.537-1.984s-0.86-0.731-1.503-0.731s-1.144,0.244-1.502,0.731s-0.538,1.148-0.538,1.984
		c0,0.846,0.18,1.516,0.538,2.008c0.358,0.493,0.859,0.739,1.502,0.739s1.144-0.246,1.503-0.739
		C289.127,24.193,289.305,23.523,289.305,22.677"/>
	<path fill="#A3A0AB" d="M300.777,22.902c0,0.643-0.084,1.231-0.249,1.768c-0.167,0.535-0.405,0.996-0.716,1.381
		c-0.311,0.387-0.699,0.687-1.164,0.9c-0.466,0.214-0.994,0.321-1.582,0.321c-0.397,0-0.762-0.049-1.094-0.145
		c-0.332-0.097-0.605-0.204-0.819-0.321v3.261h-1.944V18.966c0.396-0.107,0.885-0.209,1.463-0.306
		c0.578-0.096,1.188-0.145,1.831-0.145c0.664,0,1.259,0.102,1.783,0.306c0.525,0.204,0.972,0.496,1.343,0.875
		c0.369,0.38,0.652,0.841,0.851,1.382C300.678,21.619,300.777,22.227,300.777,22.902 M298.785,22.934
		c0-0.868-0.197-1.542-0.588-2.024s-1.02-0.724-1.887-0.724c-0.184,0-0.373,0.009-0.57,0.024c-0.199,0.017-0.394,0.052-0.587,0.105
		v4.803c0.171,0.118,0.399,0.229,0.684,0.33c0.283,0.102,0.586,0.152,0.907,0.152c0.707,0,1.224-0.241,1.551-0.724
		C298.621,24.396,298.785,23.748,298.785,22.934"/>
	<path fill="#A3A0AB" d="M302.223,22.742c0-0.74,0.109-1.387,0.329-1.944s0.511-1.021,0.876-1.39
		c0.363-0.37,0.781-0.648,1.253-0.836c0.472-0.187,0.953-0.281,1.446-0.281c1.156,0,2.059,0.358,2.707,1.076
		c0.648,0.718,0.973,1.79,0.973,3.213c0,0.107-0.004,0.228-0.009,0.361s-0.014,0.255-0.024,0.362h-5.543
		c0.055,0.674,0.292,1.196,0.715,1.565c0.424,0.37,1.037,0.555,1.84,0.555c0.473,0,0.902-0.043,1.294-0.128
		c0.391-0.086,0.698-0.178,0.924-0.273l0.257,1.591c-0.107,0.054-0.254,0.109-0.441,0.169c-0.188,0.058-0.402,0.111-0.644,0.16
		c-0.241,0.048-0.5,0.088-0.778,0.12c-0.279,0.032-0.562,0.048-0.853,0.048c-0.739,0-1.382-0.109-1.927-0.328
		c-0.547-0.22-0.996-0.525-1.352-0.917c-0.353-0.391-0.615-0.852-0.786-1.382C302.309,23.955,302.223,23.374,302.223,22.742
		 M307.861,21.874c0-0.268-0.037-0.522-0.111-0.763c-0.075-0.241-0.186-0.45-0.33-0.627s-0.321-0.315-0.53-0.418
		c-0.209-0.102-0.458-0.152-0.747-0.152c-0.3,0-0.562,0.056-0.787,0.169c-0.225,0.112-0.415,0.26-0.57,0.441
		s-0.275,0.392-0.361,0.627s-0.145,0.477-0.178,0.723H307.861z"/>
	<path fill="#A3A0AB" d="M310.689,30.083c-0.139,0-0.334-0.013-0.586-0.04c-0.252-0.026-0.475-0.078-0.668-0.152l0.258-1.591
		c0.235,0.075,0.52,0.112,0.852,0.112c0.449,0,0.766-0.131,0.947-0.394s0.273-0.656,0.273-1.181v-8.146h1.944v8.177
		c0,1.094-0.261,1.901-0.78,2.427C312.41,29.821,311.664,30.083,310.689,30.083 M313.919,16.234c0,0.364-0.118,0.653-0.354,0.867
		c-0.235,0.215-0.515,0.321-0.835,0.321c-0.332,0-0.617-0.106-0.852-0.321c-0.236-0.214-0.354-0.503-0.354-0.867
		c0-0.375,0.117-0.669,0.354-0.884c0.234-0.214,0.52-0.321,0.852-0.321c0.32,0,0.6,0.107,0.835,0.321
		C313.801,15.565,313.919,15.859,313.919,16.234"/>
	<path fill="#A3A0AB" d="M318.192,25.504c0.515,0,0.89-0.062,1.124-0.185c0.236-0.123,0.354-0.334,0.354-0.635
		c0-0.278-0.125-0.508-0.377-0.691c-0.252-0.181-0.666-0.379-1.245-0.594c-0.354-0.128-0.677-0.266-0.972-0.409
		c-0.295-0.146-0.549-0.313-0.764-0.507c-0.215-0.192-0.383-0.426-0.506-0.698c-0.123-0.273-0.186-0.607-0.186-1.004
		c0-0.772,0.285-1.38,0.853-1.824c0.567-0.445,1.339-0.667,2.313-0.667c0.492,0,0.963,0.045,1.414,0.137
		c0.449,0.091,0.787,0.179,1.012,0.265l-0.354,1.574c-0.214-0.097-0.487-0.185-0.819-0.266c-0.332-0.08-0.717-0.12-1.156-0.12
		c-0.396,0-0.718,0.067-0.964,0.201c-0.247,0.134-0.369,0.34-0.369,0.618c0,0.14,0.023,0.263,0.07,0.37
		c0.049,0.107,0.133,0.206,0.25,0.297c0.118,0.091,0.273,0.182,0.466,0.273c0.194,0.091,0.429,0.184,0.707,0.281
		c0.46,0.171,0.853,0.339,1.173,0.506c0.321,0.166,0.586,0.354,0.795,0.562c0.209,0.208,0.361,0.447,0.459,0.714
		c0.096,0.269,0.145,0.59,0.145,0.965c0,0.804-0.298,1.411-0.893,1.823c-0.594,0.413-1.443,0.619-2.545,0.619
		c-0.74,0-1.334-0.062-1.785-0.186c-0.449-0.123-0.766-0.222-0.947-0.297l0.338-1.623c0.289,0.118,0.635,0.23,1.035,0.337
		C317.221,25.451,317.678,25.504,318.192,25.504"/>
	<path fill="#A3A0AB" d="M325.277,21.97c0.246-0.258,0.509-0.532,0.787-0.828c0.278-0.294,0.552-0.589,0.82-0.883
		c0.268-0.295,0.521-0.579,0.763-0.852c0.241-0.274,0.446-0.512,0.619-0.715h2.297c-0.536,0.6-1.101,1.221-1.694,1.863
		c-0.596,0.643-1.192,1.269-1.792,1.88c0.321,0.269,0.658,0.593,1.012,0.972c0.354,0.38,0.697,0.785,1.028,1.214
		c0.332,0.429,0.644,0.856,0.933,1.285c0.289,0.428,0.53,0.824,0.723,1.188h-2.249c-0.193-0.332-0.416-0.68-0.667-1.045
		c-0.252-0.363-0.522-0.717-0.812-1.061c-0.289-0.342-0.584-0.666-0.884-0.972c-0.3-0.305-0.594-0.564-0.884-0.779v3.856h-1.943
		V16.282l1.943-0.321V21.97z"/>
	<path fill="#A3A0AB" d="M334.885,18.323c0.643,0,1.184,0.081,1.623,0.241c0.438,0.16,0.789,0.385,1.053,0.675
		c0.262,0.289,0.449,0.641,0.562,1.053c0.113,0.412,0.169,0.865,0.169,1.356v5.094c-0.3,0.064-0.752,0.142-1.357,0.233
		c-0.605,0.091-1.288,0.136-2.049,0.136c-0.503,0-0.964-0.048-1.382-0.145c-0.417-0.097-0.773-0.251-1.067-0.466
		c-0.295-0.214-0.525-0.492-0.691-0.835c-0.167-0.343-0.249-0.766-0.249-1.27c0-0.481,0.094-0.889,0.281-1.222
		c0.188-0.331,0.441-0.602,0.763-0.811c0.322-0.209,0.693-0.358,1.117-0.449c0.423-0.092,0.864-0.137,1.325-0.137
		c0.215,0,0.438,0.014,0.675,0.04c0.235,0.026,0.487,0.071,0.755,0.137v-0.322c0-0.225-0.026-0.438-0.079-0.643
		c-0.055-0.203-0.148-0.383-0.281-0.537c-0.135-0.156-0.312-0.276-0.531-0.362c-0.22-0.085-0.495-0.128-0.827-0.128
		c-0.45,0-0.862,0.031-1.237,0.096c-0.374,0.064-0.681,0.14-0.916,0.225l-0.24-1.574c0.246-0.086,0.605-0.171,1.076-0.257
		C333.847,18.366,334.35,18.323,334.885,18.323 M335.046,25.569c0.6,0,1.055-0.032,1.365-0.096V23.32
		c-0.106-0.032-0.263-0.064-0.465-0.097c-0.205-0.032-0.429-0.049-0.676-0.049c-0.214,0-0.431,0.017-0.65,0.049
		s-0.418,0.091-0.595,0.177c-0.176,0.086-0.318,0.206-0.425,0.361c-0.108,0.156-0.161,0.351-0.161,0.586
		c0,0.461,0.145,0.78,0.434,0.957C334.162,25.48,334.554,25.569,335.046,25.569"/>
</g>
<path fill="#A3A0AB" d="M32.311,27.685c0.758-0.147,1.766-0.657,2.792-1.304V3.675L5.415,12.951l0.004,22.265
	c1.495,0.407,3.158,0.598,4.254-0.063c2.398-1.431,6.03-5.81,6.03-5.81s-1.915,4.723-1.192,6.457
	c0.763,1.84,5.301,1.939,5.301,1.939s-5.129,3.118-7.517,5.186c-2.455,2.107-4.159,9.859-4.159,9.859s-1.19-4.969-2.716-6.008
	v-0.003c0,0-0.003,0-0.004,0.001v10.703l29.688,5.566V37.287c-0.674,0.191-1.306,0.391-1.811,0.604
	c-2.596,1.065-5.457,8.875-5.457,8.875s-0.155-6.506-1.316-8.373c-1.092-1.742-6.707-0.655-6.707-0.655s5.08-3.257,6.66-5.857
	c1.501-2.469,0.901-6.476,0.901-6.476S29.925,28.145,32.311,27.685 M22.122,24.585c-1.854,0.353-6.419,4.757-6.419,4.757
	s2.869-4.496,2.696-6.096c-0.17-1.519-3.146-2.067-3.146-2.067s3.896-0.956,5.595-2.484c1.64-1.476,3.073-4.539,3.073-4.539
	s0.362,2.534,1.819,2.897c1.504,0.379,5.522-1.243,5.522-1.243s-3.171,3.001-4.416,4.638c-1.301,1.707,0.526,4.956,0.526,4.956
	S24.005,24.233,22.122,24.585"/>
</svg>
